<svg width="48" height="48" viewBox="0 0 48 48" fill="none" xmlns="http://www.w3.org/2000/svg">
<g clip-path="url(#clip0_1_617)">
<rect width="48" height="48" fill="#F1F3F7"/>
<path fill-rule="evenodd" clip-rule="evenodd" d="M24.0002 16.3201C22.3253 16.3201 20.9675 17.6779 20.9675 19.3528C20.9675 21.0276 22.3253 22.3854 24.0002 22.3854C25.6751 22.3854 27.0328 21.0276 27.0328 19.3528C27.0328 17.6779 25.6751 16.3201 24.0002 16.3201ZM19.4811 19.3528C19.4811 16.857 21.5044 14.8337 24.0002 14.8337C26.496 14.8337 28.5192 16.857 28.5192 19.3528C28.5192 21.8486 26.496 23.8718 24.0002 23.8718C21.5044 23.8718 19.4811 21.8486 19.4811 19.3528Z" fill="#067AB2"/>
<path fill-rule="evenodd" clip-rule="evenodd" d="M18.331 26.9311C19.6892 26.1203 21.5268 25.5803 24.0001 25.5803C26.4735 25.5803 28.3111 26.1203 29.6692 26.9311C31.028 27.7421 31.8635 28.7982 32.3726 29.762L32.3726 29.762C32.8281 30.6246 32.679 31.5196 32.162 32.1689C31.6647 32.7934 30.8552 33.1661 29.9863 33.1661H18.014C17.145 33.1661 16.3356 32.7934 15.8382 32.1689C15.3212 31.5196 15.1722 30.6246 15.6278 29.762C16.1368 28.7982 16.9723 27.7421 18.331 26.9311ZM19.0929 28.2074C18.0034 28.8577 17.3444 29.6944 16.9421 30.4562L16.9421 30.4562C16.7781 30.7667 16.8303 31.0286 17.001 31.2429C17.1914 31.4821 17.5563 31.6797 18.014 31.6797H29.9863C30.444 31.6797 30.8088 31.4821 30.9992 31.2429C31.17 31.0286 31.2221 30.7666 31.0582 30.4562C30.6558 29.6944 29.9968 28.8577 28.9074 28.2074C27.8173 27.5567 26.2529 27.0667 24.0001 27.0667C21.7473 27.0667 20.183 27.5567 19.0929 28.2074Z" fill="#067AB2"/>
</g>
<defs>
<clipPath id="clip0_1_617">
<rect width="48" height="48" rx="24" fill="white"/>
</clipPath>
</defs>
</svg>
