<svg width="28" height="28" viewBox="0 0 28 28" fill="none" xmlns="http://www.w3.org/2000/svg">
<path fill-rule="evenodd" clip-rule="evenodd" d="M23.5525 7.72693C25.6874 7.72693 27.418 5.9972 27.418 3.86347C27.418 1.72974 25.6874 0 23.5525 0C21.4177 0 19.687 1.72974 19.687 3.86347C19.687 5.9972 21.4177 7.72693 23.5525 7.72693Z" fill="white"/>
<path fill-rule="evenodd" clip-rule="evenodd" d="M23.5525 17.8634C25.6874 17.8634 27.418 16.1337 27.418 14C27.418 11.8662 25.6874 10.1365 23.5525 10.1365C21.4177 10.1365 19.687 11.8662 19.687 14C19.687 16.1337 21.4177 17.8634 23.5525 17.8634Z" fill="white"/>
<path fill-rule="evenodd" clip-rule="evenodd" d="M23.5525 27.9999C25.6874 27.9999 27.418 26.2702 27.418 24.1365C27.418 22.0027 25.6874 20.2729 23.5525 20.2729C21.4177 20.2729 19.687 22.0027 19.687 24.1365C19.687 26.2702 21.4177 27.9999 23.5525 27.9999Z" fill="white"/>
<path fill-rule="evenodd" clip-rule="evenodd" d="M13.7091 17.8634C15.844 17.8634 17.5747 16.1337 17.5747 14C17.5747 11.8662 15.844 10.1365 13.7091 10.1365C11.5743 10.1365 9.84363 11.8662 9.84363 14C9.84363 16.1337 11.5743 17.8634 13.7091 17.8634Z" fill="white"/>
<path fill-rule="evenodd" clip-rule="evenodd" d="M13.7091 27.9996C15.844 27.9996 17.5747 26.2699 17.5747 24.1362C17.5747 22.0025 15.844 20.2727 13.7091 20.2727C11.5743 20.2727 9.84363 22.0025 9.84363 24.1362C9.84363 26.2699 11.5743 27.9996 13.7091 27.9996Z" fill="white"/>
<path fill-rule="evenodd" clip-rule="evenodd" d="M3.8657 27.9999C6.00056 27.9999 7.7312 26.2702 7.7312 24.1365C7.7312 22.0027 6.00056 20.2729 3.8657 20.2729C1.73084 20.2729 0.000183105 22.0027 0.000183105 24.1365C0.000183105 26.2702 1.73084 27.9999 3.8657 27.9999Z" fill="white"/>
</svg>
