<svg width="17" height="16" viewBox="0 0 17 16" fill="none" xmlns="http://www.w3.org/2000/svg">
<g clip-path="url(#clip0_1_153)">
<path d="M15.1513 6.19186L8.71185 1.33325L2.26648 6.19186C2.13324 6.31482 2.05312 6.48484 2.04311 6.66588V14.0853C2.04357 14.2389 2.10478 14.386 2.21335 14.4946C2.32192 14.6031 2.46904 14.6643 2.62258 14.6648H6.48696V11.5559C6.48696 10.9666 6.72105 10.4014 7.13774 9.98475C7.55444 9.56806 8.11959 9.33396 8.70888 9.33396C9.29818 9.33396 9.86333 9.56806 10.28 9.98475C10.6967 10.4014 10.9308 10.9666 10.9308 11.5559V14.6666H14.7946C14.9482 14.6661 15.0954 14.6049 15.204 14.4964C15.3127 14.3878 15.374 14.2407 15.3747 14.0871V6.66588C15.3644 6.4849 15.2843 6.31497 15.1513 6.19186Z" stroke="#211F54" stroke-width="1.6" stroke-linecap="round" stroke-linejoin="round"/>
</g>
<defs>
<clipPath id="clip0_1_153">
<rect width="16" height="16" fill="white" transform="translate(0.708954)"/>
</clipPath>
</defs>
</svg>
