<svg width="62" height="26" viewBox="0 0 62 26" fill="none" xmlns="http://www.w3.org/2000/svg">
<path d="M9.09042 21.1459C6.80148 21.1459 5.01745 19.3956 5.01745 16.568C5.01745 13.8415 6.80148 12.0911 9.09042 12.0911C11.2784 12.0911 13.0961 13.8752 13.0961 16.568C13.0961 19.3619 11.2784 21.1459 9.09042 21.1459ZM4.78183 22.829C6.02728 24.8823 8.51819 25.6565 10.2349 25.6565C14.6108 25.6565 18.2462 21.9538 18.2462 16.6354C18.2462 11.4853 14.8464 7.58059 10.1339 7.58059C8.2489 7.58059 6.26291 8.35479 5.1521 10.0715V1.25235H0.0356445V25.2525H4.78183V22.829Z" fill="#6D758F"></path>
<path d="M27.019 7.98452H21.9363V25.2525H27.0864V18.2847C27.0864 14.683 28.8704 12.4278 31.8325 12.4278C32.3375 12.4278 32.7077 12.4951 32.977 12.5961V7.71524C32.7077 7.61425 32.3038 7.58059 31.8999 7.58059C29.6109 7.58059 27.9279 8.85971 27.019 10.9803V7.98452Z" fill="#6D758F"></path>
<path d="M35.9805 25.2525H41.0969V7.98452H35.9805V25.2525ZM38.4714 0.343506C36.8893 0.343506 35.6439 1.48797 35.6439 3.07003C35.6439 4.6521 36.8893 5.83023 38.4714 5.83023C40.0534 5.83023 41.3325 4.6521 41.3325 3.07003C41.3325 1.48797 40.0534 0.343506 38.4714 0.343506Z" fill="#6D758F"></path>
<path d="M49.7154 16.6017L43.7911 25.2525H49.5135L52.7449 20.1024L55.9763 25.2525H61.6987L55.7744 16.6017L61.6987 7.98452H55.8754L52.7449 13.1683L49.6144 7.98452H43.7911L49.7154 16.6017Z" fill="#6D758F"></path>
</svg>
