<svg width="372" height="347" viewBox="0 0 372 347" fill="none" xmlns="http://www.w3.org/2000/svg">
<path d="M191.272 10.994C187.366 9.25184 183.037 8.624 178.783 9.18254C174.89 9.6979 171.192 11.1666 168.032 13.4529C165.849 15.1027 164.149 17.2886 163.106 19.789C161.836 23.0681 161.454 26.613 161.996 30.0795C162.032 30.3662 162.127 30.6429 162.274 30.8931C162.422 31.1434 162.619 31.3621 162.854 31.5363C163.091 31.7113 163.361 31.8382 163.649 31.9097C163.937 31.9812 164.237 31.9957 164.53 31.9526L172.219 30.8041C172.75 30.7295 173.236 30.469 173.586 30.0708C173.936 29.6726 174.127 29.1636 174.124 28.6381C174.124 26.2254 174.911 22.0321 180.656 21.0763C182.1 20.8121 183.593 20.9943 184.927 21.5979C186.261 22.2014 187.37 23.1963 188.101 24.4448C188.732 25.4976 189.101 26.6816 189.178 27.9004C189.255 29.1192 189.037 30.3385 188.542 31.4593C187.007 35.0667 183.324 36.1304 181.262 36.4465C180.123 36.6195 179.101 37.2262 178.417 38.1343C177.733 39.0424 177.443 40.1784 177.61 41.2949L178.846 49.3963C178.935 49.9654 179.251 50.4765 179.725 50.8176C180.198 51.1586 180.791 51.3017 181.372 51.2154L188.864 50.0977C189.152 50.0563 189.429 49.9595 189.678 49.8129C189.927 49.6662 190.145 49.4727 190.317 49.2434C190.49 49.014 190.615 48.7535 190.684 48.4768C190.753 48.2001 190.766 47.9126 190.721 47.6311L190.462 45.9276C190.458 45.9081 190.46 45.8879 190.468 45.8698C190.477 45.8518 190.491 45.8369 190.509 45.8274C193.342 44.3483 195.808 42.2773 197.734 39.761C200.945 35.5138 202.125 30.5112 201.244 24.7762C199.961 16.6287 195.113 12.8054 191.272 10.994Z" fill="#EBEBEB"></path>
<path d="M185.826 52.6186L185.173 52.7188C184.426 52.8296 183.71 53.0833 183.064 53.4654C182.418 53.8475 181.855 54.3505 181.407 54.9456C180.96 55.5408 180.636 56.2165 180.455 56.9341C180.274 57.6518 180.239 58.3973 180.352 59.1281C180.465 59.859 180.724 60.5609 181.115 61.1937C181.505 61.8264 182.018 62.3778 182.626 62.8162C183.234 63.2546 183.923 63.5715 184.656 63.7488C185.389 63.9261 186.15 63.9603 186.896 63.8494L187.557 63.7569C189.039 63.5034 190.36 62.6918 191.238 61.4957C192.116 60.2997 192.481 58.8145 192.255 57.3581C192.028 55.9018 191.229 54.5902 190.027 53.7043C188.825 52.8184 187.317 52.4287 185.826 52.6186Z" fill="#EBEBEB"></path>
<path d="M36.9265 141.864C34.9415 139.506 32.3213 137.741 29.3634 136.769C26.6509 135.884 23.7536 135.688 20.9426 136.198C18.987 136.588 17.1709 137.476 15.6775 138.773C13.7762 140.518 12.3666 142.713 11.5851 145.148C11.5096 145.347 11.477 145.56 11.4894 145.772C11.5018 145.985 11.559 146.192 11.6573 146.382C11.7556 146.572 11.893 146.739 12.0607 146.874C12.2284 147.01 12.4229 147.109 12.6319 147.167L18.0307 148.825C18.4003 148.946 18.8031 148.93 19.1608 148.777C19.5185 148.625 19.8057 148.348 19.9667 148C20.7537 146.42 22.6425 143.93 26.7034 145.109C27.7338 145.388 28.6499 145.974 29.3242 146.786C29.9985 147.599 30.3973 148.597 30.4652 149.642C30.5343 150.528 30.3893 151.417 30.042 152.238C29.6947 153.059 29.1549 153.788 28.4663 154.367C26.2863 156.248 23.5318 155.785 22.0837 155.346C21.2874 155.105 20.426 155.183 19.6883 155.563C18.9507 155.943 18.397 156.594 18.1487 157.373L16.3229 163.062C16.2538 163.259 16.2264 163.469 16.2425 163.677C16.2586 163.885 16.3177 164.088 16.4164 164.274C16.515 164.459 16.651 164.623 16.8163 164.755C16.9815 164.887 17.1724 164.985 17.3775 165.043L22.6425 166.661C23.0516 166.782 23.4929 166.741 23.8712 166.546C24.2496 166.352 24.5347 166.019 24.6651 165.621L25.0428 164.426C25.0489 164.412 25.0587 164.401 25.0713 164.393C25.0839 164.384 25.0986 164.38 25.1136 164.38C27.4388 164.292 29.7164 163.708 31.7874 162.668C33.5266 161.777 35.0611 160.546 36.2968 159.052C37.5325 157.558 38.4431 155.833 38.9727 153.981C40.7749 148.254 38.8546 144.23 36.9265 141.864Z" fill="#EBEBEB"></path>
<path d="M19.7775 167.355L19.321 167.216C18.797 167.056 18.2458 166.997 17.6988 167.045C17.1518 167.093 16.6198 167.245 16.1331 167.494C15.6464 167.744 15.2145 168.084 14.8622 168.497C14.5098 168.909 14.2439 169.386 14.0796 169.899C13.9153 170.412 13.8557 170.952 13.9044 171.488C13.9532 172.024 14.1091 172.545 14.3634 173.021C14.6177 173.498 14.9654 173.921 15.3867 174.266C15.8079 174.611 16.2944 174.872 16.8183 175.033L17.2748 175.171C18.333 175.496 19.4798 175.396 20.4627 174.893C21.4457 174.39 22.1843 173.525 22.5162 172.489C22.8481 171.452 22.746 170.329 22.2324 169.367C21.7187 168.404 20.8357 167.68 19.7775 167.355Z" fill="#EBEBEB"></path>
<path d="M270.176 326.553C289.331 325.736 313.626 319.746 328.485 307.506C307.569 308.156 287.302 314.776 270.176 326.553Z" fill="#EBEBEB"></path>
<path d="M283.516 304.369C302.672 303.551 326.966 297.562 341.825 285.322C320.909 285.971 300.643 292.591 283.516 304.369Z" fill="#EBEBEB"></path>
<path d="M297.824 283.233C316.979 282.415 341.274 276.426 356.141 264.186C335.222 264.836 314.954 271.456 297.824 283.233Z" fill="#EBEBEB"></path>
<path d="M313.808 261.434C332.869 258.351 356.353 249.501 369.535 235.681C348.803 238.792 329.442 247.739 313.808 261.434Z" fill="#EBEBEB"></path>
<path d="M327.864 245.324C344.784 235.842 363.633 219.655 370.653 202.582C352.403 212.39 337.518 227.259 327.864 245.324Z" fill="#EBEBEB"></path>
<path d="M321.049 252.947C326.259 234.339 327.88 209.319 320.262 191.574C314.322 211.658 314.595 233.016 321.049 252.947Z" fill="#EBEBEB"></path>
<path d="M307.496 270.761C311.187 251.02 310.534 224.897 300.885 207.037C296.586 228.45 298.887 250.632 307.496 270.761Z" fill="#EBEBEB"></path>
<path d="M291.386 292.544C295.077 272.803 294.416 246.673 284.776 228.82C280.477 250.234 282.778 272.415 291.386 292.544Z" fill="#EBEBEB"></path>
<path d="M274.126 320.178C277.817 300.437 277.164 274.306 267.515 256.454C263.217 277.867 265.518 300.049 274.126 320.178Z" fill="#EBEBEB"></path>
<path d="M267.563 330.384C264.793 335.402 262.613 339.502 261.181 342.362C260.483 343.75 259.932 344.849 259.528 345.661C259.355 346.008 259.221 346.293 259.111 346.525C259.001 346.756 258.977 346.825 258.993 346.833C259.062 346.746 259.122 346.653 259.174 346.555C259.308 346.332 259.465 346.062 259.654 345.723L261.425 342.486C262.944 339.664 265.187 335.61 268.012 330.623C270.837 325.635 274.308 319.762 278.243 313.302C282.178 306.843 286.743 299.836 291.622 292.59C301.467 278.114 311.1 265.488 318.293 256.531C321.89 252.045 324.841 248.445 326.911 245.986L329.272 243.127L329.87 242.356C330.004 242.179 330.067 242.094 330.059 242.078C330.051 242.063 329.964 242.148 329.815 242.31L329.162 243.019L326.698 245.794C324.566 248.199 321.551 251.752 317.9 256.2C310.596 265.095 300.885 277.683 291.024 292.182" fill="#E0E0E0"></path>
<path d="M234.51 200.616C241.499 183.712 245.898 160.271 240.806 142.473C232.974 160.84 230.785 181.048 234.51 200.616Z" fill="#EBEBEB"></path>
<path d="M219.872 180.128C226.861 163.224 231.26 139.783 226.207 121.985C218.357 140.347 216.155 160.556 219.872 180.128Z" fill="#EBEBEB"></path>
<path d="M206.579 159.207C213.576 142.303 217.967 118.855 212.923 101.064C205.073 119.427 202.869 139.635 206.579 159.207Z" fill="#EBEBEB"></path>
<path d="M193.365 136.576C198.245 118.847 199.764 94.952 192.578 77.9939C187.04 97.1836 187.314 117.536 193.365 136.576Z" fill="#EBEBEB"></path>
<path d="M184.52 117.93C182.789 99.4303 175.8 76.6217 163.224 63.6565C164.711 83.407 172.119 102.288 184.52 117.93Z" fill="#EBEBEB"></path>
<path d="M188.636 126.895C173.943 114.877 152.033 103.385 132.94 102.845C148.671 116.076 168.052 124.445 188.636 126.895Z" fill="#EBEBEB"></path>
<path d="M199.205 145.795C182.89 134.634 159.068 124.667 139.055 125.808C156.638 138.165 177.575 145.122 199.205 145.795Z" fill="#EBEBEB"></path>
<path d="M212.371 168.573C196.048 157.411 172.234 147.445 152.212 148.586C169.798 160.944 190.738 167.901 212.371 168.573Z" fill="#EBEBEB"></path>
<path d="M230.346 194.619C214.032 183.458 190.209 173.491 170.196 174.632C187.779 186.989 208.716 193.946 230.346 194.619Z" fill="#EBEBEB"></path>
<path d="M236.91 204.408C240.318 208.841 243.135 212.371 245.142 214.768L247.448 217.528L248.062 218.237C248.129 218.322 248.206 218.4 248.29 218.468C248.246 218.368 248.188 218.275 248.117 218.191L247.558 217.42L245.355 214.583C243.419 212.132 240.633 208.555 237.312 204.1C233.99 199.645 230.048 194.295 225.814 188.283C221.579 182.27 217.101 175.503 212.545 168.326C203.455 153.966 195.955 140.538 190.776 130.695C188.179 125.777 186.125 121.769 184.732 118.986C184.05 117.645 183.51 116.581 183.111 115.795L182.67 114.978C182.623 114.879 182.565 114.786 182.497 114.7C182.497 114.7 182.497 114.808 182.599 115.001L182.977 115.856L184.488 119.102C185.803 121.923 187.794 125.962 190.328 130.918C195.404 140.823 202.849 154.313 211.947 168.688" fill="#E0E0E0"></path>
<path d="M367.851 134.433C364.98 131.184 361.232 128.793 357.038 127.534C353.196 126.38 349.118 126.2 345.185 127.01C342.454 127.63 339.938 128.943 337.89 130.818C335.282 133.333 333.384 136.467 332.381 139.914C332.288 140.195 332.255 140.492 332.283 140.786C332.312 141.08 332.401 141.366 332.546 141.625C332.689 141.887 332.883 142.118 333.119 142.304C333.354 142.491 333.625 142.63 333.916 142.712L341.557 144.855C342.083 145 342.644 144.957 343.139 144.732C343.634 144.507 344.031 144.116 344.257 143.629C345.28 141.378 347.861 137.825 353.606 139.336C355.065 139.69 356.375 140.481 357.352 141.599C358.33 142.716 358.927 144.105 359.06 145.572C359.188 146.813 359.015 148.067 358.555 149.23C358.096 150.394 357.363 151.436 356.416 152.27C353.425 154.983 349.53 154.436 347.483 153.866C346.35 153.548 345.135 153.683 344.102 154.241C343.07 154.798 342.305 155.733 341.974 156.841L339.613 164.896C339.531 165.178 339.506 165.472 339.541 165.763C339.576 166.054 339.669 166.335 339.815 166.59C339.962 166.845 340.158 167.07 340.394 167.25C340.629 167.43 340.899 167.563 341.187 167.64L348.632 169.737C348.92 169.817 349.22 169.84 349.517 169.806C349.813 169.771 350.1 169.68 350.36 169.536C350.621 169.393 350.85 169.201 351.034 168.971C351.218 168.741 351.354 168.477 351.434 168.195L351.93 166.507C351.937 166.487 351.949 166.469 351.966 166.456C351.983 166.442 352.003 166.433 352.024 166.43C355.292 166.233 358.476 165.336 361.35 163.802C366.182 161.196 369.472 157.011 371.125 151.353C373.478 143.267 370.645 137.686 367.851 134.433Z" fill="#EBEBEB"></path>
<path d="M344.674 170.824L344.021 170.639C342.523 170.218 340.916 170.397 339.553 171.136C338.19 171.875 337.183 173.115 336.753 174.582C336.323 176.049 336.505 177.623 337.26 178.958C338.015 180.293 339.281 181.279 340.778 181.7L341.431 181.885C342.173 182.094 342.949 182.157 343.716 182.072C344.482 181.987 345.224 181.754 345.899 181.388C346.574 181.022 347.169 180.529 347.649 179.938C348.13 179.347 348.486 178.669 348.699 177.942C348.912 177.216 348.977 176.456 348.89 175.705C348.803 174.954 348.566 174.228 348.192 173.567C347.818 172.906 347.315 172.323 346.711 171.853C346.108 171.382 345.415 171.033 344.674 170.824Z" fill="#EBEBEB"></path>
<path d="M115.634 200.346C112.347 198.008 108.456 196.622 104.403 196.346C100.696 196.1 96.985 196.774 93.6135 198.304C91.2835 199.426 89.2946 201.127 87.8448 203.237C86.0336 206.042 84.9926 209.257 84.8227 212.572C84.8002 212.845 84.8344 213.121 84.9232 213.382C85.012 213.642 85.1536 213.883 85.3395 214.089C85.5254 214.294 85.7518 214.461 86.0051 214.58C86.2584 214.698 86.5335 214.765 86.8138 214.776L94.1644 215.138C94.6681 215.163 95.164 215.008 95.5613 214.704C95.9587 214.4 96.231 213.966 96.3286 213.481C96.7694 211.238 98.3355 207.5 103.837 207.685C105.228 207.703 106.579 208.147 107.701 208.954C108.823 209.761 109.659 210.891 110.093 212.186C110.475 213.279 110.588 214.444 110.424 215.588C110.26 216.732 109.823 217.821 109.149 218.769C107.032 221.852 103.404 222.137 101.436 222.045C100.348 221.996 99.285 222.37 98.4763 223.084C97.6675 223.798 97.1787 224.796 97.1156 225.86L96.7221 233.607C96.6942 234.151 96.8872 234.683 97.2589 235.087C97.6306 235.492 98.1506 235.736 98.7054 235.766L105.875 236.112C106.429 236.14 106.971 235.95 107.383 235.586C107.795 235.222 108.042 234.713 108.071 234.17L108.157 232.536C108.157 232.518 108.163 232.5 108.174 232.486C108.186 232.472 108.202 232.462 108.22 232.459C111.132 231.608 113.818 230.142 116.09 228.165C119.883 224.828 121.953 220.372 122.229 214.923C122.607 207.153 118.853 202.705 115.634 200.346Z" fill="#EBEBEB"></path>
<path d="M102.545 237.924H101.915C100.474 237.853 99.0634 238.346 97.9934 239.295C96.9234 240.243 96.2818 241.569 96.2098 242.98C96.1377 244.392 96.6412 245.774 97.6094 246.822C98.5776 247.87 99.9312 248.498 101.372 248.569H102.002C103.443 248.639 104.854 248.146 105.924 247.198C106.994 246.249 107.636 244.924 107.708 243.512C107.78 242.1 107.276 240.719 106.308 239.671C105.34 238.623 103.986 237.994 102.545 237.924Z" fill="#EBEBEB"></path>
<path d="M77.409 337.575H84.2087C88.2145 323.608 90.1348 308.061 87.5141 295.072C81.3164 308.448 77.8821 322.894 77.409 337.575Z" fill="#EBEBEB"></path>
<path d="M76.1183 272.757C67.6614 291.102 64.3733 311.33 66.5956 331.339C66.6664 331.501 66.7451 331.655 66.8238 331.817C74.3869 314.867 79.8487 291.234 76.1183 272.757Z" fill="#EBEBEB"></path>
<path d="M58.1825 247.79C52.04 266.466 50.9125 286.376 54.9086 305.602C55.1525 306.18 55.4044 306.773 55.6955 307.367C61.1967 289.484 63.9433 265.442 58.1825 247.79Z" fill="#EBEBEB"></path>
<path d="M46.4879 285.213C46.4484 285.111 46.4194 285.005 46.4013 284.897C46.4672 284.986 46.5178 285.085 46.5509 285.19C46.6532 285.422 46.7712 285.707 46.9208 286.061L47.33 287.079C47.5976 287.503 47.8652 287.942 48.117 288.358C47.5582 269.281 42.2539 245.377 31.0706 231.318C31.3303 250.958 36.9416 270.445 46.8657 286.416L46.7712 286.146L46.4879 285.213Z" fill="#EBEBEB"></path>
<path d="M51.1785 297.739L51.0132 297.316C37.7523 284.212 17.8885 271.401 0 269.697C13.8669 284.065 32.0623 294.024 51.1785 297.739Z" fill="#EBEBEB"></path>
<path d="M60.4577 317.897L60.2295 317.712C60.2604 317.766 60.2867 317.823 60.3082 317.881L60.4577 317.897Z" fill="#EBEBEB"></path>
<path d="M4.46233 293.685C19.8641 307.094 39.1229 315.511 59.5994 317.781L59.1744 316.825C44.3553 304.777 23.0197 293.731 4.46233 293.685Z" fill="#EBEBEB"></path>
<path d="M15.6294 317.896C25.7273 326.658 37.515 333.349 50.2967 337.576H65.8477C51.4063 326.946 32.3688 317.935 15.6294 317.896Z" fill="#EBEBEB"></path>
<path d="M52.9261 302.041C54.6811 306.38 56.7903 311.383 59.2221 316.84L59.6471 317.796C62.378 323.963 65.5023 330.615 68.9573 337.575H69.7443C68.7684 335.625 67.824 333.721 66.9032 331.794C66.8245 331.632 66.7458 331.478 66.675 331.316C64.4084 326.637 62.3071 322.128 60.379 317.881C60.3575 317.822 60.3312 317.766 60.3003 317.711C58.6397 314.034 57.1523 310.566 55.7357 307.351C55.476 306.758 55.2241 306.164 54.9487 305.586C54.3978 304.291 53.8705 303.035 53.3747 301.84C51.2026 296.622 49.4397 292.382 48.33 289.438C47.9602 288.528 47.6453 287.75 47.3778 287.079L46.9685 286.061C46.819 285.707 46.701 285.422 46.5986 285.19C46.5655 285.085 46.515 284.986 46.4491 284.897C46.4672 285.005 46.4962 285.111 46.5357 285.214L46.8426 286.115L46.9371 286.385C47.2361 287.195 47.6139 288.243 48.0861 289.546C48.818 291.565 49.8253 294.17 51.0609 297.323L51.2262 297.747C51.7141 299.096 52.2808 300.522 52.9261 302.041Z" fill="#E0E0E0"></path>
<path d="M357.013 337.275C357.013 337.39 279.352 337.483 183.574 337.483C87.7964 337.483 10.1197 337.39 10.1197 337.275C10.1197 337.159 87.7649 337.051 183.566 337.051C279.367 337.051 357.013 337.159 357.013 337.275Z" fill="#263238"></path>
<path d="M51.015 90.5314C64.0701 85.5794 70.5548 71.1993 65.4989 58.4125C60.443 45.6257 45.7611 39.2743 32.7059 44.2263C19.6508 49.1783 13.1661 63.5584 18.222 76.3452C23.2779 89.132 37.9598 95.4834 51.015 90.5314Z" fill="white"></path>
<path d="M67.2102 67.3796C67.2102 67.3796 67.2102 67.2409 67.1708 66.9711C67.1315 66.7013 67.1708 66.3082 67.1 65.7917C67.1 65.5374 67.0607 65.2444 67.0449 64.9284C67.0292 64.6124 66.9426 64.2655 66.8875 63.8878C66.8324 63.5101 66.7616 63.117 66.6908 62.6853C66.6199 62.2537 66.4704 61.8066 66.3602 61.3287C65.7703 59.0075 64.8229 56.7877 63.5507 54.7459C61.8924 52.0236 59.7117 49.6416 57.1287 47.7314L56.0427 46.9606C55.6571 46.7139 55.2557 46.4904 54.8543 46.2437C54.4529 45.9971 54.0673 45.7427 53.6266 45.55L52.3123 44.9102L51.6512 44.6019L50.9508 44.3552L49.5263 43.8465C49.0463 43.6923 48.5426 43.5921 48.0468 43.4533C47.5452 43.3128 47.0353 43.2021 46.52 43.1219C45.4807 42.9286 44.4288 42.8076 43.372 42.7596C42.829 42.7596 42.2781 42.6902 41.7272 42.6979L40.0588 42.7827C39.7754 42.7827 39.4921 42.7827 39.2167 42.8367L38.3746 42.96C37.8158 43.0525 37.2413 43.1142 36.6825 43.2298C34.3698 43.738 32.1343 44.5386 30.0324 45.6116C29.5051 45.8891 28.9936 46.2206 28.4584 46.5289C28.1987 46.6908 27.9232 46.8295 27.6714 47.0068L26.9316 47.5541C25.9228 48.2837 24.9657 49.0794 24.0669 49.9359L22.792 51.3157L22.4693 51.6626L22.1782 52.0403L21.6036 52.8111L21.0213 53.5819L20.5176 54.3913L20.006 55.2084L19.7542 55.6246L19.5417 56.0563L18.6839 57.7906L17.9756 59.5558C16.2444 64.6075 16.2444 70.0747 17.9756 75.1264L18.6603 76.9532L19.5181 78.6953L19.7306 79.1269L19.9824 79.5355L20.494 80.3525L20.9977 81.1696L21.58 81.9404L22.1545 82.7112L22.4457 83.0889L22.7684 83.4358L24.0433 84.8156C24.9411 85.6702 25.8955 86.4658 26.9001 87.1974L27.6871 87.7447C27.9311 87.922 28.2066 88.0607 28.4741 88.2226C29.0014 88.5309 29.5051 88.8624 30.0481 89.1399C32.15 90.2129 34.3855 91.0136 36.6983 91.5217C37.257 91.6373 37.8315 91.699 38.3903 91.7915L39.2324 91.9148C39.5157 91.9534 39.7912 91.9534 40.0745 91.9688L41.7429 92.0536C42.2938 92.0536 42.8447 92.0536 43.3878 91.9919C44.4445 91.9444 45.4965 91.8233 46.5357 91.6296C47.0514 91.5511 47.5613 91.4404 48.0625 91.2982C48.5583 91.1594 49.062 91.0592 49.55 90.9051L50.9666 90.3963L51.667 90.1497L52.3281 89.8413L53.6423 89.2247C54.0752 89.032 54.4293 88.7545 54.8701 88.5309C55.3108 88.3074 55.6571 88.0607 56.0584 87.8141L57.1445 87.0433C59.7254 85.131 61.9058 82.7494 63.5664 80.0288C64.8386 77.9869 65.786 75.7672 66.376 73.446C66.4862 72.9681 66.6514 72.5287 66.7065 72.0893C66.7616 71.65 66.8403 71.2568 66.9033 70.8869C66.9662 70.5169 67.0292 70.1623 67.0607 69.8462C67.0921 69.5302 67.0607 69.2373 67.1158 68.9752C67.1158 68.4665 67.1708 68.0734 67.1866 67.8036C67.2023 67.5338 67.2259 67.4027 67.2259 67.4027C67.2329 67.5363 67.2329 67.67 67.2259 67.8036C67.2259 68.0811 67.2259 68.4742 67.2259 68.9829C67.2259 69.245 67.2259 69.5379 67.2259 69.854C67.2259 70.17 67.1315 70.5169 67.0843 70.8946C67.0371 71.2723 66.9662 71.6654 66.8954 72.1125C66.8154 72.5724 66.7104 73.0279 66.5806 73.4768C66.0073 75.8167 65.0732 78.0572 63.8104 80.1213C62.1506 82.8712 59.9648 85.2817 57.3727 87.2205L56.2709 87.9914C55.8853 88.238 55.4839 88.4693 55.0826 88.7082C54.6809 88.9656 54.2658 89.2023 53.8391 89.4174L52.5169 90.0418L51.848 90.3578L51.1397 90.6122L49.7074 91.1286C49.2273 91.2905 48.7157 91.3907 48.2121 91.5294C47.6945 91.6742 47.169 91.7901 46.6381 91.8763C45.5749 92.0706 44.4995 92.1942 43.4192 92.2463C42.8683 92.2463 42.3174 92.3234 41.7587 92.3157L40.0666 92.2309C39.7833 92.2309 39.5 92.2309 39.2167 92.1769L38.3667 92.0536C37.8001 91.9611 37.2256 91.8994 36.651 91.7838C35.4982 91.5299 34.3627 91.2056 33.2512 90.8126C32.1094 90.4128 30.9971 89.9363 29.9222 89.3865C29.3871 89.1013 28.8676 88.7699 28.3482 88.4616C28.0885 88.292 27.8052 88.1532 27.5612 87.9682L26.7742 87.421C25.7327 86.6892 24.7415 85.8909 23.8072 85.0314L22.5166 83.6362L22.186 83.2817L21.8948 82.9039L21.3125 82.1331L20.7222 81.3623L20.2107 80.5375L19.6912 79.7127L19.4394 79.2965L19.219 78.8648C18.9278 78.279 18.6445 77.6855 18.3533 77.0997C18.0622 76.5138 17.889 75.8664 17.6608 75.2497C15.9004 70.1367 15.9004 64.5994 17.6608 59.4864C17.889 58.8621 18.1251 58.2454 18.3533 57.6364C18.5816 57.0275 18.9357 56.4571 19.219 55.8713L19.4394 55.4319L19.6991 55.0234L20.2107 54.1909L20.7379 53.3892L21.3282 52.6184L21.9106 51.8476L22.2018 51.4699L22.5323 51.1153L23.8072 49.7201C24.7148 48.854 25.6825 48.0504 26.7034 47.3152L27.451 46.7602C27.7029 46.5829 27.9783 46.4364 28.238 46.2745C28.7732 45.9662 29.2926 45.6348 29.812 45.3496C30.8876 44.8012 31.9998 44.3247 33.141 43.9235C34.2525 43.5306 35.388 43.2062 36.5409 42.9523C37.1154 42.8367 37.6899 42.775 38.2565 42.6825L39.1458 42.5977C39.4292 42.5977 39.7125 42.5977 39.9958 42.5438L41.6878 42.459C42.2387 42.459 42.7975 42.5052 43.3484 42.5284C44.4286 42.5804 45.504 42.704 46.5672 42.8984C47.0988 42.9817 47.6245 43.0975 48.1412 43.2452C48.6449 43.384 49.1486 43.4842 49.6365 43.646L51.0374 44.1394L51.7457 44.3937L52.4146 44.7098L53.7368 45.3341C54.161 45.5493 54.5734 45.786 54.9724 46.0433C55.3816 46.2823 55.7594 46.5135 56.1686 46.7602L57.2704 47.5695C59.8622 49.5087 62.048 51.9191 63.708 54.6688C64.9709 56.7328 65.905 58.9734 66.4783 61.3133C66.608 61.7622 66.7131 62.2176 66.7931 62.6776C66.8639 63.1093 66.919 63.5178 66.9741 63.8955C67.0292 64.2732 67.0921 64.6201 67.1236 64.9361C67.1551 65.2522 67.1236 65.5451 67.1236 65.8071C67.1236 66.3159 67.1236 66.709 67.1236 66.9865C67.1591 67.1161 67.188 67.2473 67.2102 67.3796Z" fill="#263238"></path>
<path d="M32.8505 63.117H37.659C37.6556 62.5798 37.7627 62.0475 37.9739 61.5517C38.1851 61.0559 38.4961 60.6069 38.8883 60.2314C39.2805 59.8559 39.7459 59.5616 40.2567 59.3661C40.7675 59.1705 41.3134 59.0778 41.8616 59.0933C42.672 59.0627 43.4718 59.281 44.1492 59.7178C44.8266 60.1546 45.3476 60.7879 45.6392 61.5291C45.9004 62.1518 46.0053 62.8268 45.945 63.4974C45.8848 64.168 45.6611 64.8147 45.2929 65.3832C44.5059 66.7013 42.6879 67.9038 39.4455 67.3411V74.2785H44.1675V71.7656C46.1217 71.2021 47.8331 70.0258 49.0387 68.4175C50.2444 66.8091 50.8776 64.8576 50.8412 62.8626C50.8412 55.9252 44.5452 54.3836 41.8222 54.3836C39.7997 54.3065 32.756 54.7998 32.8505 63.117Z" fill="#067AB2"></path>
<path d="M44.2617 76.0205H39.4296V80.4373H44.2617V76.0205Z" fill="#067AB2"></path>
<path d="M68.3602 90.6044C68.3602 91.3545 68.1331 92.0878 67.7077 92.7114C67.2822 93.3351 66.6775 93.8212 65.97 94.1082C65.2624 94.3952 64.4839 94.4704 63.7328 94.324C62.9817 94.1777 62.2918 93.8165 61.7503 93.2861C61.2087 92.7557 60.84 92.08 60.6906 91.3443C60.5412 90.6087 60.6178 89.8461 60.9109 89.1531C61.204 88.4602 61.7003 87.8679 62.337 87.4511C62.9738 87.0344 63.7224 86.812 64.4882 86.812C65.5151 86.812 66.5 87.2116 67.2261 87.9228C67.9523 88.634 68.3602 89.5986 68.3602 90.6044Z" fill="white"></path>
<path d="M68.3585 90.6042C68.3585 90.6042 68.3585 90.2651 68.1775 89.6947C67.9482 88.8878 67.4494 88.1795 66.7609 87.6828C66.364 87.3936 65.9127 87.184 65.4328 87.0661C64.9529 86.9482 64.454 86.9244 63.9648 86.9961C63.4755 87.0677 63.0055 87.2334 62.5818 87.4835C62.1581 87.7337 61.789 88.0634 61.4959 88.4537C61.0303 89.078 60.7793 89.8311 60.7793 90.6042C60.7793 91.3774 61.0303 92.1305 61.4959 92.7548C61.789 93.1451 62.1581 93.4748 62.5818 93.725C63.0055 93.9751 63.4755 94.1408 63.9648 94.2124C64.454 94.284 64.9529 94.2602 65.4328 94.1424C65.9127 94.0245 66.364 93.8149 66.7609 93.5257C67.4477 93.0273 67.946 92.3197 68.1775 91.5138C68.3349 90.9434 68.327 90.6042 68.3585 90.6042C68.3682 90.6836 68.3682 90.7638 68.3585 90.8432C68.3572 91.0795 68.3281 91.3149 68.2719 91.5446C68.0775 92.4006 67.585 93.1637 66.8789 93.7029C66.3496 94.1052 65.7253 94.3704 65.0638 94.4742C64.4022 94.5779 63.7246 94.5168 63.0935 94.2965C62.3426 94.0377 61.6895 93.562 61.2204 92.9321C60.7151 92.2622 60.4395 91.4526 60.4334 90.6197C60.4348 89.8099 60.6909 89.0203 61.1668 88.3582C61.6428 87.6961 62.3156 87.1939 63.0935 86.9197C63.7252 86.7005 64.4032 86.6406 65.0648 86.7457C65.7264 86.8508 66.3503 87.1174 66.8789 87.521C67.5865 88.0589 68.0793 88.8225 68.2719 89.6793C68.3275 89.9065 68.3566 90.1393 68.3585 90.373C68.3673 90.4498 68.3673 90.5274 68.3585 90.6042Z" fill="#263238"></path>
<path d="M342.431 70.4066C352.835 60.2169 352.835 43.6962 342.431 33.5065C332.028 23.3168 315.16 23.3168 304.757 33.5065C294.353 43.6962 294.353 60.2169 304.757 70.4066C315.16 80.5962 332.028 80.5962 342.431 70.4066Z" fill="white"></path>
<path d="M350.229 51.955C350.229 51.955 350.229 51.8163 350.229 51.5388C350.229 51.2613 350.19 50.8374 350.151 50.2978C350.151 50.028 350.151 49.7197 350.095 49.3882C350.04 49.0568 349.985 48.6868 349.93 48.2936C349.875 47.9005 349.796 47.4766 349.726 47.0295C349.637 46.5477 349.518 46.0715 349.371 45.6035C348.756 43.158 347.763 40.8186 346.428 38.6661C344.682 35.8074 342.389 33.3053 339.676 31.297L338.534 30.4646C338.133 30.2025 337.708 29.9635 337.283 29.6937C336.867 29.4156 336.436 29.1583 335.992 28.9229L334.615 28.2754L333.883 28.0288L333.151 27.7667L331.656 27.2348C331.152 27.0652 330.625 26.965 330.082 26.8186C329.565 26.6699 329.04 26.5515 328.508 26.464C327.403 26.2671 326.285 26.141 325.163 26.0863C324.589 26.0863 324.014 26.0092 323.432 26.0246L321.677 26.1094C321.386 26.1094 321.087 26.1094 320.796 26.1634L319.914 26.3021C319.324 26.3946 318.726 26.464 318.128 26.5796C316.932 26.8454 315.754 27.1853 314.602 27.5971C313.417 28.0142 312.262 28.5113 311.147 29.0848C310.588 29.3854 310.053 29.7246 309.494 30.0483C309.227 30.2179 308.935 30.3644 308.707 30.5571L307.92 31.1275C306.867 31.8957 305.865 32.7299 304.922 33.6249L303.576 35.0818L303.238 35.4441L302.931 35.8372L302.325 36.608L301.719 37.3788L301.184 38.2267L300.648 39.09L300.389 39.5217L300.16 39.9688L299.255 41.8265C299.011 42.4585 298.775 43.0983 298.531 43.7458C296.716 49.0531 296.716 54.7953 298.531 60.1026C298.775 60.7501 299.011 61.3899 299.248 62.0297C299.484 62.6695 299.854 63.2476 300.153 63.8565L300.373 64.3113L300.641 64.743L301.176 65.5986L301.711 66.4542L302.317 67.225L302.923 67.9958L303.23 68.3967L303.568 68.7589L304.914 70.2081C305.855 71.1074 306.857 71.9444 307.912 72.7133L308.699 73.2837C308.959 73.4764 309.25 73.6228 309.486 73.7924C310.045 74.1084 310.58 74.4553 311.139 74.7559C312.256 75.3262 313.41 75.8232 314.594 76.2436C315.745 76.6565 316.923 76.9938 318.12 77.2534C318.718 77.3767 319.316 77.4461 319.906 77.5386L320.788 77.6696C321.079 77.7082 321.378 77.7082 321.677 77.7313L323.424 77.8161C324.006 77.8161 324.581 77.7698 325.156 77.7544C326.278 77.7002 327.395 77.574 328.5 77.3767C329.032 77.2875 329.558 77.1665 330.074 77.0144C330.602 76.8757 331.129 76.7755 331.648 76.6059L333.136 76.074L333.875 75.8119L334.568 75.4882L335.945 74.8407C336.41 74.6403 336.811 74.3474 337.244 74.0699C337.677 73.7924 338.086 73.5843 338.487 73.2991L339.636 72.4666C342.346 70.4533 344.636 67.949 346.381 65.0898C347.718 62.9381 348.711 60.5985 349.324 58.1524C349.469 57.684 349.588 57.2079 349.678 56.7264C349.749 56.2716 349.82 55.8554 349.883 55.4546C349.946 55.0537 350.017 54.6838 350.048 54.3677C350.08 54.0517 350.088 53.7279 350.103 53.4581C350.143 52.9186 350.166 52.51 350.182 52.2171C350.198 51.9242 350.182 51.7932 350.182 51.7932C350.182 51.7932 350.182 51.9396 350.182 52.2171C350.182 52.4946 350.182 52.9263 350.135 53.4581C350.135 53.7356 350.135 54.044 350.135 54.3754C350.135 54.7069 350.033 55.0769 349.977 55.47C349.922 55.8631 349.859 56.2948 349.789 56.7496C349.718 57.2043 349.568 57.6745 349.458 58.1833C348.854 60.6435 347.87 62.9986 346.538 65.1669C344.793 68.0551 342.498 70.5882 339.778 72.6285L338.621 73.4764C338.22 73.7384 337.834 73.9774 337.37 74.2472C336.905 74.517 336.528 74.7868 336.063 75.018L334.678 75.6732L333.97 76.0047L333.23 76.2744L331.727 76.814C331.215 76.9836 330.68 77.0915 330.153 77.2303C329.621 77.3864 329.08 77.5074 328.532 77.5925C327.415 77.8021 326.284 77.9335 325.148 77.9857C324.565 77.9857 323.991 78.0627 323.4 78.055L321.63 77.9702C321.331 77.9702 321.032 77.9703 320.733 77.9163L319.843 77.7852C319.245 77.685 318.639 77.6234 318.033 77.5C316.821 77.2379 315.627 76.898 314.46 76.4826C313.261 76.0478 312.093 75.5327 310.966 74.9409C310.399 74.6403 309.856 74.2934 309.298 73.9697C309.022 73.8001 308.731 73.6537 308.463 73.4532L307.676 72.8751C306.604 72.1037 305.586 71.2615 304.631 70.3545C304.182 69.8612 303.726 69.3756 303.269 68.8823L302.923 68.5123L302.616 68.1115L302.002 67.3406L301.388 66.5698L300.829 65.799L300.294 64.928L300.019 64.4963L299.791 64.0338L298.878 62.1838C298.642 61.5364 298.398 60.8889 298.154 60.2414C296.307 54.8652 296.307 49.0449 298.154 43.6687L298.886 41.7263L299.791 39.8763L300.019 39.4138L300.294 38.9821L300.829 38.1111L301.372 37.2478L301.986 36.477L302.6 35.7061L302.915 35.3053L303.253 34.943L304.623 33.4708C305.578 32.5636 306.592 31.719 307.661 30.9425L308.448 30.3644C308.715 30.1716 309.006 30.0252 309.282 29.8556C309.841 29.5319 310.384 29.185 310.95 28.8844C312.077 28.2926 313.245 27.7775 314.444 27.3427C315.611 26.9273 316.805 26.5874 318.017 26.3253C318.623 26.2019 319.229 26.1325 319.82 26.04L320.717 25.909C321.016 25.909 321.315 25.909 321.614 25.8551L323.385 25.7703C323.967 25.7703 324.55 25.8165 325.132 25.8396C326.268 25.8931 327.398 26.0219 328.516 26.2251C329.063 26.3165 329.605 26.44 330.137 26.595C330.664 26.7338 331.2 26.8417 331.711 27.0113L333.214 27.5509L333.954 27.8206L334.662 28.1521L336.048 28.8073C336.512 29.0154 336.921 29.3083 337.354 29.5781C337.787 29.8479 338.204 30.0792 338.605 30.3489L339.762 31.1968C342.487 33.2329 344.782 35.7668 346.523 38.6584C347.854 40.8267 348.839 43.1818 349.442 45.642C349.577 46.1141 349.688 46.5926 349.773 47.0758C349.844 47.5305 349.907 47.9545 349.962 48.3553C350.017 48.7561 350.088 49.1261 350.119 49.4499C350.151 49.7736 350.119 50.0897 350.119 50.3594C350.119 50.8733 350.135 51.2896 350.166 51.6082C350.237 51.8471 350.229 51.955 350.229 51.955Z" fill="#263238"></path>
<path d="M314.121 47.4844H319.181C319.181 47.4844 319.181 43.3219 323.596 43.2526C324.441 43.2308 325.273 43.4648 325.977 43.9228C326.681 44.3808 327.224 45.0404 327.531 45.8117C327.797 46.462 327.903 47.1643 327.84 47.862C327.777 48.5597 327.547 49.233 327.169 49.8277C326.311 51.2074 324.43 52.4716 321.015 51.8858V59.1546H326.02V56.5107C328.085 55.9311 329.898 54.701 331.177 53.0107C332.456 51.3204 333.13 49.2643 333.095 47.1606C333.095 39.9149 326.461 38.2268 323.651 38.2268C321.424 38.2268 314.026 38.7433 314.121 47.4844Z" fill="#067AB2"></path>
<path d="M326.116 61.0432H321.04V65.6913H326.116V61.0432Z" fill="#067AB2"></path>
<path d="M298.815 74.44C298.815 75.2282 298.576 75.9987 298.129 76.654C297.682 77.3094 297.046 77.8201 296.303 78.1218C295.559 78.4234 294.741 78.5023 293.952 78.3485C293.163 78.1948 292.438 77.8152 291.869 77.2579C291.3 76.7006 290.912 75.9905 290.755 75.2174C290.598 74.4444 290.679 73.6431 290.987 72.9149C291.295 72.1867 291.816 71.5643 292.485 71.1264C293.154 70.6886 293.941 70.4548 294.746 70.4548C295.824 70.4569 296.858 70.8774 297.621 71.6243C298.383 72.3712 298.813 73.3837 298.815 74.44Z" fill="white"></path>
<path d="M298.815 74.4399C298.775 74.4399 298.815 74.0853 298.618 73.484C298.378 72.6346 297.854 71.8884 297.131 71.3643C296.605 70.9808 295.99 70.7321 295.341 70.6405C294.692 70.549 294.031 70.6176 293.416 70.8401C292.688 71.098 292.057 71.5655 291.606 72.1814C291.088 72.9267 290.853 73.8263 290.942 74.7237C291.032 75.6211 291.439 76.4594 292.094 77.0928C292.75 77.7262 293.611 78.1146 294.528 78.1904C295.445 78.2662 296.361 78.0246 297.115 77.5077C297.84 76.9881 298.364 76.2438 298.602 75.3957C298.775 74.7944 298.76 74.4399 298.799 74.4399C298.811 74.5242 298.811 74.6099 298.799 74.6942C298.808 74.9535 298.782 75.2127 298.72 75.4651C298.513 76.365 297.993 77.1663 297.249 77.7313C296.81 78.0703 296.306 78.3197 295.767 78.4647C295.228 78.6097 294.665 78.6474 294.111 78.5756C293.557 78.5037 293.024 78.3237 292.542 78.0463C292.06 77.7689 291.64 77.3997 291.307 76.9604C290.77 76.2513 290.48 75.392 290.48 74.5092C290.48 73.6265 290.77 72.7672 291.307 72.058C291.8 71.3968 292.486 70.897 293.274 70.6243C293.937 70.3944 294.648 70.331 295.343 70.4401C296.037 70.5492 296.692 70.8272 297.249 71.2487C298.003 71.8244 298.525 72.6439 298.72 73.5611C298.779 73.8009 298.805 74.047 298.799 74.2934C298.808 74.3418 298.813 74.3907 298.815 74.4399Z" fill="#263238"></path>
<path d="M150.764 266.035C142.265 245.223 135.898 230.716 135.898 230.716L58.2213 242.279C58.2213 242.279 44.2678 277.328 45.4719 293.238C46.676 309.147 52.366 337.174 52.366 337.174H146.349C146.349 337.174 159.256 286.878 150.764 266.035Z" fill="#263238"></path>
<path d="M122.732 92.2C123.338 86.1876 124.259 80.1366 126.509 74.5096C128.76 68.8826 132.436 63.6565 137.638 60.4036L138.968 61.6138C139.428 60.312 140.242 59.1576 141.321 58.2745C142.401 57.3914 143.706 56.813 145.096 56.6015C146.486 56.3899 147.908 56.5531 149.211 57.0736C150.513 57.5941 151.646 58.4521 152.488 59.5557C153.99 59.1596 155.579 59.2212 157.044 59.7323C158.509 60.2434 159.78 61.1797 160.688 62.4164C161.596 63.6531 162.098 65.1315 162.126 66.6544C162.154 68.1774 161.708 69.6726 160.846 70.9407C162.254 71.1118 163.575 71.6971 164.636 72.6191C165.697 73.5412 166.448 74.7567 166.789 76.1053C167.13 77.4538 167.046 78.872 166.547 80.1725C166.048 81.473 165.158 82.5947 163.994 83.3895C165.529 84.7084 166.626 86.4471 167.144 88.3817C167.662 90.3164 167.577 92.3585 166.899 94.2454C166.222 96.1322 164.984 97.7774 163.344 98.9693C161.705 100.161 159.738 100.845 157.698 100.933C158.164 102.681 158.003 104.533 157.243 106.179C156.483 107.825 155.17 109.165 153.522 109.977C151.875 110.789 149.992 111.023 148.19 110.639C146.388 110.256 144.774 109.279 143.619 107.871C143.902 111.47 140.967 114.878 137.386 115.733C133.805 116.589 129.901 115.17 127.289 112.65C124.749 109.995 123.137 106.618 122.685 103.007C122.243 99.4166 122.259 95.7865 122.732 92.2Z" fill="#263238"></path>
<path d="M139.257 65.5525C142.83 66.6856 143.562 69.5222 144.302 71.8809C145.876 76.9606 144.105 84.4839 141.201 88.9777C138.297 93.4716 135.11 95.7841 129.743 96.5549C129.559 88.487 129.383 80.4191 129.215 72.3511L139.257 65.5525Z" fill="#263238"></path>
<path d="M141.273 79.4505C142.445 77.856 143.008 75.9092 142.864 73.9497C142.721 71.9902 141.879 70.1423 140.486 68.7284C142.06 66.8013 141.486 63.8337 139.896 61.9298C138.306 60.0258 135.961 58.9313 133.671 57.8984C132.42 52.2714 125.966 48.3094 120.245 49.666C117.262 45.3725 110.919 44.7019 105.827 46.1511C104.615 46.5847 103.345 46.8443 102.057 46.9219C101.111 46.8513 100.17 46.7226 99.2398 46.5365C94.0614 45.8581 88.9301 49.427 86.9075 54.1445C86.6408 54.9173 86.2731 55.6531 85.8136 56.3336C85.0492 57.103 84.19 57.7762 83.2559 58.3377C82.3226 59.0542 81.5583 59.9595 81.015 60.9918C80.4717 62.0241 80.1623 63.1591 80.1079 64.3193C80.0213 66.2849 80.6588 68.3738 79.8167 70.1621C79.3917 71.064 78.6205 71.7809 78.2899 72.7135C77.3376 75.4191 80.3991 78.1864 79.8639 80.9922C79.7459 81.5626 79.4783 82.0944 79.3209 82.6571C78.9907 83.8193 79.0997 85.0592 79.6278 86.1489C80.037 86.9814 80.6981 87.7368 80.7532 88.6618C80.7025 89.3572 80.5624 90.0435 80.3361 90.7045C79.982 92.3849 83.673 98.8444 85.1525 99.7539L129.327 100.139C130.994 99.7739 132.505 98.9101 133.65 97.6674C134.795 96.4246 135.517 94.8643 135.717 93.202C135.7 92.6457 135.842 92.0958 136.126 91.6141C136.471 91.2776 136.884 91.0151 137.338 90.8432C140.179 89.3479 140.486 85.5246 140.227 82.3642C140.144 81.9286 140.144 81.4818 140.227 81.0461C140.463 80.4512 140.819 79.9087 141.273 79.4505Z" fill="#263238"></path>
<path d="M128.619 79.512C128.752 71.8501 123.849 63.055 116.082 59.3088C111.187 56.9501 107.37 56.9347 104.788 56.6418C101.176 56.3033 97.5441 57.0508 94.3763 58.7846C91.9366 59.3473 83.0121 67.3485 82.5714 76.0356C82.0519 85.6786 81.7844 97.4799 83.0593 104.656C85.562 119.101 96.9026 120.843 96.9026 120.843L95.848 144.847L117.616 162.306L124.274 133.554L128.619 79.512Z" fill="#FFBF9D"></path>
<path d="M96.8869 120.813C103.864 120.838 110.712 118.971 116.672 115.417C116.672 115.417 111.517 125.669 96.7216 124.466L96.8869 120.813Z" fill="#263238"></path>
<path d="M126.391 93.2406C126.391 92.1691 127.626 89.61 128.752 89.4327C131.648 88.9625 136.873 89.1321 136.999 96.3701C137.172 106.237 127.296 104.032 127.012 104.078C125.367 104.387 126.422 96.9636 126.391 93.2406Z" fill="#FFBF9D"></path>
<path d="M129.679 100.409C129.726 100.409 129.86 100.525 130.159 100.656C130.581 100.821 131.052 100.821 131.473 100.656C132.528 100.255 133.394 98.59 133.409 96.8017C133.419 95.9558 133.236 95.1185 132.874 94.3505C132.776 94.0443 132.602 93.7663 132.369 93.5407C132.136 93.315 131.85 93.1485 131.536 93.0555C131.334 93.0063 131.12 93.0278 130.932 93.1165C130.743 93.2051 130.593 93.3553 130.505 93.5411C130.38 93.8186 130.442 94.019 130.395 94.0344C130.348 94.0498 130.175 93.8726 130.246 93.464C130.298 93.2188 130.434 92.9984 130.631 92.8396C130.907 92.6312 131.253 92.5346 131.599 92.5699C132.019 92.6472 132.41 92.83 132.736 93.1002C133.062 93.3705 133.31 93.719 133.457 94.1115C133.9 94.9575 134.124 95.8972 134.11 96.8479C134.11 98.8366 133.079 100.702 131.631 101.149C131.367 101.224 131.09 101.242 130.818 101.202C130.546 101.162 130.287 101.065 130.057 100.918C129.703 100.656 129.648 100.409 129.679 100.409Z" fill="#067AB2"></path>
<path d="M80.3915 74.5634C80.8478 70.9845 82.0535 67.5364 83.933 64.4348C85.0771 62.2051 86.6174 60.1927 88.4818 58.4918C90.1383 57.1872 91.9677 56.1085 93.92 55.2852C98.9646 52.9727 104.592 50.9532 110.038 52.1557C112.957 52.7954 115.594 54.3217 118.152 55.8479C120.155 56.9472 122.024 58.2661 123.724 59.7791C125.141 61.1875 126.361 62.7738 127.352 64.4965C129.875 68.5245 131.41 73.0706 131.838 77.7777C132.168 82.472 135.773 86.6268 132.987 90.4423C132.766 90.7353 127.761 91.7527 127.415 91.8838C126.628 92.1998 125.707 91.3365 125.715 90.4809C125.764 90.0542 125.902 89.6418 126.118 89.2683C126.334 88.8948 126.625 88.5679 126.974 88.3072C125.73 88.2686 124.873 86.9043 124.951 85.6864C125.148 84.4702 125.694 83.334 126.525 82.4104C126.633 82.2926 126.706 82.1489 126.738 81.9941C126.793 81.5779 126.313 81.3235 125.951 81.1077C125.529 80.8241 125.179 80.4508 124.925 80.0158C124.672 79.5809 124.522 79.0954 124.488 78.5957C124.453 78.0961 124.534 77.5952 124.724 77.1305C124.915 76.6659 125.211 76.2494 125.589 75.9124C125.001 75.7503 124.453 75.474 123.977 75.1C123.5 74.726 123.106 74.262 122.816 73.7354C122.527 73.2089 122.349 72.6308 122.292 72.0354C122.236 71.44 122.303 70.8396 122.488 70.27C122.586 70.1051 122.65 69.9227 122.676 69.7335C122.701 69.5443 122.688 69.352 122.638 69.1677C122.464 68.8439 122.047 68.736 121.693 68.6358C120.374 68.2083 119.256 67.3291 118.545 66.1597C117.833 64.9902 117.577 63.6088 117.821 62.2688C116.429 62.4045 115.024 62.3422 113.65 62.0838C112.963 61.952 112.314 61.6774 111.745 61.2784C111.176 60.8795 110.701 60.3656 110.352 59.7714C109.906 60.5633 109.261 61.2309 108.478 61.7114C107.695 62.1918 106.801 62.4694 105.878 62.518C104.956 62.5665 104.036 62.3845 103.205 61.989C102.374 61.5934 101.66 60.9974 101.129 60.257C98.77 60.4714 96.3936 60.1113 94.2112 59.2087C93.9337 60.2783 93.3861 61.2625 92.6187 62.0707C91.8514 62.8788 90.8889 63.4851 89.8197 63.8336C89.4026 63.9646 88.9225 64.0957 88.7258 64.4734C88.6277 64.7182 88.5952 64.9836 88.6313 65.2442C88.71 66.624 87.7499 67.2098 86.9708 68.3275C86.1917 69.4452 84.8459 71.1949 83.4922 70.8172C83.6418 73.1297 82.3668 74.864 80.3443 76.1282L80.3915 74.5634Z" fill="#263238"></path>
<path d="M78.3063 72.752C78.4291 72.3731 78.6095 72.0145 78.8414 71.6883C79.0539 71.3645 79.353 70.9791 79.6284 70.4858C79.9449 69.9147 80.1327 69.2839 80.1793 68.6358C80.2282 67.8234 80.2045 67.0084 80.1085 66.2C79.9942 65.2256 80.0127 64.2406 80.1636 63.2709C80.3773 62.1672 80.8192 61.1179 81.4621 60.1876C81.8135 59.6743 82.2256 59.2034 82.6899 58.7847C83.1801 58.3518 83.7067 57.9598 84.2639 57.6131C84.8405 57.2614 85.3538 56.8186 85.7828 56.3027C86.1817 55.7264 86.4969 55.0986 86.7193 54.4373C87.9265 51.5085 90.1583 49.0958 93.0153 47.6309C93.7803 47.2299 94.5879 46.912 95.4235 46.6828C96.2878 46.4688 97.1763 46.3626 98.0678 46.3668C98.5229 46.3749 98.9774 46.4058 99.4293 46.4593C99.8779 46.5287 100.319 46.6135 100.767 46.6905C101.655 46.8715 102.571 46.8715 103.459 46.6905C104.356 46.5133 105.237 46.1818 106.166 45.9197C107.099 45.6692 108.052 45.4964 109.015 45.4033C109.995 45.3043 110.983 45.2862 111.966 45.3493C112.968 45.4199 113.959 45.5904 114.925 45.8581C116.927 46.3881 118.71 47.5173 120.025 49.0878L120.403 49.5734L120.238 49.5117C123.166 48.9377 126.208 49.4838 128.739 51.0377C131.269 52.5916 133.096 55.0354 133.845 57.8674L133.758 57.7672C134.979 58.2916 136.164 58.8915 137.308 59.5633C138.423 60.2151 139.407 61.0616 140.212 62.0607C140.965 63.0506 141.428 64.2234 141.549 65.4523C141.692 66.6442 141.356 67.8438 140.613 68.7977V68.6358C141.976 69.9952 142.811 71.7784 142.974 73.677C143.158 75.3761 142.807 77.0896 141.967 78.5871C141.772 78.9294 141.551 79.2567 141.305 79.5661C141.069 79.8667 140.818 80.1519 140.621 80.4525C140.424 80.7426 140.305 81.0766 140.275 81.4237C140.256 81.7659 140.269 82.109 140.314 82.4489C140.436 83.6938 140.41 84.9485 140.235 86.1874C140.108 87.1937 139.779 88.1655 139.267 89.0471C138.881 89.6991 138.341 90.2514 137.693 90.6582C137.174 90.9973 136.717 91.1361 136.465 91.3211C136.333 91.4105 136.21 91.5111 136.096 91.6217C136.189 91.4908 136.306 91.3783 136.442 91.2902C136.694 91.0898 137.15 90.9434 137.654 90.5965C138.27 90.1799 138.781 89.6316 139.149 88.9932C139.635 88.1181 139.947 87.1609 140.07 86.172C140.226 84.9415 140.239 83.6977 140.109 82.4643C140.064 82.1142 140.051 81.7608 140.07 81.4083C140.103 81.032 140.23 80.6694 140.44 80.3523C140.655 80.0403 140.886 79.7393 141.132 79.4504C141.365 79.1423 141.578 78.8205 141.77 78.4869C142.576 77.0229 142.908 75.3534 142.722 73.7001C142.558 71.8556 141.742 70.1248 140.416 68.8054L140.33 68.7283L140.4 68.6435C141.096 67.7366 141.409 66.6022 141.274 65.4754C141.15 64.2961 140.701 63.1718 139.975 62.2226C139.188 61.2527 138.228 60.4302 137.142 59.7945C136.007 59.1348 134.832 58.5428 133.624 58.0216H133.561V57.9522C132.823 55.2001 131.041 52.8274 128.579 51.3177C126.116 49.8081 123.158 49.2752 120.308 49.8278H120.214L120.151 49.7507L119.789 49.2805C118.513 47.7569 116.782 46.6626 114.839 46.151C113.894 45.8999 112.927 45.7424 111.95 45.6808C110.985 45.619 110.017 45.6344 109.054 45.727C108.108 45.8214 107.171 45.9915 106.253 46.2358C105.34 46.4593 104.45 46.7908 103.522 47.0066C103.061 47.1043 102.592 47.156 102.121 47.1607C101.653 47.1543 101.187 47.1079 100.728 47.022C100.271 46.9526 99.8307 46.8601 99.39 46.7985C98.954 46.7424 98.5153 46.7089 98.0757 46.6983C97.2081 46.6953 96.3435 46.7989 95.5022 47.0066C94.684 47.2151 93.8921 47.5124 93.1412 47.893C91.6943 48.6121 90.4013 49.5959 89.3321 50.7913C88.3248 51.899 87.5255 53.1725 86.9711 54.5529C86.7306 55.2284 86.4026 55.8708 85.9952 56.4645C85.5464 56.9904 85.0151 57.4431 84.4212 57.8058C83.8657 58.1463 83.3394 58.5304 82.8473 58.9543C82.3936 59.3622 81.9896 59.82 81.6431 60.3187C80.9992 61.2476 80.5597 62.2976 80.3525 63.4019C80.1966 64.358 80.1728 65.3302 80.2816 66.2925C80.3514 67.1107 80.3514 67.9332 80.2816 68.7514C80.2225 69.4121 80.0214 70.0531 79.6914 70.6322C79.4002 71.1256 79.0933 71.5033 78.9044 71.827C78.7298 72.0705 78.577 72.3284 78.4479 72.5978C78.4035 72.6516 78.3562 72.7031 78.3063 72.752Z" fill="#455A64"></path>
<path d="M115.531 47.5308C115.531 47.5308 115.263 47.3843 114.744 47.1531C114.049 46.8317 113.304 46.6259 112.54 46.5441C111.413 46.4211 110.272 46.594 109.235 47.0451C107.972 47.6084 106.924 48.5505 106.244 49.7353C106.039 50.0914 105.876 50.4689 105.756 50.8607C105.689 51.0275 105.661 51.2071 105.675 51.386C105.688 51.5649 105.743 51.7384 105.835 51.8936L106.087 52.2328L105.678 52.1248C104.63 51.8519 103.514 51.9902 102.569 52.5103C101.816 52.9268 101.219 53.5701 100.869 54.3448C100.641 54.8592 100.513 55.4108 100.491 55.9712C100.491 56.3721 100.491 56.5879 100.491 56.5879C100.491 56.5879 100.491 56.5416 100.444 56.4337C100.411 56.2816 100.393 56.1267 100.389 55.9712C100.368 55.3911 100.473 54.8132 100.696 54.2754C101.035 53.4443 101.647 52.7473 102.435 52.2944C103.437 51.7177 104.631 51.5541 105.756 51.8396L105.599 52.0632C105.479 51.8737 105.405 51.6601 105.382 51.4385C105.359 51.2168 105.387 50.9929 105.465 50.7836C105.588 50.3698 105.76 49.9714 105.977 49.5966C106.692 48.3547 107.795 47.371 109.125 46.7908C110.207 46.3341 111.397 46.1768 112.564 46.336C113.346 46.4363 114.101 46.6794 114.791 47.0528C114.981 47.1512 115.163 47.2646 115.334 47.392C115.476 47.4768 115.539 47.523 115.531 47.5308Z" fill="#455A64"></path>
<path d="M131.955 58.7308C131.955 58.7308 131.853 58.8695 131.609 59.0854C131.259 59.3802 130.879 59.6385 130.475 59.8562C129.862 60.1983 129.18 60.4036 128.476 60.4574C127.578 60.5347 126.682 60.2789 125.966 59.7406L126.186 59.702L125.895 60.1106C125.793 60.2416 125.675 60.3727 125.557 60.5037C124.865 61.2118 124.005 61.7414 123.054 62.0453C122.282 62.3018 121.467 62.4092 120.654 62.3614C120.114 62.324 119.584 62.207 119.08 62.0145C118.891 61.9504 118.714 61.8595 118.552 61.7447C119.244 61.964 119.96 62.1012 120.685 62.1532C121.465 62.1688 122.242 62.0433 122.975 61.7832C123.872 61.4753 124.682 60.9628 125.336 60.2879C125.447 60.1645 125.557 60.0489 125.659 59.9179L125.934 59.5402L126.037 59.4014L126.155 59.5016C126.811 60.0003 127.632 60.2446 128.461 60.1877C129.131 60.1489 129.785 59.9729 130.381 59.6712C131.404 59.1779 131.924 58.6846 131.955 58.7308Z" fill="#455A64"></path>
<path d="M137.353 67.8343C137.364 67.8956 137.364 67.9581 137.353 68.0193C137.307 68.1895 137.233 68.351 137.133 68.4972C136.752 69.0391 136.175 69.4193 135.52 69.561C134.552 69.7407 133.552 69.6444 132.639 69.2835C132.128 69.1062 131.592 68.9289 131.065 68.6822C130.464 68.4457 129.968 68.0089 129.664 67.4489C129.64 67.3963 129.619 67.3422 129.601 67.2871L129.837 67.3564C128.944 68.0945 127.941 68.6949 126.863 69.137C125.969 69.4984 124.99 69.6052 124.037 69.4454C123.395 69.345 122.792 69.0789 122.29 68.6745C122.153 68.568 122.029 68.4464 121.92 68.3122C121.849 68.2197 121.818 68.1735 121.826 68.1658C121.834 68.1581 122.007 68.3354 122.361 68.582C122.869 68.9296 123.455 69.1517 124.069 69.2295C124.982 69.3565 125.914 69.2338 126.76 68.8749C127.807 68.4324 128.78 67.8401 129.649 67.1175L129.806 66.9941L129.885 67.1868C129.885 67.1868 129.885 67.2716 129.94 67.3179C130.217 67.8121 130.659 68.1984 131.191 68.4124C131.703 68.6514 132.246 68.8364 132.765 69.0137C133.628 69.374 134.576 69.4914 135.504 69.3529C136.124 69.2327 136.681 68.9025 137.078 68.4202C137.185 68.2322 137.277 68.0363 137.353 67.8343Z" fill="#455A64"></path>
<path d="M104.868 87.8601C104.846 88.3351 105.015 88.7995 105.339 89.1539C105.662 89.5083 106.115 89.7246 106.599 89.7563C106.835 89.7819 107.074 89.7611 107.302 89.6952C107.529 89.6292 107.741 89.5195 107.925 89.3724C108.109 89.2252 108.261 89.0437 108.373 88.8383C108.484 88.6329 108.553 88.4078 108.574 88.1762C108.594 87.7009 108.425 87.2367 108.102 86.8815C107.779 86.5263 107.327 86.3078 106.843 86.2722C106.606 86.2467 106.367 86.2678 106.139 86.3342C105.91 86.4006 105.698 86.511 105.514 86.6589C105.33 86.8068 105.178 86.9893 105.067 87.1956C104.956 87.4019 104.888 87.6278 104.868 87.8601Z" fill="#263238"></path>
<path d="M86.7659 87.3745C86.7442 87.8495 86.9133 88.3139 87.2369 88.6683C87.5605 89.0227 88.0129 89.2389 88.4973 89.2707C88.7335 89.2973 88.9728 89.2773 89.201 89.2118C89.4291 89.1463 89.6416 89.0366 89.8258 88.8893C90.0099 88.742 90.1621 88.56 90.2732 88.3541C90.3843 88.1482 90.4521 87.9225 90.4726 87.6905C90.4943 87.2155 90.3252 86.7511 90.0016 86.3967C89.678 86.0423 89.2256 85.826 88.7412 85.7943C88.5048 85.7666 88.2652 85.7858 88.0365 85.8509C87.8079 85.916 87.595 86.0256 87.4106 86.1731C87.2262 86.3206 87.074 86.503 86.9633 86.7094C86.8525 86.9159 86.7854 87.142 86.7659 87.3745Z" fill="#263238"></path>
<path d="M86.0656 81.3235C86.2859 81.5702 87.7262 80.5527 89.733 80.6606C91.7398 80.7685 93.1722 81.7551 93.4004 81.5239C93.5106 81.416 93.2824 80.9843 92.6606 80.5064C91.8122 79.8892 90.7895 79.5446 89.733 79.5198C88.6928 79.4859 87.6682 79.7746 86.8054 80.3445C86.1758 80.7916 85.979 81.2156 86.0656 81.3235Z" fill="#263238"></path>
<path d="M105.984 82.3026C106.236 82.5261 107.558 81.4084 109.565 81.2774C111.572 81.1463 113.106 82.0482 113.303 81.763C113.405 81.6474 113.138 81.2388 112.469 80.8226C111.559 80.2992 110.507 80.0624 109.455 80.1443C108.414 80.2123 107.423 80.6008 106.622 81.2542C106.047 81.763 105.866 82.2024 105.984 82.3026Z" fill="#263238"></path>
<path d="M98.5159 97.0329C98.5159 96.925 97.2882 96.6783 95.2814 96.3546C94.7698 96.2929 94.2898 96.1773 94.2111 95.8304C94.1892 95.3122 94.3263 94.7994 94.6046 94.3581L96.2415 90.5888C98.5238 85.1931 100.177 80.7994 99.9719 80.7146C99.7673 80.6298 97.7211 84.9079 95.4388 90.2728L93.8648 94.0652C93.5228 94.6594 93.4058 95.3527 93.5343 96.0231C93.5979 96.2012 93.7017 96.363 93.838 96.4965C93.9742 96.6299 94.1394 96.7316 94.3213 96.7939C94.6024 96.8781 94.8933 96.9273 95.1869 96.9404C97.241 97.0946 98.5002 97.1485 98.5159 97.0329Z" fill="#263238"></path>
<path d="M101.617 99.9542C102 99.9979 102.369 100.118 102.704 100.306C103.038 100.494 103.329 100.747 103.561 101.049C103.993 101.665 104.308 103.107 103.875 103.67C103.443 104.232 101.853 104.14 100.727 104.001C100.469 103.968 100.224 103.865 100.023 103.703C99.8208 103.54 99.6696 103.326 99.5863 103.084L99.1377 101.82C99.0747 101.648 99.0474 101.466 99.0574 101.284C99.0674 101.102 99.1145 100.924 99.1959 100.76C99.2773 100.596 99.3914 100.45 99.5315 100.33C99.6715 100.21 99.8346 100.119 100.011 100.062C100.532 99.9119 101.08 99.8751 101.617 99.9542Z" fill="#F48252"></path>
<path d="M105.072 75.1416C105.371 75.6272 107.291 75.0029 109.652 74.8333C112.013 74.6637 114.004 74.9258 114.217 74.4016C114.311 74.1473 113.886 73.7156 113.036 73.3533C111.91 72.914 110.694 72.7397 109.487 72.8446C108.278 72.9307 107.107 73.298 106.071 73.916C105.284 74.4093 104.946 74.9027 105.072 75.1416Z" fill="#263238"></path>
<path d="M86.553 78.1015C86.9779 78.5331 88.5598 78.0321 90.4879 77.9627C92.4161 77.8934 94.053 78.1631 94.4229 77.6929C94.5803 77.4617 94.3049 77.0223 93.5887 76.6138C92.5949 76.1181 91.4828 75.8943 90.3699 75.9663C89.2485 76.002 88.159 76.3408 87.2219 76.9452C86.5766 77.4232 86.3719 77.8857 86.553 78.1015Z" fill="#263238"></path>
<path d="M155.605 159.6L136.717 226.762L143.351 246.033C118.387 256.824 82.3035 260.231 53.8614 246.734C53.8614 246.734 63.5179 218.984 63.8484 213.589C64.179 208.193 61.8022 176.589 64.4308 166.021C67.0594 155.453 74.5909 132.73 74.5909 132.73L96.7292 129.292C106.881 134.634 113.382 135.458 124.274 129.238L144.901 133.554L155.605 159.6Z" fill="#455A64"></path>
<path d="M74.8977 132.645C74.8977 132.645 63.0062 133.878 58.2212 143.436C53.4363 152.994 40.3328 194.796 39.6481 201.795C38.9634 208.794 44.7321 218.214 49.7846 219.524L65.0996 204.562L77.8096 205.672L94.5491 129.191L74.8977 132.645Z" fill="#455A64"></path>
<g opacity="0.3">
<path d="M65.9263 158.367C62.2198 167.821 61.1866 178.079 62.9357 188.059L54.5621 184.976C56.845 188.067 59.8023 190.621 63.2191 192.453C60.9604 191.813 58.6466 191.166 56.3014 191.312C53.9561 191.459 51.5794 192.569 50.4854 194.627C53.2163 194.141 55.9944 193.648 58.7647 193.964C61.5349 194.28 64.3209 195.505 65.8476 197.818C63.774 189.08 62.979 180.097 63.4866 171.14" fill="black"></path>
</g>
<g opacity="0.3">
<path d="M62.4473 215.97L124.848 222.021C120.355 221.929 116.892 225.66 112.996 227.864C105.787 231.95 96.8077 230.809 88.5993 229.537L68.1373 226.392C66.4217 226.122 64.588 225.806 63.3209 224.634C61.0307 222.546 61.6525 218.923 62.4473 215.97Z" fill="black"></path>
</g>
<path d="M110.108 210.945L120.56 201.063C121.06 200.59 121.659 200.229 122.315 200.002C122.97 199.776 123.668 199.691 124.361 199.752C127.343 200.03 132.396 200.523 133.435 200.94C134.93 201.51 136.347 202.327 136.756 203.059C137.532 204.937 138.171 206.866 138.668 208.833C138.669 209.53 138.613 210.225 138.503 210.914C138.474 211.148 138.387 211.373 138.25 211.567C138.113 211.761 137.929 211.919 137.715 212.028C137.501 212.137 137.263 212.192 137.021 212.19C136.78 212.188 136.543 212.128 136.331 212.016C135.924 211.808 135.583 211.493 135.347 211.107C134.995 210.6 134.793 210.008 134.765 209.395C134.765 209.395 135.095 213.789 131.444 213.874C131.444 213.874 133.128 217.612 128.422 219.154C128.422 219.154 128.603 221.598 124.668 221.921C122.171 222.113 119.664 222.113 117.168 221.921C117.168 221.921 109.974 226.978 104.914 227.317C99.8536 227.656 88.5051 225.475 88.5051 225.475L87.1357 205.017L110.108 210.945Z" fill="#FFBF9D"></path>
<path d="M124.267 204.678C124.805 204.947 125.363 205.176 125.935 205.364C126.99 205.75 128.446 206.258 130.106 206.69C130.893 206.921 131.751 207.045 132.467 207.23C133.071 207.426 133.579 207.836 133.892 208.378C134.191 208.825 134.435 209.211 134.679 209.45C134.923 209.689 135.033 209.789 135.041 209.773C134.959 209.638 134.867 209.509 134.765 209.388C134.592 209.134 134.38 208.748 134.096 208.27C133.936 208.004 133.743 207.758 133.522 207.538C133.258 207.286 132.937 207.099 132.585 206.991C131.846 206.783 131.066 206.652 130.224 206.428C128.58 205.996 127.116 205.518 126.053 205.179C125.472 204.967 124.875 204.799 124.267 204.678Z" fill="#067AB2"></path>
<path d="M122.92 210.945C123.283 211.168 123.675 211.344 124.084 211.469C124.816 211.762 125.839 212.132 126.98 212.51C128.122 212.887 129.168 213.188 129.932 213.388C130.338 213.519 130.758 213.61 131.183 213.658C130.803 213.464 130.401 213.311 129.987 213.203L127.067 212.248L124.147 211.292C123.751 211.135 123.34 211.019 122.92 210.945Z" fill="#067AB2"></path>
<path d="M120.338 216.803C120.338 216.888 122.156 217.065 124.328 217.651C126.5 218.237 128.184 218.961 128.216 218.884C127.89 218.651 127.533 218.464 127.153 218.329C126.261 217.946 125.34 217.629 124.399 217.381C123.461 217.135 122.506 216.957 121.542 216.849C121.146 216.773 120.739 216.758 120.338 216.803Z" fill="#067AB2"></path>
<path d="M96.1398 226.762L49.7777 219.516C49.7777 219.516 55.3497 196.761 63.4794 196.761C64.6677 196.761 105.843 209.865 105.843 209.865L96.1398 226.762Z" fill="#455A64"></path>
<path d="M104.246 216.842C104.636 216.55 105 216.225 105.332 215.87L107.866 213.435C108.849 212.479 109.731 211.592 110.345 210.937C110.696 210.598 111.012 210.227 111.289 209.827C110.901 210.121 110.538 210.446 110.203 210.798L107.669 213.242C106.685 214.198 105.804 215.076 105.19 215.732C104.841 216.072 104.525 216.444 104.246 216.842Z" fill="#067AB2"></path>
<path d="M105.843 209.866C105.642 209.86 105.443 209.823 105.253 209.758L103.6 209.326L97.5638 207.623C92.4719 206.158 85.4519 204.092 77.7078 201.772L65.7533 198.157H65.6589L65.5959 198.064C64.2279 196.331 62.3355 195.066 60.1893 194.449C58.5165 193.949 56.7601 193.774 55.0187 193.933C53.8851 194.03 52.766 194.25 51.6818 194.588C50.8948 194.827 50.5407 194.997 50.5249 194.966C50.8524 194.718 51.223 194.53 51.6189 194.411C54.3976 193.342 57.4563 193.191 60.3309 193.979C62.6146 194.576 64.639 195.882 66.0996 197.702L65.9343 197.579L77.9046 201.132C85.6487 203.445 92.6451 205.588 97.6976 207.168L103.679 209.064L105.253 209.619C105.462 209.668 105.662 209.752 105.843 209.866Z" fill="#263238"></path>
<path d="M93.5647 137.054C93.9503 135.79 96.1303 124.12 97.0118 121.406C98.2631 117.552 108.415 110.738 108.415 110.738C108.415 110.738 106.841 107.146 102.497 109.011C97.3817 111.224 94.8475 114.947 93.5647 114.191C92.2819 113.436 84.2309 105.412 82.0431 105.666C79.8552 105.92 79.3673 108.125 80.1385 109.004C80.7441 109.734 81.2938 110.507 81.7834 111.316C81.7834 111.316 77.1401 109.944 78.0451 114.924C78.0451 114.924 72.7565 111.694 73.2759 118.508C73.2759 118.508 69.7895 117.12 69.0182 119.518C68.247 121.915 70.5372 124.698 71.7019 126.594C72.8667 128.49 76.6285 139.474 76.6285 139.474V149.163L95.1151 145.44L93.5647 137.054Z" fill="#FFBF9D"></path>
<path d="M93.5648 137.054C93.6266 137.235 93.674 137.42 93.7065 137.609C93.7931 138.01 93.9111 138.549 94.0528 139.235C94.3518 140.7 94.769 142.789 95.3041 145.448V145.595H95.1546L76.6916 149.449L76.3847 149.51V149.202C76.3847 146.219 76.3375 142.951 76.306 139.513V139.605C74.9917 135.874 73.6144 131.897 71.8988 127.819C71.0567 125.869 69.3017 124.166 68.6642 121.799C68.4945 121.197 68.4543 120.567 68.5462 119.949C68.5827 119.616 68.6906 119.294 68.8628 119.005C69.0351 118.715 69.2677 118.464 69.5457 118.269C70.1266 117.924 70.8057 117.773 71.4817 117.837C72.1236 117.885 72.7548 118.025 73.3547 118.253L72.8983 118.57C72.8514 117.891 72.8672 117.21 72.9455 116.535C73.0121 115.787 73.3209 115.079 73.8269 114.515C74.1227 114.246 74.4803 114.051 74.8694 113.947C75.2585 113.842 75.6675 113.831 76.062 113.914C76.8077 114.04 77.523 114.302 78.1712 114.685L77.6675 115.016C77.4143 113.998 77.537 112.925 78.0138 111.987C78.2164 111.689 78.4824 111.438 78.7935 111.25C79.1045 111.063 79.4534 110.943 79.816 110.9C80.4902 110.81 81.176 110.857 81.8307 111.039L81.4529 111.517C80.9988 110.753 80.4913 110.022 79.934 109.327C79.5749 108.929 79.391 108.408 79.4225 107.878C79.4484 107.37 79.6233 106.881 79.9262 106.468C80.2247 106.054 80.6406 105.735 81.1224 105.55C81.3557 105.462 81.5987 105.4 81.8464 105.365C82.1109 105.343 82.3773 105.367 82.6334 105.435C83.5046 105.75 84.3199 106.198 85.0495 106.761C87.9299 108.819 90.4011 111.185 92.9195 113.328C93.1842 113.575 93.4805 113.787 93.8009 113.96C94.1297 113.97 94.452 113.87 94.7139 113.675C95.3749 113.274 95.9967 112.758 96.6341 112.28C97.8702 111.293 99.1862 110.406 100.569 109.628C101.923 108.927 103.355 108.14 104.976 108.21C105.754 108.246 106.507 108.491 107.152 108.918C107.798 109.345 108.311 109.937 108.636 110.63L108.73 110.823L108.534 110.962C104.599 113.713 101.026 116.427 98.5072 119.34C97.9025 120.021 97.4304 120.805 97.1142 121.653C96.8545 122.501 96.6578 123.349 96.461 124.158C96.099 125.777 95.7658 127.262 95.4615 128.613C94.887 131.273 94.4227 133.369 94.1079 134.849C93.9426 135.566 93.8088 136.113 93.7065 136.483C93.6609 136.669 93.6031 136.852 93.5334 137.031C93.544 136.838 93.5756 136.647 93.6278 136.46L93.9426 134.818C94.2338 133.331 94.643 131.226 95.1546 128.552C95.4379 127.203 95.7527 125.7 96.0911 124.073C96.28 123.256 96.4689 122.416 96.7207 121.537C97.0379 120.627 97.5264 119.782 98.1609 119.047C100.719 116.034 104.252 113.305 108.227 110.499L108.132 110.823C107.849 110.23 107.406 109.723 106.852 109.356C106.297 108.99 105.652 108.777 104.984 108.742C103.591 108.68 102.222 109.404 100.892 110.106C99.541 110.88 98.2542 111.756 97.0434 112.727C96.4138 113.205 95.792 113.721 95.068 114.176C94.6678 114.466 94.1687 114.593 93.675 114.53C93.2539 114.341 92.8702 114.08 92.5417 113.76C90.0155 111.609 87.5522 109.258 84.7269 107.246C84.0532 106.736 83.3085 106.324 82.5154 106.021C82.3431 105.979 82.1652 105.963 81.9881 105.974C81.792 106.004 81.5996 106.053 81.4136 106.121C81.0467 106.256 80.7308 106.498 80.5085 106.815C80.2684 107.107 80.1375 107.472 80.1375 107.847C80.1375 108.223 80.2684 108.587 80.5085 108.88C81.0848 109.603 81.6107 110.362 82.0825 111.154L82.4996 111.84L81.7127 111.632C80.6345 111.347 79.2179 111.378 78.6512 112.303C78.2689 113.105 78.1799 114.011 78.3994 114.87L78.4938 115.556L77.8957 115.209C77.3243 114.873 76.6947 114.643 76.0384 114.53C75.7456 114.459 75.4394 114.46 75.147 114.533C74.8546 114.605 74.585 114.748 74.3621 114.947C73.5751 115.818 73.5751 117.259 73.6223 118.492V118.986L73.1501 118.816C72.1113 118.446 70.7891 118.223 70.0021 118.762C69.7966 118.911 69.6252 119.1 69.4991 119.318C69.3731 119.536 69.2951 119.777 69.2702 120.026C69.1937 120.557 69.2313 121.098 69.3804 121.614C69.7041 122.678 70.1925 123.687 70.8285 124.605C71.4862 125.536 72.0653 126.518 72.5599 127.542C74.2913 131.65 75.6292 135.643 76.9356 139.389V139.436V139.482C76.9356 142.92 76.9356 146.18 76.9356 149.163L76.6286 148.924L95.131 145.302L95.0129 145.471C94.5328 142.789 94.163 140.684 93.9033 139.204C93.7852 138.518 93.6986 137.979 93.6357 137.57C93.595 137.401 93.5712 137.228 93.5648 137.054Z" fill="black"></path>
<path d="M81.7999 111.478C82.5068 112.203 83.2557 112.888 84.0429 113.528C84.769 114.234 85.5363 114.898 86.3409 115.517C85.7304 114.707 85.0222 113.972 84.2318 113.328C83.5034 112.614 82.6864 111.993 81.7999 111.478Z" fill="#067AB2"></path>
<path d="M77.669 114.685C78.2112 116.151 79.2107 117.413 80.5258 118.292C80.5809 118.23 79.8097 117.521 79.0305 116.542C78.2514 115.563 77.7399 114.654 77.669 114.685Z" fill="#067AB2"></path>
<path d="M73.3877 118.3C73.945 119.371 74.6611 120.355 75.5126 121.221C74.9453 120.139 74.2158 119.147 73.3484 118.277L73.3877 118.3Z" fill="#067AB2"></path>
<path d="M144.901 133.554L125.022 152.987L104.631 178.116L96.5169 144.67L75.7952 148.84C75.7952 148.84 77.259 186.61 83.6652 203.738C84.8772 206.998 88.4659 209.426 90.0713 210.166C100.09 214.83 109.872 207.615 109.872 207.615C109.872 207.615 151.67 180.143 156.203 161.743C158.343 153.056 157.486 142.735 153.842 138.48C150.599 134.742 144.901 133.554 144.901 133.554Z" fill="#455A64"></path>
<path d="M156.171 161.743C156.171 161.743 156.124 161.951 156.014 162.337C155.864 162.923 155.677 163.499 155.455 164.063C154.603 166.234 153.502 168.303 152.173 170.23C150.092 173.277 147.766 176.156 145.216 178.84C141.855 182.405 138.306 185.796 134.584 188.999C130.476 192.591 125.801 196.33 120.662 200.176C118.088 202.096 115.397 204.03 112.579 205.996L110.447 207.453C109.738 207.931 108.991 208.439 108.219 208.863C106.647 209.744 104.982 210.455 103.253 210.983C99.6607 212.163 95.7852 212.235 92.149 211.191C91.6882 211.053 91.2362 210.888 90.7953 210.698C90.3374 210.536 89.8927 210.34 89.4653 210.112C88.6115 209.642 87.8029 209.098 87.0492 208.486C85.4738 207.265 84.2393 205.674 83.4605 203.861C82.1566 200.119 81.105 196.298 80.3125 192.422C79.5255 188.483 78.8487 184.475 78.3135 180.389C76.8576 169.505 76.0234 158.906 75.559 148.863V148.701H75.7243L96.446 144.546L96.627 144.508L96.6663 144.677C99.7277 157.388 102.459 168.688 104.733 178.131L104.497 178.069L121.024 160.695C122.96 158.668 124.455 157.095 125.486 156.024L126.643 154.813L127.052 154.42L126.675 154.844L125.541 156.07L121.134 160.795L104.733 178.262L104.552 178.447L104.489 178.2C102.191 168.758 99.4366 157.465 96.3358 144.762L96.5561 144.901L75.8345 149.086L75.9919 148.886C76.4641 158.906 77.3062 169.513 78.7621 180.374C79.2894 184.451 79.9977 188.452 80.7532 192.376C81.5251 196.213 82.5557 199.995 83.8383 203.699C84.5967 205.441 85.7869 206.969 87.301 208.147C88.0375 208.745 88.8277 209.276 89.662 209.734C90.0765 209.957 90.508 210.148 90.9527 210.305C91.3844 210.489 91.8257 210.651 92.2749 210.79C95.8353 211.816 99.631 211.749 103.151 210.598C104.852 210.073 106.493 209.375 108.046 208.517C108.833 208.085 109.518 207.607 110.25 207.121L112.383 205.664C115.2 203.73 117.892 201.81 120.465 199.876C125.612 196.022 130.287 192.322 134.403 188.753C138.519 185.184 142.084 181.815 145.059 178.655C147.611 175.987 149.947 173.129 152.047 170.107C153.384 168.202 154.503 166.16 155.384 164.017C155.715 163.292 155.833 162.691 155.982 162.314C156.132 161.936 156.171 161.743 156.171 161.743Z" fill="#263238"></path>
<path d="M108.401 193.47C108.33 193.47 108.566 192.491 108.692 190.903C108.76 189.977 108.76 189.047 108.692 188.121C108.598 186.987 108.406 185.862 108.117 184.76C107.574 182.761 106.742 180.848 105.646 179.079C104.796 177.715 104.175 176.936 104.23 176.89C104.285 176.844 104.426 177.052 104.725 177.399C105.147 177.888 105.536 178.403 105.89 178.94C107.756 181.668 108.843 184.835 109.038 188.113C109.084 189.06 109.05 190.009 108.936 190.95C108.868 191.582 108.75 192.208 108.582 192.823C108.548 193.045 108.488 193.262 108.401 193.47Z" fill="#263238"></path>
<path d="M105.568 102.992C105.568 103.1 105.103 103.054 104.45 102.923C103.625 102.737 102.79 102.603 101.948 102.522C101.129 102.442 100.303 102.492 99.5 102.668C98.8861 102.807 98.6264 103.054 98.5241 103.015C98.4218 102.977 98.4769 102.853 98.6028 102.676C98.7828 102.444 99.0178 102.259 99.2875 102.136C100.141 101.763 101.082 101.622 102.011 101.728C102.916 101.8 103.802 102.021 104.631 102.383C105.253 102.653 105.607 102.884 105.568 102.992Z" fill="#263238"></path>
<path d="M279.377 53.0346C280.981 53.2627 282.614 52.8759 283.934 51.9547C285.255 51.0335 286.161 49.649 286.466 48.0894C286.77 46.5298 286.448 44.9153 285.567 43.5822C284.687 42.2491 283.315 41.3 281.738 40.9327C282.681 39.9412 283.281 38.6838 283.452 37.3392C283.624 35.9947 283.358 34.6314 282.693 33.4432C282.028 32.255 280.998 31.3023 279.748 30.7206C278.499 30.1389 277.094 29.9577 275.733 30.2029C275.645 28.8709 275.206 27.5841 274.458 26.4684C273.71 25.3526 272.68 24.4462 271.467 23.8378C270.254 23.2295 268.9 22.94 267.539 22.9977C266.177 23.0555 264.855 23.4585 263.7 24.1674C262.138 22.9832 260.217 22.3445 258.242 22.3529C256.267 22.3612 254.351 23.0162 252.8 24.2136C251.466 24.0006 250.098 24.2134 248.898 24.8206C247.697 25.4278 246.728 26.3972 246.133 27.5856C245.539 28.7739 245.35 30.1181 245.595 31.4195C245.841 32.7209 246.507 33.9105 247.496 34.8124" fill="#263238"></path>
<path d="M251.603 30.357H252.996C259.739 30.2033 266.293 32.5416 271.355 36.9066C276.417 41.2716 279.615 47.3433 280.313 53.9133C281.659 66.5855 282.981 80.6068 283.06 87.4208C283.217 101.527 268.894 104.047 268.894 104.047L270.515 120.967L235.509 120.674L230.953 59.2859C229.324 44.6711 236.643 31.5595 251.603 30.357Z" fill="#FFBF9D"></path>
<path d="M268.886 104.017C261.92 104.2 255.041 102.467 249.03 99.0142C249.03 99.0142 254.885 109.297 269.224 107.701L268.886 104.017Z" fill="#3F3F41"></path>
<path d="M275.914 69.1911C275.931 69.7158 275.738 70.2263 275.376 70.6137C275.015 71.0011 274.513 71.2347 273.978 71.2646C273.717 71.2911 273.454 71.2661 273.203 71.1911C272.952 71.1162 272.72 70.9928 272.519 70.8282C272.318 70.6636 272.152 70.4612 272.032 70.233C271.913 70.0047 271.841 69.7553 271.821 69.4994C271.804 68.9752 271.995 68.4648 272.355 68.0764C272.715 67.688 273.215 67.4519 273.749 67.4182C274.011 67.3917 274.275 67.4169 274.527 67.4922C274.778 67.5675 275.012 67.6915 275.214 67.8568C275.416 68.0221 275.582 68.2253 275.702 68.4545C275.822 68.6837 275.894 68.9341 275.914 69.1911Z" fill="#263238"></path>
<path d="M277.385 60.8506C277.133 61.1204 275.551 60.0259 273.34 60.0798C271.129 60.1338 269.531 61.2515 269.279 60.9971C269.161 60.8815 269.413 60.4036 270.066 59.8794C271.007 59.2082 272.137 58.8393 273.301 58.8234C274.453 58.7936 275.586 59.1229 276.535 59.7638C277.267 60.2648 277.503 60.735 277.385 60.8506Z" fill="#263238"></path>
<path d="M256.862 69.1911C256.879 69.7158 256.686 70.2263 256.325 70.6137C255.963 71.0011 255.461 71.2347 254.926 71.2646C254.665 71.29 254.402 71.2643 254.151 71.189C253.9 71.1138 253.668 70.9904 253.466 70.8261C253.265 70.6618 253.099 70.4599 252.978 70.2321C252.857 70.0043 252.783 69.7552 252.762 69.4994C252.744 68.9739 252.937 68.4625 253.298 68.0739C253.66 67.6852 254.162 67.45 254.698 67.4182C254.959 67.3917 255.224 67.4169 255.475 67.4922C255.727 67.5675 255.96 67.6915 256.162 67.8568C256.364 68.0221 256.53 68.2253 256.65 68.4545C256.77 68.6837 256.842 68.9341 256.862 69.1911Z" fill="#263238"></path>
<path d="M255.641 61.7526C255.389 62.0224 253.807 60.9278 251.596 60.9818C249.384 61.0357 247.787 62.1534 247.543 61.899C247.417 61.7834 247.669 61.2978 248.33 60.7813C249.274 60.1105 250.406 59.7417 251.572 59.7253C252.722 59.6895 253.853 60.0165 254.799 60.658C255.523 61.1667 255.767 61.6369 255.641 61.7526Z" fill="#263238"></path>
<path d="M264.054 77.6467C264.054 77.5234 265.416 77.2613 267.635 76.9298C268.202 76.8605 268.729 76.7371 268.816 76.3594C268.852 75.7856 268.706 75.2149 268.399 74.7253C267.837 73.3995 267.247 72.0069 266.628 70.5474C264.165 64.5967 262.37 59.702 262.614 59.6095C262.858 59.517 265.054 64.2344 267.517 70.2083C268.115 71.6728 268.682 73.068 269.217 74.4093C269.588 75.0692 269.711 75.8358 269.563 76.5753C269.485 76.7714 269.364 76.9479 269.207 77.0919C269.05 77.236 268.863 77.3439 268.658 77.4078C268.346 77.4959 268.023 77.5451 267.698 77.5542C265.455 77.7238 264.07 77.77 264.054 77.6467Z" fill="#263238"></path>
<path d="M256.114 57.2818C255.831 57.8368 253.918 57.2818 251.581 57.2818C249.244 57.2818 247.292 57.6903 247.064 57.1199C246.969 56.8501 247.371 56.3491 248.197 55.8943C249.27 55.3434 250.472 55.0776 251.683 55.1235C252.884 55.1326 254.06 55.4545 255.091 56.0562C255.878 56.4724 256.232 57.012 256.114 57.2818Z" fill="#263238"></path>
<path d="M277.276 51.917C276.827 52.418 274.985 51.917 272.79 51.9709C270.594 52.0249 268.737 52.3949 268.304 51.8938C268.107 51.6472 268.39 51.123 269.185 50.6605C270.296 50.0553 271.55 49.7494 272.821 49.7741C274.085 49.7494 275.331 50.064 276.426 50.6837C277.22 51.1693 277.48 51.6703 277.276 51.917Z" fill="#263238"></path>
<path d="M278.794 47.4462C278.794 47.4462 274.78 38.6974 270.389 36.7395C265.061 34.3654 262.928 40.0771 257.884 38.813C252.839 37.5488 247.747 35.2749 242.71 39.1907C237.201 43.4765 239.901 46.3362 239.704 52.603C238.917 78.0401 234.337 85.2858 232.707 73.3689C232.534 72.0585 228.772 71.1027 228.111 65.5836C227.23 58.4304 226.742 49.7278 228.253 44.6019C229.528 40.2775 231.96 37.2559 236.359 33.8874C243.308 28.5611 253.012 28.2296 259.623 28.7307C266.234 29.2317 279.117 36.3772 278.794 47.4462Z" fill="#263238"></path>
<path d="M233.605 72.9604C233.572 72.444 233.432 71.9395 233.196 71.4769C232.959 71.0143 232.63 70.6031 232.227 70.2679C231.825 69.9327 231.357 69.6803 230.853 69.5257C230.349 69.3712 229.818 69.3177 229.292 69.3684C226.617 69.6844 223.665 71.2415 223.972 76.6758C224.515 86.3111 234.274 83.7905 234.282 83.513C234.29 83.2355 233.865 76.9918 233.605 72.9604Z" fill="#FFBF9D"></path>
<path d="M231.936 79.9977C231.889 79.9977 231.771 80.1288 231.487 80.2752C231.088 80.4663 230.629 80.4994 230.205 80.3677C229.142 80.0517 228.182 78.4792 228.033 76.7449C227.965 75.9204 228.083 75.0916 228.379 74.3168C228.456 74.0123 228.606 73.7304 228.817 73.4944C229.027 73.2583 229.293 73.0752 229.591 72.9601C229.785 72.8967 229.996 72.903 230.187 72.9778C230.377 73.0526 230.534 73.1911 230.63 73.3687C230.779 73.6307 230.724 73.8235 230.779 73.8389C230.834 73.8543 230.984 73.6616 230.881 73.2685C230.811 73.0342 230.661 72.8304 230.456 72.6903C230.318 72.5974 230.161 72.5325 229.996 72.4994C229.831 72.4663 229.661 72.4657 229.496 72.4976C229.097 72.597 228.73 72.7952 228.431 73.0732C228.132 73.3512 227.911 73.6998 227.789 74.0855C227.421 74.9447 227.269 75.878 227.348 76.8065C227.521 78.7413 228.639 80.5065 230.087 80.8302C230.358 80.8937 230.641 80.8961 230.913 80.8374C231.186 80.7787 231.441 80.6603 231.661 80.4911C231.928 80.2367 231.968 80.0131 231.936 79.9977Z" fill="#3F3F41"></path>
<path d="M233.354 54.2755C234.652 55.1003 236.022 55.9559 237.564 56.0638C239.107 56.1717 240.854 55.293 241.074 53.7513C241.176 53.073 240.988 52.3022 241.428 51.7703C241.869 51.2385 242.947 51.3156 243.789 51.3772C246.662 51.6085 249.928 48.4404 250.597 45.6963C250.983 46.2095 251.555 46.559 252.196 46.6736C252.836 46.7881 253.497 46.6592 254.044 46.3129C254.95 45.7447 255.748 45.0276 256.405 44.1932C257.247 43.2065 258.443 42.3124 259.75 42.4588C260.474 42.5436 261.166 42.9521 261.898 42.8751C263.189 42.7286 263.787 41.2332 263.952 39.9768C264.117 38.7203 264.235 37.2404 265.314 36.5312C266.392 35.8221 267.635 36.2152 268.832 36.3616C270.028 36.5081 271.555 36.192 271.83 35.0512C271.873 34.7442 271.853 34.4317 271.771 34.1325C271.688 33.8332 271.545 33.5532 271.35 33.3092C270.521 32.1621 269.321 31.3221 267.945 30.9249C266.568 30.5278 265.095 30.5965 263.763 31.12C263.234 29.5317 262.238 28.1318 260.9 27.096C259.562 26.0602 257.941 25.4347 256.241 25.298C254.541 25.1613 252.838 25.5195 251.345 26.3277C249.852 27.1358 248.636 28.3579 247.85 29.8405C246.779 28.9235 245.496 28.2756 244.113 27.9526C242.729 27.6295 241.286 27.6411 239.908 27.9864C238.53 28.3316 237.258 29.0001 236.202 29.9341C235.147 30.8682 234.339 32.0397 233.849 33.3477C232.632 33.0602 231.355 33.1311 230.179 33.5515C229.002 33.9719 227.979 34.7232 227.237 35.7111C226.495 36.6989 226.067 37.8794 226.007 39.1045C225.947 40.3296 226.258 41.5448 226.9 42.5976C225.153 43.6305 223.674 45.3802 223.689 47.3767C223.705 49.3731 225.728 51.3233 227.687 50.7529C227.286 51.5502 227.215 52.4685 227.489 53.3159C227.763 54.1634 228.361 54.8743 229.157 55.3003C229.954 55.7262 230.887 55.8341 231.763 55.6015C232.639 55.3689 233.39 54.8137 233.857 54.052" fill="#263238"></path>
<path d="M264.511 33.9568C264.52 34.0155 264.52 34.0754 264.511 34.1341C264.506 34.307 264.49 34.4795 264.463 34.6505C264.345 35.3086 264.119 35.9437 263.794 36.5313C263.267 37.4473 262.539 38.2372 261.662 38.8438C260.498 39.6669 259.091 40.0946 257.656 40.0617L257.821 39.8459C258.135 40.7177 258.087 41.6753 257.687 42.5129C257.267 43.3856 256.718 44.1932 256.058 44.9102C255.744 45.3265 255.382 45.7066 254.98 46.0433C254.515 46.369 253.974 46.5757 253.406 46.6445C252.827 46.7423 252.232 46.6985 251.675 46.5169C251.118 46.3354 250.615 46.0218 250.211 45.6039L250.573 45.496C250.46 46.5007 250.133 47.471 249.614 48.3446C249.095 49.2182 248.395 49.9756 247.559 50.568C246.642 51.2689 245.518 51.6586 244.355 51.678C243.26 51.6537 242.177 51.4478 241.152 51.069L241.412 50.9534C240.927 52.131 240.151 53.1721 239.153 53.9827C238.696 54.3842 238.152 54.681 237.563 54.8516C236.974 55.0222 236.353 55.0625 235.746 54.9694C234.706 54.7764 233.747 54.2897 232.986 53.5693C232.225 52.8488 231.696 51.9261 231.464 50.9148L231.693 51.0073C230.671 51.5724 229.48 51.7713 228.324 51.57C227.47 51.4324 226.662 51.0997 225.963 50.5988C225.524 50.2789 225.143 49.8878 224.838 49.4426C224.73 49.2887 224.64 49.1231 224.57 48.9493C224.968 49.5464 225.471 50.0687 226.058 50.4909C226.751 50.9577 227.546 51.2587 228.379 51.3696C229.466 51.5307 230.577 51.3241 231.527 50.7838L231.716 50.6759V50.884C231.947 51.8267 232.453 52.6837 233.17 53.3513C233.888 54.0188 234.788 54.4684 235.761 54.6456C236.316 54.7233 236.881 54.6792 237.416 54.5165C237.951 54.3539 238.442 54.0767 238.854 53.7052C239.793 52.934 240.521 51.9458 240.971 50.8301L241.05 50.6528L241.239 50.7144C242.218 51.0765 243.254 51.272 244.3 51.2925C245.395 51.2822 246.455 50.9162 247.315 50.2519C248.103 49.6938 248.764 48.9803 249.255 48.1573C249.745 47.3343 250.055 46.4199 250.164 45.4729L250.219 45.0104L250.533 45.3572C250.89 45.7253 251.333 46.0016 251.825 46.1616C252.316 46.3216 252.84 46.3604 253.351 46.2745C253.844 46.2152 254.314 46.0378 254.72 45.7581C255.098 45.4414 255.438 45.0846 255.735 44.6943C256.369 44.0004 256.899 43.2218 257.309 42.3819C257.683 41.6264 257.74 40.7573 257.467 39.9615L257.38 39.7379H257.624C258.997 39.7951 260.352 39.4107 261.481 38.6434C262.357 38.073 263.091 37.3169 263.629 36.4311C264.071 35.6645 264.37 34.8265 264.511 33.9568Z" fill="#455A64"></path>
<path d="M193.697 119.425C193.697 119.425 156.708 132.19 145.989 137.463C137.623 141.579 132.326 156.525 145.202 162.753C154.795 167.378 206.745 158.521 206.745 158.521L193.697 119.425Z" fill="#FFBF9D"></path>
<path d="M306.671 246.326L212.687 242.842L209.28 274.191L205.471 337.051L253.477 337.252C253.477 336.982 259.466 301.902 259.466 301.902L262.174 301.208L261.922 337.252H306.907C309.268 307.421 310.621 282.369 310.708 280.011C311.069 268.649 309.708 257.297 306.671 246.326Z" fill="#263238"></path>
<path d="M256.074 282.384C256.514 282.682 256.993 282.92 257.498 283.094C258.834 283.697 260.248 284.117 261.701 284.342C262.725 284.489 263.767 284.452 264.778 284.234C265.967 283.996 267.06 283.426 267.926 282.593C268.823 281.622 269.447 280.44 269.736 279.162C270.074 277.875 270.248 276.542 270.46 275.185C271.294 269.751 271.806 264.794 272.034 261.202C272.168 259.414 272.247 257.957 272.278 256.947C272.337 256.435 272.337 255.918 272.278 255.406C272.136 255.909 272.051 256.426 272.026 256.947C271.9 258.088 271.751 259.507 271.562 261.179C271.168 264.748 270.586 269.658 269.752 275.1C269.327 277.783 269.075 280.496 267.454 282.161C266.691 282.843 265.782 283.351 264.794 283.647C263.806 283.943 262.762 284.02 261.74 283.872C260.32 283.691 258.926 283.352 257.585 282.862C257.1 282.652 256.593 282.491 256.074 282.384Z" fill="#455A64"></path>
<path d="M265.037 256.624C265.037 256.624 264.809 256.462 264.337 256.454C263.665 256.468 263.016 256.701 262.495 257.117C262.093 257.424 261.766 257.817 261.541 258.266C261.316 258.714 261.199 259.207 261.197 259.707C261.267 260.326 261.517 260.912 261.917 261.395C262.318 261.879 262.852 262.239 263.456 262.433C264.06 262.627 264.708 262.647 265.324 262.49C265.939 262.334 266.495 262.007 266.926 261.549C267.227 261.145 267.43 260.679 267.52 260.186C267.61 259.693 267.585 259.187 267.445 258.705C267.276 258.067 266.894 257.503 266.359 257.102C265.974 256.832 265.706 256.809 265.698 256.84C266.323 257.352 266.764 258.046 266.957 258.821C267.041 259.221 267.037 259.635 266.945 260.033C266.852 260.432 266.674 260.807 266.422 261.133C266.068 261.475 265.624 261.714 265.14 261.825C264.656 261.936 264.15 261.914 263.678 261.762C263.205 261.61 262.785 261.333 262.463 260.963C262.14 260.592 261.928 260.142 261.85 259.661C261.842 259.25 261.924 258.843 262.091 258.467C262.258 258.09 262.506 257.754 262.818 257.479C263.446 256.97 264.223 256.67 265.037 256.624Z" fill="#455A64"></path>
<path d="M212.686 272.302C213.057 272.406 213.442 272.45 213.827 272.433C214.878 272.473 215.93 272.44 216.975 272.333C223.92 271.65 230.412 268.645 235.36 263.823C236.106 263.103 236.798 262.33 237.43 261.511C237.87 260.925 238.098 260.593 238.059 260.563C238.02 260.532 236.934 261.734 235.013 263.469C229.971 268 223.642 270.924 216.865 271.855C214.26 272.202 212.686 272.179 212.686 272.302Z" fill="#455A64"></path>
<path d="M308.566 241.215C306.717 237.099 307.063 236.721 307.063 236.721L301.837 191.913L296.816 148.331L292.74 116.065L269.224 111.131C269.224 111.131 266.517 118.485 255.145 118.709C242.041 118.963 234.541 107.485 234.541 107.485L196.946 115.402L211.112 210.413L212.804 236.004C212.804 236.004 210.002 240.144 210.002 244.584C210.002 249.023 209.814 251.991 209.814 251.991C244.725 261.38 279.369 269.52 311.242 260.424C311.203 260.424 310.408 245.324 308.566 241.215Z" fill="#455A64"></path>
<path d="M284.162 114.384C284.162 114.384 297.722 115.864 302.53 120.867C307.339 125.869 322.717 150.613 322.717 150.613L300.382 180.575L290.033 166.7L284.162 114.384Z" fill="#455A64"></path>
<path d="M294.535 129.87C294.724 129.87 296.856 146.296 299.304 166.6C301.751 186.903 303.585 203.383 303.396 203.399C303.207 203.414 301.075 186.973 298.627 166.669C296.179 146.366 294.306 129.886 294.535 129.87Z" fill="#263238"></path>
<path d="M196.931 115.394L166.812 128.49L177.712 158.344L206.737 162.853L196.931 115.394Z" fill="#455A64"></path>
<path d="M201.07 135.189C201.275 135.189 202.707 146.82 204.281 161.204C205.855 175.587 206.965 187.281 206.76 187.296C206.556 187.312 205.123 175.672 203.557 161.281C201.991 146.89 200.881 135.212 201.07 135.189Z" fill="#263238"></path>
<g opacity="0.3">
<path d="M208.5 286.578C224.846 280.82 233.905 269.473 241.224 257.441C248.543 245.408 249.574 228.466 244.899 215.231C244.899 215.231 211.105 247.243 210.869 247.952C210.633 248.661 208.5 286.578 208.5 286.578Z" fill="black"></path>
</g>
<g opacity="0.3">
<path d="M254.492 118.292C254.083 121.537 255.94 124.674 258.215 127.072C260.489 129.469 263.244 131.435 265.298 134.009C267.659 136.938 269.02 140.515 270.335 144.03C273.089 151.363 275.841 158.688 278.59 166.006C280.951 172.319 283.359 178.686 287.121 184.313C290.883 189.94 296.172 194.835 302.704 196.893L297.738 155.623L271.57 114.399L254.492 118.292Z" fill="black"></path>
</g>
<path d="M281.604 118.647C281.604 118.131 282.029 99.0141 280.715 96.9406C279.401 94.8671 278.354 92.917 278.102 90.9668C278.2 90.8108 278.263 90.6362 278.286 90.4545C278.309 90.2729 278.291 90.0886 278.236 89.914C278.18 89.7394 278.086 89.5785 277.961 89.4423C277.836 89.3062 277.683 89.1978 277.512 89.1245C276.213 88.4077 274.151 90.142 274.104 93.2176C274.057 96.2931 274.419 101.527 274.419 101.527C274.419 101.527 260.017 93.5259 256.074 93.3024C252.131 93.0788 246.205 92.3697 245.89 94.2351C245.576 96.1004 245.843 96.5475 247.913 97.2567C249.983 97.9658 253.249 98.4592 256.476 99.5691C258.086 100.069 259.663 100.666 261.198 101.357C261.198 101.357 253.839 99.2377 252.226 101.357C250.612 103.477 250.833 105.389 251.864 106.414C251.231 106.687 250.701 107.146 250.347 107.728C249.993 108.309 249.833 108.984 249.888 109.659C250.117 112.018 251.195 112.596 251.195 112.596C251.195 112.596 249.038 114.199 250.069 116.242C251.1 118.285 253.524 117.013 255.814 119.325C258.105 121.638 263.795 127.033 265.99 128.267C268.186 129.5 273.215 129.955 273.215 129.955L281.604 118.647Z" fill="#FFBF9D"></path>
<path d="M281.604 118.647C281.604 118.647 281.565 118.716 281.478 118.847L281.069 119.41C280.699 119.926 280.156 120.666 279.455 121.622L273.285 129.962L273.246 130.009H273.191C272.191 129.908 271.16 129.762 270.082 129.569C268.954 129.377 267.845 129.088 266.769 128.706C266.206 128.495 265.676 128.207 265.195 127.85C264.683 127.504 264.203 127.08 263.708 126.725C262.724 125.954 261.748 125.075 260.756 124.174C259.765 123.272 258.749 122.339 257.734 121.36L256.16 119.857C255.682 119.321 255.122 118.86 254.5 118.493C253.841 118.153 253.132 117.916 252.398 117.791C251.586 117.709 250.827 117.355 250.25 116.789C249.981 116.472 249.79 116.099 249.692 115.698C249.593 115.297 249.59 114.879 249.683 114.477C249.916 113.673 250.404 112.963 251.076 112.449V112.727C250.563 112.337 250.191 111.797 250.014 111.185C249.808 110.594 249.694 109.975 249.675 109.351C249.657 108.693 249.85 108.046 250.226 107.501C250.624 106.945 251.168 106.505 251.8 106.229L251.737 106.514C251.311 106.047 251.025 105.473 250.913 104.857C250.8 104.24 250.865 103.605 251.1 103.022C251.305 102.435 251.6 101.882 251.973 101.38C252.151 101.099 252.401 100.868 252.697 100.71C252.99 100.556 253.302 100.442 253.626 100.371C254.892 100.159 256.185 100.159 257.451 100.371C258.731 100.545 259.999 100.802 261.244 101.141L261.11 101.473C259.155 100.614 257.144 99.883 255.09 99.2838C253.004 98.6748 250.817 98.274 248.637 97.6728C247.836 97.4656 247.066 97.1572 246.346 96.7555C246.155 96.6368 245.991 96.4789 245.868 96.2926C245.744 96.1064 245.663 95.8961 245.63 95.6763C245.586 95.2677 245.602 94.855 245.677 94.4507C245.69 94.2321 245.752 94.0188 245.858 93.8264C245.985 93.6393 246.151 93.4814 246.346 93.3639C246.713 93.1658 247.113 93.0327 247.527 92.9708C248.307 92.8411 249.097 92.7818 249.888 92.7935C251.462 92.7935 253.036 92.9091 254.555 93.017C255.327 93.0476 256.097 93.1197 256.861 93.2328C257.246 93.3176 257.608 93.4332 257.978 93.5257L259.056 93.8957C261.802 94.9592 264.489 96.1607 267.107 97.4955C269.668 98.7853 272.126 100.07 274.482 101.35L274.222 101.504C274.049 98.4744 273.868 95.5761 273.946 92.7703C273.96 92.0672 274.132 91.3758 274.451 90.7455C274.769 90.1152 275.226 89.5616 275.788 89.1244C276.089 88.9235 276.44 88.8063 276.803 88.7852C277.172 88.7783 277.531 88.8984 277.818 89.1244C278.119 89.3299 278.325 89.6426 278.393 89.9954C278.447 90.3441 278.378 90.7005 278.196 91.0052V90.9127C278.608 92.9354 279.429 94.8567 280.612 96.5628C280.761 96.7701 280.875 96.999 280.951 97.2411C281.029 97.4752 281.09 97.7149 281.132 97.958C281.218 98.4282 281.281 98.8984 281.328 99.3609C281.431 100.286 281.486 101.188 281.533 102.059C281.706 105.527 281.706 108.526 281.706 110.985C281.706 113.444 281.659 115.34 281.628 116.635C281.628 117.275 281.628 117.76 281.588 118.107C281.549 118.454 281.588 118.608 281.588 118.608C281.588 118.608 281.588 118.439 281.588 118.107V116.673C281.588 115.363 281.588 113.459 281.588 111.023C281.588 108.588 281.549 105.574 281.352 102.105C281.305 101.242 281.242 100.348 281.14 99.4302C281.085 98.9677 281.022 98.5052 280.935 98.0427C280.87 97.5756 280.701 97.1283 280.439 96.7324C279.227 95.0011 278.383 93.0479 277.96 90.9897V90.9435V90.8972C278.105 90.6501 278.161 90.3621 278.118 90.0802C278.056 89.8008 277.887 89.5552 277.645 89.3941C277.405 89.2104 277.108 89.1106 276.803 89.1106C276.498 89.1106 276.202 89.2104 275.961 89.3941C275.441 89.8088 275.02 90.3301 274.727 90.9214C274.435 91.5128 274.279 92.1597 274.269 92.8166C274.198 95.5684 274.387 98.4898 274.568 101.504V101.804L274.293 101.658C271.937 100.363 269.482 99.0782 266.926 97.8038C264.335 96.4798 261.674 95.2911 258.954 94.2426L257.892 93.8803C257.538 93.7878 257.175 93.6722 256.813 93.5951C256.065 93.4854 255.311 93.4159 254.555 93.387C253.02 93.2868 251.47 93.1712 249.911 93.1712C249.134 93.159 248.357 93.2131 247.59 93.333C246.866 93.4795 246.016 93.7339 246.016 94.5124C245.944 94.8782 245.931 95.2526 245.976 95.6224C246.001 95.7928 246.064 95.9558 246.161 96.0997C246.258 96.2436 246.385 96.3648 246.535 96.4549C247.224 96.8401 247.963 97.133 248.731 97.3259C250.879 97.9194 253.083 98.3203 255.192 98.9446C257.267 99.5451 259.297 100.284 261.268 101.157L261.134 101.496C259.906 101.16 258.658 100.903 257.396 100.725C256.171 100.529 254.922 100.529 253.697 100.725C253.41 100.768 253.136 100.867 252.888 101.015C252.641 101.164 252.426 101.358 252.257 101.589C251.918 102.061 251.652 102.581 251.47 103.13C251.252 103.651 251.188 104.22 251.284 104.775C251.38 105.329 251.632 105.846 252.013 106.267L252.194 106.445L251.958 106.553C251.402 106.807 250.924 107.2 250.573 107.693C250.235 108.182 250.062 108.761 250.077 109.351C250.093 109.938 250.199 110.52 250.392 111.077C250.55 111.605 250.865 112.075 251.297 112.426L251.493 112.565L251.32 112.704C250.71 113.172 250.267 113.816 250.053 114.546C249.964 114.9 249.962 115.27 250.047 115.625C250.132 115.98 250.301 116.31 250.541 116.589C251.07 117.105 251.765 117.427 252.509 117.498C253.272 117.63 254.01 117.877 254.696 118.231C255.342 118.617 255.923 119.098 256.42 119.657L257.947 121.198C258.962 122.177 259.969 123.118 260.953 124.019C261.937 124.921 262.913 125.769 263.889 126.571C264.779 127.379 265.797 128.04 266.903 128.529C267.964 128.907 269.057 129.196 270.169 129.392C271.231 129.592 272.262 129.739 273.246 129.855L273.152 129.893L279.385 121.63L281.045 119.448L281.478 118.886L281.604 118.647Z" fill="#3F3F41"></path>
<path d="M328.274 163.277C326.833 160.587 323.552 154.983 322.017 151.546L311.723 155.215C311.723 155.215 282.604 116.674 281.636 116.674C280.668 116.674 268.045 128.159 268.045 128.159C268.603 128.706 294.85 187.635 304.908 194.018C314.965 200.4 322.458 204.455 327.856 195.336C333.255 186.217 334.601 175.133 328.274 163.277Z" fill="#FFBF9D"></path>
<path d="M324.904 172.527C324.718 172.287 324.557 172.028 324.424 171.756C324.141 171.263 323.716 170.554 323.173 169.683C321.768 167.432 320.239 165.257 318.593 163.169C316.672 160.711 314.799 158.591 313.446 157.057L311.872 155.238C311.663 155.025 311.475 154.793 311.313 154.544C311.556 154.721 311.78 154.923 311.982 155.145C312.391 155.546 312.973 156.14 313.682 156.88C315.09 158.375 316.995 160.479 318.931 162.946C320.59 165.044 322.099 167.251 323.448 169.552C323.952 170.438 324.346 171.171 324.59 171.687C324.727 171.954 324.833 172.236 324.904 172.527Z" fill="#3F3F41"></path>
<path d="M265.597 86.627C265.337 86.812 264.251 85.7174 262.528 85.1316C260.804 84.5458 259.269 84.6537 259.199 84.3608C259.159 84.222 259.529 83.9753 260.222 83.8443C261.127 83.7097 262.053 83.8001 262.914 84.1072C263.775 84.4142 264.543 84.9282 265.148 85.6018C265.589 86.1182 265.715 86.5345 265.597 86.627Z" fill="#263238"></path>
<path d="M291.914 240.953C291.803 241.031 291.684 241.098 291.56 241.153C291.308 241.277 290.961 241.477 290.481 241.67C289.118 242.221 287.686 242.597 286.224 242.787C284.058 243.069 281.865 243.069 279.699 242.787C277.056 242.432 274.447 241.863 271.9 241.084C266.478 239.457 261.669 237.677 258.246 236.305C256.53 235.619 255.153 235.025 254.209 234.609L253.13 234.116C252.998 234.065 252.874 233.998 252.761 233.915C252.897 233.943 253.029 233.987 253.154 234.046C253.453 234.154 253.815 234.301 254.264 234.478L258.348 236.058C261.795 237.376 266.604 239.141 272.003 240.729C274.532 241.499 277.118 242.074 279.739 242.448C281.876 242.756 284.045 242.795 286.192 242.564C287.638 242.394 289.059 242.06 290.426 241.57C291.386 241.161 291.898 240.922 291.914 240.953Z" fill="#263238"></path>
<path d="M220.706 167.409C207.563 158.737 191.926 155.638 181.679 155.631C172.085 155.631 157.959 157.095 145.178 164.148C137.414 168.362 130.917 174.499 126.337 181.946C120.938 190.749 118.011 201.641 117.633 214.321C117.61 215.258 117.778 216.189 118.128 217.061C118.478 217.934 119.002 218.728 119.67 219.399C120.338 220.07 121.136 220.603 122.018 220.967C122.899 221.332 123.846 221.52 124.802 221.52H149.986C151.708 221.511 153.369 220.897 154.668 219.792C155.967 218.686 156.819 217.161 157.069 215.493C158.187 207.784 162.877 194.757 181.71 194.449C196.065 194.226 201.968 204.393 203.841 208.779C205.34 212.451 205.932 216.419 205.57 220.358C205.207 224.298 203.9 228.097 201.755 231.449C195.05 242.24 182.733 243.905 175.989 243.928C172.268 243.934 168.699 245.381 166.062 247.952C163.425 250.524 161.932 254.012 161.909 257.656V284.173C161.909 286.036 162.665 287.823 164.009 289.141C165.353 290.459 167.177 291.201 169.079 291.203H193.594C195.496 291.201 197.319 290.46 198.664 289.144C200.009 287.828 200.767 286.043 200.771 284.18V278.623C200.771 278.556 200.792 278.492 200.832 278.438C200.872 278.384 200.927 278.343 200.992 278.322C210.749 274.929 219.632 269.489 227.018 262.382C239.405 250.334 245.693 234.779 245.701 216.132C245.693 189.493 232.11 174.932 220.706 167.409Z" fill="white"></path>
<path d="M182.53 297.878H180.42C175.555 297.976 170.924 299.938 167.518 303.342C164.113 306.747 162.206 311.323 162.206 316.089C162.206 320.855 164.113 325.431 167.518 328.835C170.924 332.24 175.555 334.201 180.42 334.299H182.569C187.501 334.299 192.231 332.38 195.719 328.964C199.206 325.549 201.166 320.916 201.166 316.085C201.166 311.254 199.206 306.621 195.719 303.205C192.231 299.789 187.501 297.87 182.569 297.87L182.53 297.878Z" fill="white"></path>
<g opacity="0.3">
<path d="M244.733 199.121C244.396 196.439 243.697 193.814 242.656 191.312C237.753 179.318 226.231 171.14 213.119 169.683L149.861 162.63C156.739 169.521 165.719 170.893 175.241 173.306C184.764 175.718 195.019 179.349 204.636 181.353C207.721 182.001 210.932 182.802 213.293 184.806C215.654 186.811 216.944 189.624 218.172 192.391C220.008 196.502 221.845 200.598 223.681 204.678C225.767 209.349 228.545 214.629 234.164 214.93C236.445 215.021 238.674 214.248 240.389 212.772C244.466 209.357 245.323 204.031 244.733 199.121Z" fill="black"></path>
</g>
<path d="M243.828 182.525C243.34 181.677 233.731 170.192 228.946 165.698C225.861 162.815 221.21 160.826 218.298 159.778C218.298 159.778 170.157 142.75 166.813 141.085L145.194 162.753C152.718 164.804 203.825 176.859 216.433 179.565C218.637 182.085 220.856 184.151 220.856 184.151L224.492 192.584C224.749 194.694 224.802 196.823 224.649 198.943C224.389 202.235 227.112 200.955 227.112 200.955C227.038 202.617 227.054 204.282 227.16 205.942C227.164 205.973 227.164 206.004 227.16 206.035C227.341 208.239 230.575 208.509 231.26 206.405L233.747 198.805C233.747 198.805 233.424 205.742 233.29 209.596C233.258 210.193 233.369 210.79 233.613 211.338C233.837 211.782 234.195 212.147 234.639 212.383C235.083 212.62 235.59 212.716 236.092 212.658C236.594 212.601 237.065 212.393 237.441 212.063C237.818 211.732 238.08 211.296 238.193 210.814L241.097 198.789L240.232 191.405L242.671 198.134C243.124 200.994 243.303 203.89 243.207 206.783C243.151 208.802 243.852 209.665 244.702 209.966C245.046 210.073 245.411 210.1 245.767 210.047C246.124 209.994 246.464 209.862 246.76 209.66C247.057 209.458 247.302 209.193 247.477 208.884C247.653 208.574 247.753 208.23 247.771 207.877L248.66 196.762C248.66 196.762 244.324 183.365 243.828 182.525Z" fill="#FFBF9D"></path>
<path d="M163.712 140.245C164.916 140.338 166.103 140.579 167.246 140.962C170.038 141.749 172.786 142.68 175.478 143.753C178.626 144.978 181.459 146.165 183.505 147.013C184.639 147.414 185.735 147.911 186.779 148.501C185.588 148.295 184.426 147.953 183.316 147.483C181.215 146.751 178.358 145.641 175.21 144.4C172.062 143.159 169.198 142.088 167.096 141.425C165.938 141.12 164.807 140.726 163.712 140.245Z" fill="#3F3F41"></path>
</svg>
