<svg width="581" height="405" viewBox="0 0 581 405" fill="none" xmlns="http://www.w3.org/2000/svg">
<path d="M292.038 264.542L173.144 284.091C171.759 284.317 170.34 283.984 169.199 283.166C168.059 282.347 167.29 281.109 167.061 279.724L138.599 106.589C138.371 105.203 138.702 103.782 139.52 102.64C140.339 101.498 141.578 100.727 142.964 100.498L261.858 80.9492C263.243 80.7229 264.662 81.0557 265.803 81.8746C266.943 82.6934 267.712 83.9313 267.941 85.3166L296.4 258.442C296.515 259.129 296.493 259.832 296.336 260.511C296.178 261.189 295.889 261.83 295.483 262.396C295.078 262.963 294.565 263.444 293.974 263.812C293.383 264.18 292.725 264.428 292.038 264.542Z" fill="#E0E0E0"></path>
<path d="M292.037 264.542L292.43 264.436C292.82 264.34 293.197 264.2 293.555 264.018C294.258 263.66 294.873 263.148 295.353 262.522C295.834 261.895 296.168 261.169 296.332 260.397C296.447 259.857 296.471 259.303 296.403 258.755C296.339 258.181 296.221 257.576 296.125 256.947C295.91 255.678 295.683 254.295 295.433 252.794C294.933 249.79 294.362 246.321 293.71 242.417C291.142 226.808 287.414 204.23 282.802 176.313C280.507 162.361 278.001 147.12 275.279 130.674C273.929 122.465 272.533 113.989 271.092 105.243C270.376 100.875 269.648 96.4411 268.908 91.9418C268.532 89.7028 268.158 87.4364 267.782 85.1617C267.558 84.0418 266.971 83.0271 266.112 82.2744C265.241 81.5273 264.15 81.086 263.005 81.0181C262.417 80.9995 261.829 81.0517 261.254 81.1736L259.536 81.4545L256.051 82.0298L249.002 83.1923L234.673 85.5527L205.12 90.4145L142.964 100.633C141.654 100.854 140.476 101.564 139.668 102.618C138.872 103.679 138.512 105.004 138.661 106.322C139.071 108.955 139.521 111.604 139.947 114.233C140.806 119.49 141.664 124.71 142.521 129.895C144.225 140.268 145.903 150.477 147.555 160.523C150.856 180.606 154.05 200.019 157.073 218.429C160.097 236.839 162.978 254.417 165.667 270.81C166.01 272.86 166.341 274.896 166.675 276.913C166.845 277.917 166.99 278.927 167.175 279.917C167.379 280.891 167.858 281.786 168.556 282.496C169.249 283.195 170.123 283.688 171.08 283.918C171.555 284.023 172.043 284.064 172.529 284.04C173.012 284.001 173.5 283.915 173.981 283.839L179.75 282.885L201.694 279.336L267.818 268.503L285.795 265.569L290.47 264.818C291.518 264.645 292.062 264.571 292.062 264.571L290.469 264.845L285.8 265.621L267.835 268.597L201.733 279.514L179.832 283.124L174.061 284.069C173.581 284.153 173.093 284.239 172.586 284.285C172.08 284.305 171.574 284.259 171.08 284.151C170.083 283.915 169.173 283.404 168.452 282.676C167.727 281.942 167.232 281.013 167.027 280.001C166.838 278.994 166.687 277.995 166.515 276.983C166.182 274.975 165.852 272.938 165.509 270.888C162.807 254.481 159.92 236.949 156.856 218.523C153.793 200.097 150.631 180.702 147.332 160.627C145.68 150.581 143.998 140.37 142.288 129.993C141.436 124.807 140.578 119.586 139.714 114.332C139.285 111.695 138.833 109.072 138.425 106.412C138.264 105.027 138.643 103.633 139.484 102.521C140.325 101.409 141.563 100.664 142.94 100.442L205.107 90.1669L234.663 85.3134L248.992 82.9531L256.034 81.8012L259.528 81.2236L261.246 80.9426C261.823 80.8257 262.411 80.7763 262.999 80.7955C264.198 80.8726 265.338 81.3421 266.244 82.1314C267.131 82.9258 267.731 83.9906 267.952 85.1609C268.328 87.4356 268.711 89.6998 269.081 91.9494C269.819 96.4431 270.546 100.877 271.264 105.25C272.704 113.991 274.096 122.465 275.441 130.675C278.126 147.087 280.635 162.371 282.93 176.324C287.496 204.235 291.201 226.828 293.763 242.448C294.396 246.348 294.967 249.817 295.456 252.814C295.698 254.318 295.927 255.709 296.131 256.972C296.23 257.609 296.348 258.214 296.414 258.797C296.473 259.347 296.443 259.903 296.326 260.443C296.131 261.349 295.705 262.189 295.088 262.882C294.643 263.374 294.111 263.781 293.518 264.082C293.155 264.258 292.774 264.396 292.383 264.494L292.037 264.542Z" fill="#263238"></path>
<g opacity="0.3">
<path d="M179.436 278.371L287.802 259.949L285.591 238.784L280.192 226.695L175.586 261.124L179.436 278.371Z" fill="black"></path>
</g>
<path d="M292.037 264.542L292.43 264.436C292.82 264.34 293.197 264.2 293.555 264.018C294.258 263.66 294.873 263.148 295.353 262.522C295.834 261.895 296.168 261.169 296.332 260.397C296.447 259.857 296.471 259.303 296.403 258.755C296.339 258.181 296.221 257.576 296.125 256.947C295.91 255.678 295.683 254.295 295.433 252.794C294.933 249.79 294.362 246.321 293.71 242.417C291.142 226.808 287.414 204.23 282.802 176.313C280.507 162.361 278.001 147.12 275.279 130.674C273.929 122.465 272.533 113.989 271.092 105.243C270.376 100.875 269.648 96.4411 268.908 91.9418C268.532 89.7028 268.158 87.4364 267.782 85.1617C267.558 84.0418 266.971 83.0271 266.112 82.2744C265.241 81.5273 264.15 81.086 263.005 81.0181C262.417 80.9995 261.829 81.0517 261.254 81.1736L259.536 81.4545L256.051 82.0298L249.002 83.1923L234.673 85.5527L205.12 90.4145L142.964 100.633C141.654 100.854 140.476 101.564 139.668 102.618C138.872 103.679 138.512 105.004 138.661 106.322C139.071 108.955 139.521 111.604 139.947 114.233C140.806 119.49 141.664 124.71 142.521 129.895C144.225 140.268 145.903 150.477 147.555 160.523C150.856 180.606 154.05 200.019 157.073 218.429C160.097 236.839 162.978 254.417 165.667 270.81C166.01 272.86 166.341 274.896 166.675 276.913C166.845 277.917 166.99 278.927 167.175 279.917C167.379 280.891 167.858 281.786 168.556 282.496C169.249 283.195 170.123 283.688 171.08 283.918C171.555 284.023 172.043 284.064 172.529 284.04C173.012 284.001 173.5 283.915 173.981 283.839L179.75 282.885L201.694 279.336L267.818 268.503L285.795 265.569L290.47 264.818C291.518 264.645 292.062 264.571 292.062 264.571L290.469 264.845L285.8 265.621L267.835 268.597L201.733 279.514L179.832 283.124L174.061 284.069C173.581 284.153 173.093 284.239 172.586 284.285C172.08 284.305 171.574 284.259 171.08 284.151C170.083 283.915 169.173 283.404 168.452 282.676C167.727 281.942 167.232 281.013 167.027 280.001C166.838 278.994 166.687 277.995 166.515 276.983C166.182 274.975 165.852 272.938 165.509 270.888C162.807 254.481 159.92 236.949 156.856 218.523C153.793 200.097 150.631 180.702 147.332 160.627C145.68 150.581 143.998 140.37 142.288 129.993C141.436 124.807 140.578 119.586 139.714 114.332C139.285 111.695 138.833 109.072 138.425 106.412C138.264 105.027 138.643 103.633 139.484 102.521C140.325 101.409 141.563 100.664 142.94 100.442L205.107 90.1669L234.663 85.3134L248.992 82.9531L256.034 81.8012L259.528 81.2236L261.246 80.9426C261.823 80.8257 262.411 80.7763 262.999 80.7955C264.198 80.8726 265.338 81.3421 266.244 82.1314C267.131 82.9258 267.731 83.9906 267.952 85.1609C268.328 87.4356 268.711 89.6998 269.081 91.9494C269.819 96.4431 270.546 100.877 271.264 105.25C272.704 113.991 274.096 122.465 275.441 130.675C278.126 147.087 280.635 162.371 282.93 176.324C287.496 204.235 291.201 226.828 293.763 242.448C294.396 246.348 294.967 249.817 295.456 252.814C295.698 254.318 295.927 255.709 296.131 256.972C296.23 257.609 296.348 258.214 296.414 258.797C296.473 259.347 296.443 259.903 296.326 260.443C296.131 261.349 295.705 262.189 295.088 262.882C294.643 263.374 294.111 263.781 293.518 264.082C293.155 264.258 292.774 264.396 292.383 264.494L292.037 264.542Z" fill="#263238"></path>
<g opacity="0.3">
<path d="M179.436 278.371L287.802 259.949L285.591 238.784L280.192 226.695L175.586 261.124L179.436 278.371Z" fill="black"></path>
</g>
<path d="M145.474 107.676L173.026 275.195L289.271 256.076L261.719 88.5571L145.474 107.676Z" fill="white"></path>
<path d="M289.297 256.087C289.135 255.118 277.958 187.409 261.643 88.5815L261.767 88.6739L145.571 107.787L145.668 107.645C156.008 170.557 165.558 228.715 173.191 275.167L173.08 275.09L289.297 256.087L173.063 275.291L172.971 275.316L172.946 275.224C165.296 228.74 155.729 170.623 145.381 107.712L145.35 107.595L145.508 107.553L261.723 88.4436L261.823 88.4168L261.852 88.5255C278.068 187.416 289.127 255.12 289.297 256.087Z" fill="#263238"></path>
<path d="M235.551 110.026L182.201 118.801C180.832 119.026 179.905 120.318 180.13 121.686L180.201 122.113C180.426 123.482 181.718 124.409 183.086 124.184L236.436 115.409C237.805 115.184 238.732 113.892 238.507 112.523L238.436 112.096C238.211 110.728 236.92 109.801 235.551 110.026Z" fill="#004777"></path>
<path d="M253.358 128.072L190.626 138.39C189.47 138.58 188.687 139.672 188.877 140.828L188.938 141.195C189.128 142.351 190.219 143.134 191.375 142.944L254.107 132.626C255.264 132.436 256.047 131.345 255.856 130.189L255.796 129.821C255.606 128.665 254.514 127.882 253.358 128.072Z" fill="#E0E0E0"></path>
<path d="M222.077 141.516L191.958 146.469C190.802 146.659 190.019 147.751 190.209 148.907L190.27 149.274C190.46 150.43 191.551 151.213 192.707 151.023L222.826 146.07C223.982 145.879 224.765 144.788 224.575 143.632L224.514 143.265C224.324 142.108 223.233 141.325 222.077 141.516Z" fill="#E0E0E0"></path>
<path d="M260.752 156.08L197.698 166.394C196.536 166.584 195.748 167.68 195.938 168.842L195.999 169.211C196.189 170.373 197.285 171.161 198.447 170.971L261.501 160.658C262.663 160.468 263.451 159.371 263.261 158.209L263.2 157.84C263.01 156.678 261.914 155.89 260.752 156.08Z" fill="#E0E0E0"></path>
<path d="M226.484 168.307L196.366 173.261C195.21 173.451 194.427 174.542 194.617 175.698L194.677 176.066C194.867 177.222 195.959 178.005 197.115 177.815L227.233 172.861C228.39 172.671 229.173 171.58 228.983 170.423L228.922 170.056C228.732 168.9 227.641 168.117 226.484 168.307Z" fill="#E0E0E0"></path>
<path d="M262.17 181.637L199.438 191.955C198.281 192.145 197.498 193.236 197.689 194.393L197.749 194.76C197.939 195.916 199.031 196.699 200.187 196.509L262.919 186.191C264.075 186.001 264.858 184.91 264.668 183.754L264.607 183.386C264.417 182.23 263.326 181.447 262.17 181.637Z" fill="#E0E0E0"></path>
<path d="M230.881 195.091L200.762 200.045C199.606 200.235 198.823 201.326 199.013 202.483L199.074 202.85C199.264 204.006 200.355 204.789 201.511 204.599L231.63 199.645C232.786 199.455 233.569 198.364 233.379 197.208L233.318 196.84C233.128 195.684 232.037 194.901 230.881 195.091Z" fill="#E0E0E0"></path>
<path d="M266.572 208.412L203.84 218.73C202.684 218.92 201.901 220.011 202.091 221.167L202.151 221.535C202.342 222.691 203.433 223.474 204.589 223.284L267.321 212.966C268.477 212.776 269.26 211.684 269.07 210.528L269.01 210.161C268.82 209.005 267.728 208.222 266.572 208.412Z" fill="#E0E0E0"></path>
<path d="M235.296 221.872L205.177 226.826C204.021 227.016 203.238 228.107 203.428 229.263L203.489 229.631C203.679 230.787 204.77 231.57 205.926 231.38L236.045 226.426C237.201 226.236 237.984 225.144 237.794 223.988L237.733 223.621C237.543 222.465 236.452 221.682 235.296 221.872Z" fill="#E0E0E0"></path>
<path d="M269.038 232.029L206.306 242.347C205.149 242.537 204.366 243.629 204.557 244.785L204.617 245.152C204.807 246.308 205.898 247.091 207.055 246.901L269.787 236.584C270.943 236.393 271.726 235.302 271.536 234.146L271.475 233.779C271.285 232.622 270.194 231.839 269.038 232.029Z" fill="#E0E0E0"></path>
<path d="M177.54 90.0984L231.429 81.2351C232.188 81.1103 232.966 81.2921 233.591 81.7406C234.216 82.1891 234.637 82.8675 234.762 83.6267L237.134 98.0494L177.521 107.854L175.149 93.4315C175.024 92.6723 175.206 91.8947 175.654 91.2696C176.103 90.6445 176.781 90.2232 177.54 90.0984Z" fill="#263238"></path>
<path d="M211.002 77.9378L195.831 80.4341L199.739 93.1474L211.168 91.2685L211.002 77.9378Z" fill="#263238"></path>
<path d="M230.456 81.4208C230.474 81.4877 218.854 83.4538 204.508 85.8187C190.162 88.1836 178.519 90.0304 178.509 89.9612C178.5 89.8921 190.12 87.9259 204.468 85.5694C218.816 83.2129 230.447 81.3516 230.456 81.4208Z" fill="#455A64"></path>
<path d="M178.398 104.872C178.331 104.89 177.874 102.448 177.378 99.4257C176.882 96.4032 176.532 93.9599 176.601 93.9504C176.67 93.9408 177.133 96.3716 177.627 99.3858C178.121 102.4 178.467 104.862 178.398 104.872Z" fill="#455A64"></path>
<path d="M234.529 94.3141C234.133 92.6847 233.82 91.0362 233.591 89.375C233.144 86.6352 232.833 84.4055 232.902 84.396C233.298 86.0254 233.612 87.6739 233.84 89.3351C234.287 92.0749 234.598 94.3045 234.529 94.3141Z" fill="#455A64"></path>
<path d="M232.037 97.0884C232.055 97.1553 220.116 99.1709 205.391 101.593C190.665 104.014 178.759 105.914 178.741 105.847C178.723 105.78 190.659 103.756 205.384 101.334C220.11 98.9127 232.027 97.0193 232.037 97.0884Z" fill="#455A64"></path>
<g opacity="0.3">
<path d="M235.101 85.7431L238.771 92.6485L239.362 96.2282L236.581 96.6867L235.101 85.7431Z" fill="black"></path>
</g>
<path d="M175.673 138.674L166.633 140.16C164.934 140.44 163.783 142.043 164.063 143.742L165.55 152.782C165.829 154.481 167.433 155.631 169.132 155.352L178.171 153.865C179.87 153.586 181.021 151.982 180.741 150.283L179.255 141.244C178.975 139.545 177.371 138.394 175.673 138.674Z" fill="#004777"></path>
<path d="M167.178 148.111L168.459 146.333L171.845 148.465L175.959 142.71L177.626 144.011L172.107 151.452L167.178 148.111Z" fill="white"></path>
<path d="M179.53 165.712L170.49 167.198C168.792 167.478 167.641 169.081 167.92 170.78L169.407 179.82C169.687 181.519 171.29 182.67 172.989 182.39L182.029 180.903C183.728 180.624 184.878 179.02 184.599 177.322L183.112 168.282C182.833 166.583 181.229 165.432 179.53 165.712Z" fill="#004777"></path>
<path d="M171.043 175.143L172.323 173.366L175.701 175.5L179.815 169.745L181.49 171.044L175.963 178.486L171.043 175.143Z" fill="white"></path>
<path d="M183.688 192.414L174.648 193.901C172.949 194.18 171.798 195.784 172.078 197.483L173.565 206.523C173.844 208.221 175.448 209.372 177.147 209.093L186.186 207.606C187.885 207.326 189.036 205.723 188.756 204.024L187.27 194.984C186.99 193.285 185.386 192.135 183.688 192.414Z" fill="#004777"></path>
<path d="M175.197 201.856L176.476 200.07L179.856 202.213L183.968 196.449L185.643 197.748L180.126 205.197L175.197 201.856Z" fill="white"></path>
<path d="M190.745 234.023C190.745 234.023 190.938 233.972 191.286 233.833C191.782 233.634 192.221 233.313 192.56 232.9C192.823 232.575 193.016 232.2 193.127 231.797C193.238 231.394 193.265 230.972 193.206 230.558C193.033 229.547 192.838 228.416 192.621 227.174C192.405 225.932 192.168 224.543 191.918 223.077L191.725 221.955C191.668 221.579 191.57 221.212 191.431 220.859C191.29 220.503 191.08 220.178 190.812 219.903C190.545 219.629 190.226 219.41 189.873 219.259C189.507 219.103 189.114 219.023 188.716 219.023C188.291 219.049 187.869 219.105 187.452 219.191L184.801 219.632L179.212 220.556C178.772 220.629 178.355 220.803 177.992 221.063C177.63 221.323 177.332 221.664 177.122 222.057C176.92 222.446 176.805 222.875 176.786 223.313C176.801 223.759 176.854 224.204 176.945 224.642C177.24 226.445 177.517 228.182 177.793 229.847C177.925 230.672 178.052 231.481 178.174 232.273C178.222 232.652 178.299 233.027 178.403 233.395C178.515 233.734 178.691 234.049 178.921 234.323C179.357 234.852 179.964 235.213 180.637 235.342C181.28 235.411 181.929 235.368 182.557 235.213L188.509 234.309L190.133 234.08C190.321 234.043 190.512 234.028 190.704 234.034C190.525 234.102 190.34 234.152 190.152 234.182L188.539 234.489L182.609 235.54L181.647 235.699C181.293 235.752 180.932 235.749 180.578 235.69C179.818 235.559 179.13 235.162 178.637 234.569C178.375 234.262 178.171 233.91 178.036 233.529C177.923 233.14 177.841 232.742 177.789 232.34C177.657 231.557 177.521 230.751 177.383 229.921C177.11 228.255 176.818 226.52 176.508 224.714C176.414 224.25 176.36 223.779 176.345 223.305C176.366 222.801 176.497 222.307 176.728 221.858C176.969 221.402 177.312 221.008 177.731 220.706C178.149 220.404 178.631 220.203 179.14 220.118L184.73 219.203L187.387 218.778C187.824 218.689 188.268 218.633 188.713 218.611C189.17 218.608 189.622 218.7 190.041 218.883C190.849 219.239 191.484 219.9 191.807 220.722C191.934 221.107 192.022 221.504 192.071 221.907C192.172 222.283 192.184 222.665 192.247 223.034C192.48 224.504 192.696 225.881 192.892 227.146C193.087 228.411 193.262 229.53 193.415 230.538C193.473 230.983 193.436 231.435 193.305 231.864C193.174 232.294 192.953 232.69 192.657 233.027C192.289 233.451 191.813 233.768 191.28 233.943C191.107 233.997 190.927 234.025 190.745 234.023Z" fill="#263238"></path>
<path d="M194.898 259.257C194.898 259.257 195.09 259.206 195.43 259.07C196.074 258.822 196.616 258.362 196.966 257.767C197.316 257.172 197.454 256.476 197.358 255.792C197.179 254.791 196.984 253.66 196.765 252.41C196.547 251.16 196.322 249.786 196.071 248.311L195.877 247.189C195.817 246.814 195.719 246.447 195.584 246.093C195.293 245.375 194.73 244.8 194.017 244.496C193.652 244.338 193.258 244.257 192.86 244.259C192.439 244.288 192.019 244.344 191.605 244.425L188.945 244.869L183.365 245.79C182.924 245.863 182.506 246.038 182.143 246.3C181.781 246.562 181.485 246.904 181.277 247.3C181.067 247.683 180.951 248.11 180.939 248.547C180.949 248.994 181.002 249.439 181.098 249.876C181.384 251.682 181.672 253.424 181.937 255.083C182.078 255.942 182.198 256.726 182.327 257.507C182.372 257.887 182.446 258.263 182.547 258.631C182.662 258.969 182.838 259.284 183.065 259.559C183.502 260.091 184.113 260.451 184.79 260.576C185.432 260.65 186.082 260.606 186.709 260.447L192.661 259.543L194.288 259.322C194.476 259.292 194.666 259.274 194.856 259.269C194.679 259.342 194.494 259.391 194.304 259.416L192.692 259.723L186.761 260.774L185.8 260.933C185.445 260.992 185.083 260.989 184.73 260.924C184.152 260.824 183.611 260.571 183.164 260.191C182.717 259.811 182.38 259.318 182.188 258.763C182.074 258.378 181.989 257.984 181.935 257.585C181.804 256.795 181.669 255.989 181.527 255.158C181.253 253.501 180.957 251.725 180.662 249.957C180.559 249.491 180.504 249.016 180.498 248.54C180.511 248.034 180.643 247.538 180.881 247.092C181.123 246.637 181.466 246.243 181.884 245.942C182.302 245.64 182.784 245.439 183.292 245.352L188.874 244.439L191.539 244.012C191.977 243.924 192.42 243.868 192.866 243.845C193.32 243.846 193.768 243.939 194.185 244.119C194.594 244.279 194.967 244.518 195.282 244.823C195.598 245.127 195.85 245.492 196.024 245.894C196.155 246.278 196.243 246.676 196.287 247.079C196.388 247.455 196.409 247.835 196.472 248.204C196.699 249.685 196.915 251.061 197.117 252.316C197.318 253.571 197.478 254.702 197.645 255.76C197.702 256.204 197.663 256.655 197.532 257.082C197.401 257.51 197.18 257.905 196.884 258.241C196.518 258.666 196.041 258.983 195.507 259.157C195.312 259.229 195.106 259.263 194.898 259.257Z" fill="#263238"></path>
<path d="M213.061 312.071H118.036C112.522 312.071 108.052 316.541 108.052 322.055V349.392C108.052 354.905 112.522 359.375 118.036 359.375H213.061C218.575 359.375 223.045 354.905 223.045 349.392V322.055C223.045 316.541 218.575 312.071 213.061 312.071Z" fill="white"></path>
<path d="M213.062 359.376C214.1 359.325 215.127 359.145 216.119 358.839C217.53 358.369 218.818 357.59 219.888 356.557C220.957 355.525 221.782 354.266 222.302 352.873C222.662 351.922 222.864 350.919 222.899 349.903C222.951 348.837 222.899 347.694 222.899 346.517C222.899 344.153 222.899 341.581 222.899 338.819C222.899 336.057 222.899 333.095 222.899 329.969C222.899 328.402 222.899 326.792 222.899 325.138C222.966 323.455 222.9 321.77 222.7 320.098C222.332 318.344 221.492 316.724 220.271 315.412C219.051 314.1 217.495 313.145 215.773 312.651C213.989 312.106 212.032 312.314 210.058 312.279H203.996H177.889H118.064C116.783 312.278 115.515 312.53 114.332 313.02C113.149 313.51 112.074 314.229 111.17 315.136C110.266 316.043 109.549 317.119 109.062 318.304C108.575 319.488 108.327 320.757 108.331 322.038V337.304C108.331 339.809 108.331 342.288 108.331 344.742V348.405C108.272 349.594 108.394 350.785 108.695 351.937C109.322 354.195 110.739 356.152 112.687 357.453C113.637 358.091 114.697 358.549 115.813 358.804C116.927 359.044 118.068 359.138 119.207 359.081L168.07 359.142L200.974 359.22L209.928 359.272L200.974 359.324L168.07 359.41L119.207 359.462C118.045 359.513 116.881 359.417 115.743 359.176C114.57 358.91 113.455 358.432 112.453 357.765C110.403 356.397 108.913 354.338 108.253 351.963C107.942 350.769 107.813 349.534 107.872 348.301V344.638C107.872 342.179 107.872 339.699 107.872 337.2V322.09C107.869 320.741 108.131 319.404 108.645 318.157C109.159 316.91 109.913 315.776 110.865 314.82C111.818 313.865 112.949 313.107 114.194 312.589C115.44 312.071 116.776 311.804 118.125 311.803H177.95H204.057H213.019C213.997 311.8 214.971 311.934 215.911 312.201C217.707 312.72 219.327 313.721 220.595 315.095C221.864 316.468 222.732 318.163 223.107 319.994C223.258 320.851 223.325 321.722 223.306 322.592C223.306 323.458 223.306 324.28 223.306 325.112C223.306 326.766 223.306 328.376 223.306 329.943C223.306 333.069 223.306 336.005 223.306 338.793C223.306 341.581 223.306 344.127 223.306 346.491C223.306 347.677 223.306 348.803 223.306 349.894C223.257 350.929 223.04 351.95 222.665 352.916C222.113 354.355 221.236 355.647 220.102 356.691C218.968 357.735 217.607 358.502 216.128 358.934C215.38 359.157 214.611 359.299 213.833 359.358C213.331 359.384 213.062 359.376 213.062 359.376Z" fill="#E0E0E0"></path>
<path d="M203.14 338.819H150.493C149.556 338.819 148.657 338.447 147.994 337.784C147.332 337.122 146.96 336.223 146.96 335.286C146.96 334.348 147.332 333.449 147.994 332.785C148.656 332.121 149.555 331.747 150.493 331.745H203.14C204.079 331.745 204.98 332.118 205.644 332.782C206.308 333.446 206.681 334.347 206.681 335.286C206.679 336.224 206.305 337.123 205.641 337.785C204.977 338.447 204.077 338.819 203.14 338.819Z" fill="#E0E0E0"></path>
<path d="M136.075 327.536H128.593C126.135 327.536 124.143 329.529 124.143 331.987V339.468C124.143 341.927 126.135 343.919 128.593 343.919H136.075C138.533 343.919 140.526 341.927 140.526 339.468V331.987C140.526 329.529 138.533 327.536 136.075 327.536Z" fill="#E0E0E0"></path>
<path d="M126.67 335.961L128.324 334.308L131.502 337.139L136.819 331.805L138.351 333.45L131.268 340.317L126.67 335.961Z" fill="white"></path>
<path d="M547.759 50.3153L547.008 50.4878C545.619 50.807 544.751 52.1916 545.071 53.5805L546.738 60.8382C547.057 62.2271 548.442 63.0944 549.831 62.7753L550.582 62.6027C551.971 62.2836 552.838 60.8989 552.519 59.51L550.851 52.2523C550.532 50.8634 549.148 49.9961 547.759 50.3153Z" fill="#EBEBEB"></path>
<path d="M536.823 108.375C536.693 108.323 537.446 106.479 537.689 104.046C537.931 101.613 537.689 99.7162 537.827 99.6469C538.59 102.561 538.219 105.655 536.788 108.306L536.823 108.375Z" fill="white"></path>
<path d="M63.2255 135.625C64.9877 134.565 66.8834 133.744 68.8625 133.183L70.0228 127.607L79.4352 127.443L80.7947 132.967C82.7877 133.463 84.7064 134.22 86.501 135.218L91.2635 132.101L98.0435 138.639L95.0908 143.505C96.1506 145.269 96.9745 147.164 97.5413 149.142L103.109 150.302L103.274 159.715L97.7491 161.074C97.2572 163.069 96.5 164.988 95.4978 166.781L98.615 171.543L92.0775 178.323L87.2111 175.362C85.4495 176.42 83.5574 177.244 81.5827 177.812L80.4224 183.38L71.0013 183.545L69.6505 178.02C67.6535 177.528 65.7314 176.771 63.9355 175.769L59.173 178.886L52.4017 172.348L55.3457 167.482C54.2867 165.722 53.4656 163.829 52.9039 161.854L47.3275 160.693L47.1629 151.272L52.6874 149.921C53.1833 147.926 53.9402 146.004 54.9388 144.206L51.8215 139.444L58.3591 132.673L63.2255 135.617V135.625ZM68.2477 148.172C66.8594 149.61 65.9286 151.427 65.5731 153.394C65.2175 155.361 65.4532 157.389 66.2504 159.222C67.0475 161.055 68.3702 162.61 70.0513 163.691C71.7323 164.772 73.6962 165.33 75.6946 165.295C77.693 165.26 79.636 164.633 81.2781 163.494C82.9201 162.354 84.1874 160.753 84.9196 158.894C85.6518 157.034 85.8161 154.999 85.3917 153.046C84.9672 151.093 83.9732 149.309 82.5352 147.921C81.5811 146.999 80.4544 146.273 79.2197 145.786C77.985 145.3 76.6664 145.061 75.3394 145.084C74.0124 145.108 72.703 145.393 71.4861 145.922C70.2693 146.452 69.1688 147.217 68.2477 148.172Z" fill="#E0E0E0"></path>
<path d="M194.57 6.53758C195.978 5.69007 197.492 5.03209 199.072 4.58065L199.999 0.129881L207.515 0L208.597 4.41612C210.191 4.80885 211.726 5.41158 213.161 6.20853L216.962 3.72338L222.383 8.91882L220.019 12.8241C220.872 14.2264 221.53 15.7383 221.976 17.3181L226.426 18.2446L226.565 25.7694L222.14 26.8517C221.755 28.448 221.152 29.9835 220.348 31.4151L222.842 35.2164L217.646 40.6283L213.767 38.273C212.359 39.1211 210.845 39.7791 209.264 40.23L208.338 44.6807L200.813 44.8106L199.73 40.3945C198.137 40.0003 196.603 39.3976 195.167 38.6021L191.366 41.0959L185.954 35.9004L188.309 32.0125C187.462 30.608 186.807 29.0966 186.361 27.5185L181.901 26.592L181.772 19.0672L186.188 17.9849C186.581 16.39 187.187 14.8552 187.989 13.4215L185.495 9.6202L190.69 4.20829L194.578 6.56355L194.57 6.53758ZM198.579 16.5561C197.47 17.7043 196.727 19.1555 196.443 20.7261C196.159 22.2968 196.347 23.9163 196.984 25.3799C197.62 26.8436 198.677 28.0856 200.019 28.949C201.361 29.8124 202.93 30.2584 204.526 30.2305C206.121 30.2027 207.673 29.7023 208.984 28.7926C210.296 27.8829 211.308 26.6047 211.893 25.1197C212.478 23.6348 212.61 22.0097 212.271 20.4499C211.933 18.8902 211.139 17.4658 209.991 16.3569C208.451 14.8719 206.384 14.0588 204.244 14.0961C202.104 14.1334 200.067 15.0182 198.579 16.5561Z" fill="#EBEBEB"></path>
<path d="M511.687 321.432C513.721 320.201 515.912 319.248 518.199 318.6L519.541 312.175L530.443 311.985L532.01 318.384C534.322 318.949 536.547 319.822 538.626 320.981L544.133 317.37L551.969 324.939L548.558 330.567C549.789 332.604 550.741 334.797 551.389 337.087L557.84 338.429L558.031 349.322L551.632 350.89C551.067 353.201 550.193 355.427 549.034 357.505L552.645 363.012L545.077 370.857L539.448 367.437C537.412 368.67 535.219 369.622 532.928 370.269L531.586 376.72L520.693 376.91L519.125 370.511C516.815 369.942 514.59 369.069 512.51 367.913L507.003 371.524L499.21 363.948L502.621 358.319C501.39 356.285 500.438 354.095 499.79 351.808L493.339 350.465L493.148 339.564L499.547 337.996C500.114 335.688 500.988 333.466 502.145 331.39L498.534 325.874L506.102 318.037L511.739 321.449L511.687 321.432ZM517.463 335.953C515.858 337.617 514.782 339.719 514.371 341.994C513.961 344.269 514.234 346.615 515.157 348.735C516.08 350.855 517.61 352.654 519.555 353.904C521.5 355.154 523.772 355.799 526.083 355.758C528.395 355.716 530.642 354.991 532.542 353.672C534.441 352.354 535.906 350.502 536.753 348.35C537.6 346.199 537.789 343.845 537.298 341.586C536.807 339.327 535.657 337.264 533.993 335.658C532.888 334.592 531.585 333.754 530.156 333.192C528.727 332.63 527.202 332.354 525.667 332.382C524.132 332.409 522.617 332.739 521.21 333.351C519.802 333.964 518.529 334.848 517.463 335.953Z" fill="#F5F5F5"></path>
<path d="M580.671 404.775C580.671 404.896 456.232 405 302.768 405C149.303 405 24.8118 404.896 24.8118 404.775C24.8118 404.654 149.225 404.55 302.768 404.55C456.31 404.55 580.671 404.645 580.671 404.775Z" fill="#263238"></path>
<path d="M308.126 32.5433L304.987 35.0233L308.857 39.9221L311.996 37.4421L308.126 32.5433Z" fill="#263238"></path>
<path d="M310.957 32.6603L304.489 37.7605L300.324 32.4872C301.985 30.2403 304.214 28.4768 306.784 27.3783L310.957 32.6603Z" fill="#455A64"></path>
<path d="M305.571 36.912C304.671 36.1528 303.873 35.2795 303.198 34.3143C302.405 33.4443 301.732 32.4715 301.198 31.4222C302.101 32.1788 302.899 33.0524 303.571 34.0199C304.367 34.8872 305.041 35.8604 305.571 36.912Z" fill="#263238"></path>
<path d="M306.81 35.9335C305.911 35.1316 305.122 34.2144 304.463 33.2059C303.693 32.2878 303.02 31.2924 302.454 30.2358C302.575 30.1233 303.658 31.3442 304.844 32.9201C305.63 33.8332 306.291 34.8465 306.81 35.9335Z" fill="#263238"></path>
<path d="M308.42 34.6431C307.52 33.8231 306.729 32.892 306.064 31.8722C305.299 30.939 304.637 29.9258 304.09 28.8502C304.211 28.7463 305.276 29.9845 306.471 31.5865C307.252 32.5156 307.907 33.5433 308.42 34.6431Z" fill="#263238"></path>
<path d="M309.945 33.4223C309.045 32.6674 308.253 31.7935 307.59 30.8246C306.798 29.9472 306.131 28.9653 305.607 27.9065C306.504 28.6631 307.297 29.5368 307.962 30.5042C308.749 31.3848 309.416 32.3661 309.945 33.4223Z" fill="#263238"></path>
<path d="M361.673 38.3589L359.031 35.3544L354.343 39.4765L356.984 42.481L361.673 38.3589Z" fill="#263238"></path>
<path d="M361.664 41.2156L356.227 35.033L361.24 30.5909C363.571 32.1303 365.449 34.2648 366.678 36.7735L361.664 41.2156Z" fill="#455A64"></path>
<path d="M357.136 36.0634C357.84 35.1228 358.667 34.2811 359.595 33.5609C360.421 32.7214 361.356 31.9962 362.375 31.4048C361.672 32.3494 360.845 33.1942 359.915 33.9159C359.09 34.7543 358.155 35.4767 357.136 36.0634Z" fill="#263238"></path>
<path d="M358.175 37.2409C358.932 36.3086 359.805 35.4764 360.773 34.7645C361.655 33.9481 362.615 33.2202 363.639 32.591C363.751 32.7209 362.6 33.8553 361.041 35.1281C360.184 35.9564 359.22 36.6669 358.175 37.2409Z" fill="#263238"></path>
<path d="M359.551 38.8169C360.319 37.8708 361.206 37.0295 362.192 36.3144C363.085 35.4931 364.063 34.7703 365.111 34.1583C365.214 34.2709 364.037 35.4052 362.513 36.6867C361.623 37.5228 360.627 38.2389 359.551 38.8169Z" fill="#263238"></path>
<path d="M360.842 40.2458C361.558 39.3065 362.396 38.4677 363.336 37.752C364.172 36.916 365.116 36.194 366.141 35.6046C365.425 36.5439 364.587 37.3827 363.647 38.0984C362.811 38.9344 361.867 39.6564 360.842 40.2458Z" fill="#263238"></path>
<path d="M336.75 23.4899L332.017 23.2932L331.711 30.673L336.443 30.8697L336.75 23.4899Z" fill="#263238"></path>
<path d="M339.194 25.8285L329.452 25.4215L329.781 17.4725C333.007 16.7365 336.37 16.8771 339.523 17.8794L339.194 25.8285Z" fill="#004777"></path>
<path d="M339.636 17.914C338.08 18.6654 336.364 19.025 334.637 18.9616C332.911 18.8982 331.226 18.4137 329.73 17.5503C332.918 18.6733 336.373 18.8001 339.636 17.914Z" fill="#263238"></path>
<path d="M332.665 25.5341C332.462 24.3908 332.427 23.2239 332.561 22.0705C332.531 20.9269 332.66 19.7846 332.942 18.6761C333.146 19.8194 333.181 20.9863 333.046 22.1397C333.071 23.2831 332.943 24.4247 332.665 25.5341Z" fill="#263238"></path>
<path d="M334.518 25.6641C334.328 24.5193 334.296 23.3539 334.423 22.2005C334.389 21.0339 334.517 19.8682 334.804 18.7368C335.004 19.8806 335.036 21.0474 334.899 22.2005C334.938 23.3673 334.81 24.5336 334.518 25.6641Z" fill="#263238"></path>
<path d="M336.38 25.7074C336.179 24.5637 336.147 23.3968 336.285 22.2438C336.249 21.0942 336.377 19.9455 336.666 18.8321C336.857 19.9767 336.889 21.1423 336.761 22.2957C336.79 23.445 336.662 24.5929 336.38 25.7074Z" fill="#263238"></path>
<path d="M337.921 25.7677C337.734 24.5412 337.705 23.2956 337.835 22.0616C337.809 20.8177 337.94 19.5754 338.225 18.3642C338.417 19.5932 338.446 20.8423 338.311 22.0789C338.336 23.32 338.206 24.5593 337.921 25.7677Z" fill="#263238"></path>
<path d="M330.933 25.4298C330.751 24.1997 330.725 22.9516 330.855 21.715C330.825 20.4738 330.956 19.2338 331.245 18.0263C331.433 19.2557 331.462 20.5042 331.332 21.741C331.362 22.9828 331.228 24.2231 330.933 25.4298Z" fill="#263238"></path>
<path d="M343.867 95.308C361.754 88.8437 371.013 69.1032 364.549 51.2164C358.085 33.3296 338.344 24.0699 320.457 30.5342C302.571 36.9986 293.311 56.7391 299.775 74.6258C306.239 92.5126 325.98 101.772 343.867 95.308Z" fill="#004777"></path>
<path d="M358.473 74.7438C365.155 60.2359 358.811 43.0581 344.303 36.376C329.795 29.6939 312.617 36.038 305.935 50.5458C299.253 65.0537 305.597 82.2316 320.105 88.9137C334.613 95.5958 351.791 89.2517 358.473 74.7438Z" fill="white"></path>
<path d="M361.075 63.8332C361.075 63.8332 361.075 63.6774 361.075 63.3656C361.075 63.0539 361.075 62.5777 361.075 61.9888C361.075 61.6887 361.075 61.351 361.075 60.9757C361.075 60.6034 360.988 60.2051 360.945 59.7635C360.854 58.7518 360.692 57.7477 360.46 56.7588C359.9 54.0296 358.928 51.4016 357.576 48.9656C355.812 45.7257 353.443 42.854 350.597 40.5057C347.155 37.6535 343.092 35.6486 338.734 34.6522C337.545 34.3812 336.338 34.1903 335.123 34.0807C334.509 34.0807 333.885 33.9508 333.253 33.9335H331.357C331.036 33.9335 330.716 33.9335 330.396 33.9335L329.426 34.0374C328.785 34.1153 328.136 34.1673 327.486 34.2712C324.832 34.7617 322.251 35.5881 319.806 36.7304C319.191 37.0334 318.593 37.3885 317.978 37.7175C317.36 38.0496 316.767 38.4258 316.203 38.8432C315.023 39.6314 313.897 40.4993 312.835 41.4409C311.782 42.4435 310.796 43.5138 309.882 44.6448C308.004 46.9694 306.51 49.58 305.457 52.3773C303.244 58.1642 302.98 64.5152 304.704 70.4661C305.521 73.3399 306.793 76.0645 308.471 78.5363C309.283 79.75 310.177 80.9072 311.146 81.9999C312.125 83.0358 313.173 84.0049 314.281 84.9007C314.81 85.3616 315.372 85.7841 315.961 86.1649C316.55 86.5459 317.113 86.9529 317.693 87.3079C318.875 87.9895 320.102 88.5912 321.364 89.109C322.594 89.616 323.855 90.0441 325.139 90.3906C325.78 90.5464 326.421 90.6503 327.062 90.7802L328.014 90.9707C328.326 91.0227 328.646 91.04 328.967 91.0746L330.863 91.2478C331.487 91.2911 332.11 91.2478 332.734 91.2478C333.953 91.2422 335.171 91.1525 336.379 90.9794C340.806 90.3488 345.024 88.6879 348.692 86.1303C351.721 84.0276 354.319 81.3646 356.347 78.2852C357.892 75.9676 359.08 73.4311 359.871 70.7605C360.178 69.7933 360.421 68.8069 360.598 67.8077C360.676 67.3748 360.78 66.9418 360.832 66.6128C360.884 66.2837 360.901 65.9114 360.936 65.6083C360.997 65.0195 361.049 64.5692 361.083 64.2402C361.118 63.9112 361.153 63.7726 361.153 63.7726C361.153 63.7726 361.153 63.9285 361.153 64.2402C361.153 64.5519 361.092 65.0282 361.049 65.617C361.049 65.9172 361.023 66.2549 360.971 66.6301C360.919 67.0024 360.832 67.4008 360.754 67.8337C360.598 68.8453 360.366 69.8439 360.061 70.8211C359.306 73.5213 358.137 76.0887 356.598 78.4324C354.354 81.8946 351.399 84.8397 347.93 87.0717C344.46 89.3037 340.555 90.7715 336.474 91.3777C335.249 91.5534 334.014 91.6459 332.777 91.6548C332.145 91.6548 331.513 91.6548 330.872 91.6548L328.95 91.4816C328.629 91.4816 328.3 91.4816 327.98 91.3777L327.018 91.1958C326.378 91.0573 325.72 90.9621 325.07 90.7975C323.764 90.4536 322.483 90.0225 321.234 89.5073C319.951 88.9826 318.704 88.3722 317.502 87.6803C316.896 87.3252 316.325 86.9183 315.727 86.5286C315.12 86.1431 314.541 85.7149 313.995 85.2471C312.867 84.3372 311.799 83.3537 310.8 82.303C309.819 81.2092 308.911 80.0521 308.081 78.8394C306.372 76.3291 305.076 73.5605 304.245 70.6393C302.492 64.5883 302.763 58.1305 305.016 52.2474C306.084 49.4067 307.604 46.7574 309.519 44.4023C310.445 43.2501 311.449 42.1623 312.523 41.1465C313.616 40.18 314.773 39.2889 315.987 38.4795C316.564 38.061 317.168 37.682 317.797 37.3452C318.42 37.0075 319.026 36.6438 319.658 36.3407C320.913 35.7506 322.206 35.2472 323.529 34.834C324.775 34.4366 326.045 34.1156 327.33 33.8729C327.988 33.769 328.646 33.717 329.305 33.6391L330.274 33.5352C330.603 33.5352 330.932 33.5352 331.253 33.5352H333.184C333.825 33.5352 334.448 33.6391 335.08 33.6911C336.31 33.8064 337.531 34.0031 338.734 34.2799C342.753 35.2211 346.525 37.0076 349.799 39.5205C353.073 42.0333 355.775 45.2147 357.724 48.8531C359.068 51.318 360.023 53.976 360.555 56.7328C360.779 57.7274 360.926 58.7377 360.997 59.7548C360.997 60.1964 361.092 60.6207 361.109 60.9757V61.9975C361.109 62.5863 361.109 63.0453 361.109 63.3743C361.109 63.7033 361.075 63.8332 361.075 63.8332Z" fill="#263238"></path>
<path d="M356.91 63.2094C354.269 63.1401 352.13 62.9236 352.13 62.7244C352.13 62.5253 354.278 62.3348 356.91 62.2915C359.542 62.2482 361.69 62.456 361.69 62.7677C361.69 63.0795 359.508 63.3133 356.91 63.2094Z" fill="#263238"></path>
<path d="M349.333 80.4064C347.506 78.5014 346.138 76.8475 346.277 76.709C346.415 76.5704 348.069 77.9299 349.983 79.757C351.897 81.584 353.256 83.2206 353.04 83.4544C352.823 83.6882 351.161 82.3114 349.333 80.4064Z" fill="#263238"></path>
<path d="M331.877 87.3335C331.877 84.6925 332.111 82.5537 332.301 82.5537C332.492 82.5537 332.717 84.6839 332.795 87.3249C332.873 89.9659 332.674 92.1047 332.362 92.1047C332.05 92.1047 331.799 89.9659 331.877 87.3335Z" fill="#263238"></path>
<path d="M314.593 79.9821C316.481 78.1291 318.117 76.7436 318.256 76.8822C318.394 77.0207 317.052 78.6919 315.251 80.6229C313.45 82.5539 311.788 83.9306 311.58 83.7142C311.372 83.4977 312.749 81.8265 314.593 79.9821Z" fill="#263238"></path>
<path d="M307.475 62.6033C310.116 62.6033 312.255 62.7765 312.255 62.9756C312.255 63.1748 310.125 63.4172 307.493 63.5211C304.86 63.6251 302.713 63.4519 302.704 63.1402C302.696 62.8284 304.834 62.586 307.475 62.6033Z" fill="#263238"></path>
<path d="M314.637 45.2418C316.507 47.1035 317.91 48.7055 317.771 48.87C317.633 49.0345 315.953 47.6837 314.005 45.8999C312.056 44.1162 310.654 42.4969 310.87 42.2718C311.086 42.0466 312.749 43.3975 314.637 45.2418Z" fill="#263238"></path>
<path d="M331.938 37.9254C331.938 40.5231 331.808 42.7052 331.609 42.7138C331.409 42.7225 331.15 40.5924 331.02 37.9513C330.89 35.3103 331.02 33.1802 331.349 33.1629C331.678 33.1456 331.92 35.293 331.938 37.9254Z" fill="#263238"></path>
<path d="M349.378 44.8955C347.533 46.7832 345.914 48.2119 345.784 48.0734C345.654 47.9348 346.944 46.2376 348.711 44.272C350.477 42.3064 352.079 40.8863 352.304 41.0942C352.53 41.302 351.222 43.0078 349.378 44.8955Z" fill="#263238"></path>
<path d="M340.873 47.6061C340.84 51.8499 340.533 56.0872 339.955 60.2916C339.808 61.8229 339.441 63.325 338.864 64.751C338.267 66.1842 337.137 67.3297 335.712 67.9462C334.997 68.2317 334.212 68.2893 333.463 68.111C332.714 67.9328 332.039 67.5274 331.53 66.9504L340.873 47.6061Z" fill="#E0E0E0"></path>
<path d="M331.643 60.3263L342.882 43.0775L335.712 62.7768L332.431 63.6081L331.643 60.3263Z" fill="#004777"></path>
<g opacity="0.4">
<path d="M342.882 43.0775L334.344 60.8199L335.713 62.7768L342.882 43.0775Z" fill="black"></path>
</g>
<path d="M335.817 63.7551C335.789 64.4243 335.563 65.0701 335.168 65.6109C334.773 66.1516 334.226 66.5631 333.597 66.7932C332.968 67.0232 332.285 67.0616 331.634 66.9034C330.984 66.7452 330.394 66.3975 329.941 65.9043C329.488 65.4112 329.191 64.7947 329.089 64.1329C328.986 63.4711 329.082 62.7937 329.364 62.1864C329.646 61.579 330.102 61.0691 330.675 60.721C331.247 60.3729 331.909 60.2024 332.579 60.2309C333.475 60.2691 334.32 60.6618 334.927 61.3227C335.535 61.9835 335.855 62.8584 335.817 63.7551Z" fill="#FAFAFA"></path>
<path d="M335.817 63.7552C335.817 63.7552 335.817 63.4521 335.652 62.9412C335.469 62.2297 335.059 61.5974 334.483 61.1402C334.066 60.8099 333.573 60.5881 333.049 60.4944C332.524 60.4007 331.985 60.4381 331.479 60.6033C330.865 60.8046 330.328 61.1885 329.939 61.7035C329.55 62.2184 329.327 62.84 329.301 63.4849C329.274 64.1299 329.446 64.7676 329.792 65.3126C330.137 65.8576 330.641 66.284 331.236 66.5347C331.727 66.7414 332.262 66.8235 332.792 66.7736C333.322 66.7238 333.832 66.5435 334.276 66.249C334.891 65.8318 335.35 65.2229 335.583 64.5172C335.756 64.015 335.774 63.7119 335.817 63.7206C335.871 64.0091 335.853 64.3065 335.765 64.5865C335.573 65.3608 335.113 66.042 334.466 66.5088C333.982 66.8605 333.417 67.0832 332.823 67.1559C332.229 67.2286 331.626 67.1489 331.072 66.9244C330.385 66.6468 329.8 66.1634 329.398 65.5406C328.996 64.9178 328.797 64.186 328.827 63.4454C328.858 62.7048 329.116 61.9918 329.568 61.4039C330.019 60.8161 330.641 60.3822 331.349 60.1617C331.921 59.9866 332.529 59.9591 333.115 60.0817C333.7 60.2044 334.246 60.4731 334.7 60.8631C335.307 61.3822 335.709 62.1005 335.834 62.8893C335.902 63.1747 335.896 63.4727 335.817 63.7552Z" fill="#263238"></path>
<path d="M334.951 63.7205C334.935 64.2199 334.771 64.7033 334.479 65.1093C334.188 65.5152 333.782 65.8254 333.314 66.0004C332.846 66.1753 332.337 66.2072 331.851 66.0919C331.364 65.9766 330.923 65.7193 330.584 65.3528C330.244 64.9863 330.021 64.5271 329.943 64.0335C329.865 63.5399 329.936 63.0343 330.146 62.5809C330.356 62.1275 330.696 61.7468 331.123 61.4872C331.55 61.2275 332.044 61.1007 332.543 61.1228C333.206 61.152 333.83 61.4411 334.28 61.9274C334.731 62.4136 334.972 63.0579 334.951 63.7205Z" fill="#455A64"></path>
<g opacity="0.3">
<path d="M151.236 304.581C159.15 301.369 162.962 292.349 159.75 284.435C156.538 276.521 147.519 272.709 139.604 275.921C131.69 279.133 127.878 288.153 131.09 296.067C134.302 303.981 143.322 307.793 151.236 304.581Z" fill="black"></path>
</g>
<path d="M156.114 298.374C162.153 292.335 162.153 282.543 156.114 276.504C150.074 270.464 140.282 270.464 134.243 276.504C128.203 282.543 128.203 292.335 134.243 298.374C140.282 304.414 150.074 304.414 156.114 298.374Z" fill="#004777"></path>
<path d="M146.684 286.646C147.445 286.302 148.09 285.745 148.541 285.043C148.993 284.341 149.232 283.524 149.23 282.689C149.255 282.147 149.17 281.606 148.98 281.098C148.79 280.59 148.499 280.126 148.125 279.734C147.75 279.342 147.3 279.03 146.802 278.817C146.304 278.603 145.767 278.493 145.225 278.493C144.683 278.493 144.146 278.603 143.648 278.817C143.149 279.03 142.699 279.342 142.325 279.734C141.95 280.126 141.66 280.59 141.47 281.098C141.28 281.606 141.195 282.147 141.22 282.689C141.202 283.531 141.434 284.36 141.887 285.071C142.34 285.781 142.994 286.342 143.766 286.681C137.601 287.607 137.886 294.309 137.886 294.309L152.459 294.378C152.459 294.378 152.797 287.59 146.684 286.646Z" fill="white"></path>
<g opacity="0.3">
<path d="M330.744 255.779C336.783 249.74 336.783 239.948 330.744 233.908C324.704 227.869 314.912 227.869 308.873 233.908C302.833 239.948 302.833 249.74 308.873 255.779C314.912 261.819 324.704 261.819 330.744 255.779Z" fill="black"></path>
</g>
<path d="M334.336 245.385C336.314 237.076 331.182 228.736 322.873 226.759C314.564 224.781 306.225 229.913 304.247 238.222C302.269 246.531 307.401 254.87 315.71 256.848C324.019 258.826 332.358 253.694 334.336 245.385Z" fill="#004777"></path>
<path d="M320.784 240.987C321.549 240.651 322.198 240.097 322.65 239.395C323.103 238.693 323.339 237.873 323.33 237.038C323.374 236.485 323.304 235.929 323.123 235.404C322.942 234.88 322.654 234.399 322.278 233.991C321.902 233.583 321.445 233.258 320.937 233.035C320.429 232.812 319.88 232.697 319.325 232.697C318.77 232.697 318.221 232.812 317.713 233.035C317.205 233.258 316.748 233.583 316.372 233.991C315.996 234.399 315.708 234.88 315.527 235.404C315.346 235.929 315.276 236.485 315.32 237.038C315.305 237.88 315.539 238.708 315.993 239.417C316.448 240.126 317.103 240.684 317.875 241.021C311.709 241.956 311.986 248.659 311.986 248.659L326.568 248.719C326.568 248.719 326.897 241.913 320.784 240.987Z" fill="white"></path>
<g opacity="0.3">
<path d="M324.437 181.107C326.298 172.771 321.05 164.504 312.714 162.642C304.379 160.781 296.112 166.029 294.25 174.365C292.388 182.701 297.637 190.967 305.972 192.829C314.308 194.691 322.575 189.442 324.437 181.107Z" fill="black"></path>
</g>
<path d="M324.43 179.158C326.292 170.822 321.044 162.556 312.708 160.694C304.372 158.832 296.106 164.08 294.244 172.416C292.382 180.752 297.631 189.019 305.966 190.88C314.302 192.742 322.569 187.494 324.43 179.158Z" fill="#455A64"></path>
<path d="M310.842 175.022C311.621 174.691 312.285 174.135 312.747 173.426C313.21 172.717 313.451 171.886 313.44 171.039C313.465 170.497 313.38 169.956 313.19 169.449C313 168.941 312.71 168.477 312.335 168.085C311.961 167.692 311.511 167.38 311.012 167.167C310.514 166.954 309.977 166.844 309.435 166.844C308.893 166.844 308.356 166.954 307.858 167.167C307.36 167.38 306.91 167.692 306.535 168.085C306.161 168.477 305.87 168.941 305.68 169.449C305.49 169.956 305.405 170.497 305.43 171.039C305.414 171.882 305.648 172.712 306.103 173.422C306.557 174.132 307.212 174.692 307.985 175.031C301.82 175.957 302.097 182.66 302.097 182.66L316.678 182.72C316.678 182.72 316.964 175.888 310.842 175.022Z" fill="white"></path>
<path d="M15.9339 294.117H100.368C102.637 294.117 104.473 292.611 104.473 290.749V251.35C104.473 249.497 102.637 247.982 100.368 247.982H15.9339C13.6652 247.982 11.8295 249.497 11.8295 251.35V290.749C11.8295 292.611 13.6652 294.117 15.9339 294.117Z" fill="white"></path>
<path d="M15.9354 294.117C15.7023 294.142 15.4672 294.142 15.234 294.117C14.5463 294.035 13.8861 293.798 13.3031 293.424C12.8186 293.124 12.4213 292.703 12.1508 292.201C11.8803 291.7 11.7462 291.136 11.7617 290.567C11.7617 289.242 11.7617 287.718 11.7617 286.003C11.7617 279.128 11.7617 269.205 11.6925 256.944C11.6925 255.411 11.6925 253.844 11.6925 252.242C11.6925 251.835 11.6925 251.445 11.6925 251.003C11.7487 250.576 11.8964 250.165 12.1254 249.8C12.5902 249.058 13.2875 248.492 14.1084 248.189C14.9267 247.898 15.7965 247.78 16.6628 247.843H24.5598H47.5929H100.361C101.595 247.809 102.794 248.256 103.704 249.09C104.135 249.533 104.435 250.088 104.57 250.692C104.657 251.279 104.686 251.874 104.656 252.467V259.394C104.656 263.949 104.656 268.437 104.656 272.859V285.847C104.656 286.904 104.656 287.96 104.656 289.008V290.584C104.681 291.141 104.565 291.695 104.318 292.195C104.052 292.671 103.693 293.09 103.264 293.427C102.834 293.765 102.342 294.014 101.816 294.16C101.304 294.31 100.773 294.382 100.24 294.377H98.716L55.6199 294.325L26.5601 294.255L18.663 294.212H26.5601L55.6199 294.134L98.716 294.091C99.7137 294.159 100.716 294.089 101.695 293.883C102.165 293.757 102.605 293.54 102.99 293.242C103.375 292.945 103.697 292.574 103.937 292.151C104.158 291.715 104.26 291.228 104.232 290.74V286.003C104.232 281.749 104.232 277.419 104.232 273.015V252.441C104.258 251.88 104.234 251.318 104.163 250.761C104.028 250.235 103.752 249.756 103.366 249.375C102.541 248.611 101.451 248.198 100.327 248.224H47.5929H24.5598H16.6541C15.8295 248.157 15.0002 248.266 14.2209 248.544C13.4823 248.809 12.8481 249.304 12.4112 249.956C12.2032 250.28 12.0701 250.647 12.0215 251.029C11.9782 251.402 12.0215 251.826 12.0215 252.224C12.0215 253.826 12.0215 255.394 12.0215 256.926C12.0215 269.187 11.9696 279.111 11.9522 285.986C11.9522 287.718 11.9522 289.224 11.9522 290.549C11.9318 291.1 12.0562 291.647 12.313 292.134C12.5698 292.622 12.95 293.034 13.4156 293.329C13.9788 293.71 14.6213 293.959 15.2946 294.056C15.693 294.117 15.9354 294.117 15.9354 294.117Z" fill="#263238"></path>
<path d="M129.767 278.721C129.451 278.513 129.16 278.269 128.901 277.994L126.702 275.933L123.498 272.79C122.879 272.197 122.141 271.743 121.333 271.456C120.455 271.166 119.528 271.051 118.605 271.119C114.7 271.119 111.167 271.119 108.613 271.049L105.582 270.98C105.211 270.988 104.84 270.959 104.474 270.893C104.839 270.823 105.211 270.794 105.582 270.807L108.613 270.729C111.211 270.729 114.674 270.668 118.605 270.668C119.582 270.604 120.561 270.731 121.489 271.041C122.349 271.35 123.133 271.836 123.792 272.469L126.927 275.682L129.014 277.881C129.291 278.137 129.543 278.418 129.767 278.721Z" fill="#263238"></path>
<path d="M132.296 280.055C132.296 280.382 132.199 280.702 132.017 280.974C131.835 281.246 131.577 281.458 131.275 281.583C130.973 281.708 130.64 281.741 130.319 281.677C129.998 281.613 129.704 281.455 129.472 281.224C129.241 280.993 129.084 280.698 129.02 280.377C128.956 280.057 128.989 279.724 129.114 279.422C129.239 279.12 129.451 278.861 129.723 278.68C129.995 278.498 130.315 278.401 130.642 278.401C131.08 278.403 131.499 278.578 131.809 278.888C132.119 279.197 132.294 279.617 132.296 280.055Z" fill="#263238"></path>
<path d="M61.7672 264.087H91.944C92.6327 264.087 93.1909 263.529 93.1909 262.84V261.186C93.1909 260.498 92.6327 259.939 91.944 259.939H61.7672C61.0786 259.939 60.5203 260.498 60.5203 261.186V262.84C60.5203 263.529 61.0786 264.087 61.7672 264.087Z" fill="#E0E0E0"></path>
<path d="M61.7672 272.27H91.944C92.6327 272.27 93.1909 271.712 93.1909 271.023V269.369C93.1909 268.681 92.6327 268.123 91.944 268.123H61.7672C61.0786 268.123 60.5203 268.681 60.5203 269.369V271.023C60.5203 271.712 61.0786 272.27 61.7672 272.27Z" fill="#E0E0E0"></path>
<path d="M70.3914 283.328C70.271 283.978 69.9607 284.577 69.4998 285.051C69.0389 285.524 68.448 285.85 67.8017 285.988C67.1554 286.126 66.4829 286.069 65.8689 285.824C65.255 285.58 64.7273 285.159 64.3524 284.615C63.9775 284.071 63.7724 283.428 63.7628 282.767C63.7533 282.107 63.9398 281.458 64.2988 280.903C64.6578 280.348 65.1732 279.912 65.7798 279.651C66.3864 279.389 67.0571 279.312 67.707 279.431C68.1394 279.51 68.5518 279.674 68.9208 279.913C69.2898 280.152 69.608 280.461 69.8574 280.823C70.1067 281.185 70.2822 281.592 70.3738 282.022C70.4655 282.452 70.4714 282.896 70.3914 283.328Z" fill="#263238"></path>
<path d="M80.2028 282.548C80.2028 283.211 80.0063 283.859 79.6381 284.41C79.2698 284.961 78.7465 285.391 78.1342 285.644C77.5218 285.898 76.848 285.964 76.198 285.835C75.548 285.706 74.9509 285.387 74.4822 284.918C74.0136 284.449 73.6944 283.852 73.5651 283.202C73.4358 282.552 73.5022 281.878 73.7558 281.266C74.0094 280.654 74.4389 280.13 74.99 279.762C75.5411 279.394 76.189 279.197 76.8518 279.197C77.7405 279.197 78.5929 279.55 79.2213 280.179C79.8498 280.807 80.2028 281.66 80.2028 282.548Z" fill="#004777"></path>
<path d="M89.9348 282.548C89.9348 283.211 89.7382 283.859 89.37 284.41C89.0018 284.961 88.4784 285.391 87.8661 285.644C87.2538 285.898 86.58 285.964 85.93 285.835C85.2799 285.706 84.6828 285.387 84.2142 284.918C83.7455 284.449 83.4264 283.852 83.2971 283.202C83.1678 282.552 83.2341 281.878 83.4878 281.266C83.7414 280.654 84.1709 280.13 84.722 279.762C85.2731 279.394 85.9209 279.197 86.5837 279.197C87.4725 279.197 88.3248 279.55 88.9533 280.179C89.5817 280.807 89.9348 281.66 89.9348 282.548Z" fill="#455A64"></path>
<path d="M25.295 280.496C25.2141 280.495 25.135 280.472 25.0662 280.43C24.9975 280.387 24.9419 280.326 24.9054 280.254C24.8676 280.181 24.8516 280.099 24.8593 280.018C24.8669 279.936 24.898 279.859 24.9487 279.795L26.5073 277.743C27.1849 276.843 27.5443 275.743 27.5291 274.617L27.4425 269.326C27.3976 267.527 27.9768 265.768 29.0817 264.347C30.1866 262.927 31.749 261.932 33.5038 261.533V260.269C33.5015 260.098 33.5329 259.929 33.596 259.77C33.6592 259.612 33.753 259.467 33.872 259.345C33.991 259.223 34.1329 259.125 34.2896 259.058C34.4463 258.991 34.6148 258.955 34.7854 258.952H35.0451C35.3897 258.956 35.7203 259.089 35.9717 259.325C36.2069 259.553 36.3462 259.863 36.3613 260.191V261.368C38.2107 261.621 39.9078 262.529 41.1441 263.928C42.3804 265.326 43.0738 267.122 43.0981 268.988L43.1933 274.487C43.2097 275.704 43.6683 276.873 44.4835 277.777L45.9036 279.362C45.9589 279.423 45.9957 279.499 46.0095 279.58C46.0233 279.661 46.0136 279.745 45.9815 279.821C45.9492 279.898 45.8951 279.963 45.8258 280.009C45.7565 280.055 45.6751 280.08 45.5919 280.081L25.3124 280.418L25.295 280.496ZM35.0365 259.853H34.7767C34.7191 259.853 34.6621 259.864 34.609 259.887C34.5559 259.909 34.5078 259.942 34.4675 259.983C34.4271 260.024 34.3954 260.073 34.3742 260.126C34.3529 260.18 34.3426 260.237 34.3437 260.295V261.914C34.3451 262.018 34.3091 262.118 34.2423 262.198C34.1756 262.277 34.0825 262.33 33.9801 262.347C32.3615 262.636 30.8988 263.492 29.8534 264.761C28.808 266.03 28.248 267.63 28.2738 269.274L28.3603 274.565C28.3847 275.885 27.9638 277.175 27.1654 278.227L26.1436 279.578L44.5874 279.275L43.7908 278.409C42.8582 277.35 42.3333 275.993 42.3101 274.582L42.2148 269.084C42.1933 267.365 41.5335 265.715 40.3637 264.456C39.1939 263.197 37.5976 262.417 35.8851 262.269C35.7785 262.258 35.6794 262.21 35.6061 262.132C35.5329 262.054 35.4904 261.952 35.4867 261.845V260.286C35.4868 260.228 35.475 260.17 35.4522 260.116C35.4294 260.062 35.3959 260.014 35.3539 259.974C35.3118 259.933 35.262 259.902 35.2075 259.881C35.1529 259.86 35.0948 259.851 35.0365 259.853Z" fill="#263238"></path>
<path d="M35.2275 283.648C34.4507 283.671 33.6878 283.44 33.0541 282.99C32.2709 282.321 31.7774 281.374 31.6773 280.349C31.6687 280.293 31.6714 280.236 31.6851 280.181C31.6988 280.127 31.7234 280.075 31.7572 280.03C31.7911 279.985 31.8336 279.947 31.8823 279.918C31.9311 279.89 31.985 279.871 32.0409 279.864C32.1534 279.846 32.2682 279.874 32.3605 279.94C32.4529 280.007 32.5154 280.107 32.5345 280.219C32.601 281.019 32.9731 281.764 33.5736 282.297C34.0615 282.633 34.6443 282.803 35.2361 282.782C35.9322 282.802 36.6139 282.581 37.1671 282.159C37.4707 281.917 37.7089 281.604 37.8602 281.247C38.0115 280.89 38.0709 280.501 38.033 280.115C38.0205 280.002 38.0523 279.888 38.1217 279.798C38.1911 279.707 38.2927 279.647 38.4053 279.63C38.519 279.615 38.6339 279.646 38.7248 279.716C38.8156 279.786 38.8752 279.889 38.8903 280.002C38.956 280.539 38.8831 281.083 38.6784 281.584C38.4738 282.084 38.1442 282.523 37.7213 282.86C37.0129 283.407 36.1397 283.697 35.2448 283.683L35.2275 283.648Z" fill="#263238"></path>
<path d="M33.3406 262.511C33.2483 262.511 33.1586 262.481 33.0841 262.427C33.0096 262.372 32.9539 262.296 32.925 262.208C32.8922 262.098 32.9037 261.979 32.9571 261.878C33.0104 261.776 33.1014 261.699 33.2107 261.663C34.3854 261.325 35.6244 261.278 36.8215 261.524C36.8788 261.539 36.9323 261.565 36.9788 261.602C37.0252 261.638 37.0635 261.684 37.0912 261.736C37.1189 261.788 37.1354 261.846 37.1397 261.905C37.144 261.964 37.1359 262.023 37.116 262.078C37.1046 262.134 37.0824 262.187 37.0505 262.234C37.0187 262.281 36.9779 262.322 36.9305 262.353C36.883 262.385 36.8299 262.406 36.774 262.417C36.7182 262.428 36.6608 262.428 36.6051 262.416C35.5541 262.203 34.4675 262.245 33.4359 262.537L33.3406 262.511Z" fill="#263238"></path>
<path d="M370.351 133.786H370.125H369.485H367.008L357.916 133.864L327.912 133.925H323.583C322.188 133.886 320.791 133.926 319.401 134.046C316.792 134.372 314.338 135.466 312.352 137.189C310.541 138.738 309.182 140.749 308.421 143.008C307.801 144.992 307.549 147.072 307.676 149.147C307.676 152.957 307.624 156.074 307.607 158.239C307.607 159.287 307.607 160.11 307.564 160.716C307.564 160.975 307.564 161.183 307.564 161.356C307.591 161.363 307.614 161.379 307.63 161.401C307.646 161.424 307.653 161.452 307.65 161.479C307.646 161.506 307.633 161.532 307.613 161.55C307.592 161.568 307.565 161.579 307.538 161.579C307.51 161.579 307.484 161.568 307.463 161.55C307.442 161.532 307.429 161.506 307.426 161.479C307.423 161.452 307.43 161.424 307.446 161.401C307.461 161.379 307.485 161.363 307.512 161.356C307.512 161.183 307.512 160.975 307.512 160.716C307.512 160.11 307.512 159.287 307.468 158.239C307.468 156.057 307.425 152.957 307.399 149.147C307.239 147.035 307.477 144.911 308.101 142.887C308.478 141.764 308.995 140.693 309.642 139.7C310.736 138.05 312.172 136.654 313.852 135.609C315.533 134.563 317.42 133.891 319.383 133.639C320.791 133.513 322.205 133.47 323.618 133.509H327.947L357.951 133.578L367.043 133.647L369.519 133.691H370.16C370.228 133.712 370.293 133.744 370.351 133.786Z" fill="#263238"></path>
<path d="M437.951 113.887H349.1C347.207 113.887 345.671 115.423 345.671 117.316V154.022C345.671 155.916 347.207 157.451 349.1 157.451H437.951C439.845 157.451 441.38 155.916 441.38 154.022V117.316C441.38 115.423 439.845 113.887 437.951 113.887Z" fill="white"></path>
<path d="M437.951 157.442C437.951 157.442 438.194 157.442 438.653 157.356C439.315 157.195 439.916 156.846 440.385 156.351C440.725 155.984 440.983 155.547 441.138 155.07C441.295 154.483 441.348 153.874 441.294 153.269C441.294 151.944 441.294 150.411 441.294 148.688C441.294 141.761 441.294 131.794 441.225 119.472C441.225 118.702 441.225 117.914 441.225 117.143C441.183 116.37 440.868 115.636 440.335 115.074C439.801 114.512 439.085 114.159 438.315 114.078C437.527 114.078 436.661 114.078 435.83 114.078H425.318H402.163H349.109C348.558 114.078 348.016 114.219 347.535 114.489C347.055 114.759 346.651 115.148 346.365 115.619C346.08 116.087 345.922 116.622 345.906 117.169V139.406C345.906 143.839 345.906 148.203 345.906 152.472V154.065C345.918 154.563 346.042 155.051 346.269 155.494C346.49 155.942 346.812 156.332 347.211 156.633C347.609 156.933 348.073 157.137 348.564 157.226C349.067 157.279 349.574 157.296 350.079 157.278H354.712L398.007 157.33L427.223 157.399H435.172H437.233H437.934C437.934 157.399 437.7 157.399 437.233 157.399H435.172H427.223L398.007 157.468L354.712 157.512H350.079C349.547 157.534 349.015 157.514 348.486 157.451C347.935 157.356 347.414 157.135 346.963 156.804C346.512 156.474 346.144 156.043 345.888 155.546C345.629 155.042 345.49 154.485 345.481 153.918V139.406C345.481 134.966 345.481 130.452 345.481 125.863V117.204C345.506 116.591 345.687 115.994 346.01 115.472C346.338 114.939 346.798 114.5 347.346 114.197C347.893 113.893 348.51 113.736 349.135 113.74H402.189H425.344H435.839C436.704 113.74 437.501 113.74 438.358 113.74C439.215 113.839 440.01 114.238 440.601 114.866C441.185 115.481 441.526 116.287 441.562 117.135C441.562 117.94 441.562 118.702 441.562 119.481C441.562 131.803 441.51 141.787 441.493 148.697C441.493 150.429 441.493 151.953 441.493 153.277C441.54 153.896 441.475 154.517 441.302 155.113C441.138 155.603 440.866 156.05 440.506 156.421C440.019 156.924 439.391 157.268 438.705 157.408C438.457 157.456 438.203 157.468 437.951 157.442Z" fill="#263238"></path>
<path d="M364.289 146.8C362.26 146.802 360.276 146.202 358.588 145.077C356.9 143.951 355.583 142.35 354.805 140.476C354.026 138.602 353.821 136.54 354.214 134.549C354.608 132.559 355.583 130.73 357.016 129.293C358.449 127.856 360.275 126.877 362.265 126.478C364.254 126.08 366.317 126.28 368.193 127.054C370.069 127.828 371.673 129.14 372.803 130.825C373.933 132.511 374.538 134.493 374.541 136.522C374.544 139.244 373.465 141.856 371.543 143.783C369.62 145.711 367.011 146.796 364.289 146.8ZM364.289 127.153C362.43 127.151 360.611 127.702 359.064 128.734C357.518 129.766 356.312 131.235 355.601 132.953C354.889 134.671 354.703 136.562 355.067 138.385C355.43 140.209 356.327 141.884 357.643 143.198C358.96 144.511 360.636 145.405 362.46 145.765C364.285 146.125 366.175 145.936 367.892 145.221C369.609 144.507 371.075 143.298 372.104 141.75C373.134 140.201 373.681 138.382 373.676 136.522C373.666 134.037 372.674 131.657 370.915 129.901C369.156 128.146 366.774 127.158 364.289 127.153Z" fill="#263238"></path>
<path d="M369.901 137.613H363.779C363.664 137.613 363.554 137.567 363.472 137.486C363.391 137.405 363.346 137.295 363.346 137.18V130.772C363.346 130.658 363.391 130.547 363.472 130.466C363.554 130.385 363.664 130.339 363.779 130.339C363.893 130.339 364.004 130.385 364.085 130.466C364.166 130.547 364.212 130.658 364.212 130.772V136.747H369.901C370.015 136.747 370.125 136.793 370.207 136.874C370.288 136.955 370.334 137.065 370.334 137.18C370.334 137.295 370.288 137.405 370.207 137.486C370.125 137.567 370.015 137.613 369.901 137.613Z" fill="#263238"></path>
<path d="M427.465 127.967H381.121C380.174 127.967 379.407 128.735 379.407 129.682V131.864C379.407 132.811 380.174 133.578 381.121 133.578H427.465C428.411 133.578 429.179 132.811 429.179 131.864V129.682C429.179 128.735 428.411 127.967 427.465 127.967Z" fill="#E0E0E0"></path>
<path d="M400.64 137.977H381.607C380.66 137.977 379.893 138.744 379.893 139.691V141.873C379.893 142.82 380.66 143.588 381.607 143.588H400.64C401.587 143.588 402.354 142.82 402.354 141.873V139.691C402.354 138.744 401.587 137.977 400.64 137.977Z" fill="#E0E0E0"></path>
<path d="M413.005 140.782C413.007 141.497 412.796 142.196 412.401 142.791C412.005 143.386 411.442 143.85 410.782 144.124C410.122 144.399 409.396 144.472 408.695 144.333C407.994 144.195 407.35 143.852 406.844 143.347C406.338 142.843 405.993 142.199 405.853 141.499C405.713 140.798 405.784 140.071 406.057 139.411C406.33 138.751 406.793 138.186 407.387 137.789C407.981 137.392 408.68 137.18 409.394 137.18C410.35 137.18 411.267 137.559 411.944 138.235C412.621 138.91 413.003 139.826 413.005 140.782Z" fill="#263238"></path>
<path d="M423.136 140.782C423.137 141.497 422.927 142.196 422.531 142.791C422.136 143.386 421.572 143.85 420.913 144.124C420.253 144.399 419.527 144.472 418.826 144.333C418.125 144.195 417.48 143.852 416.975 143.347C416.469 142.843 416.124 142.199 415.984 141.499C415.844 140.798 415.915 140.071 416.188 139.411C416.461 138.751 416.924 138.186 417.518 137.789C418.112 137.392 418.81 137.18 419.525 137.18C420.481 137.18 421.398 137.559 422.075 138.235C422.752 138.91 423.133 139.826 423.136 140.782Z" fill="#004777"></path>
<path d="M274.706 386.105H140.863V404.67H274.706V386.105Z" fill="#004777"></path>
<path d="M272.524 388.426H140.863V402.281H272.524V388.426Z" fill="#F5F5F5"></path>
<g opacity="0.3">
<path d="M274.697 386.105H248.694V404.67H274.697V386.105Z" fill="black"></path>
</g>
<path d="M272.523 395.163H271.181H267.345H253.222L206.602 395.302H159.999H145.876H142.031H140.698H141.035H142.031H145.876H159.999H206.602H253.196H267.319H271.155H272.151L272.523 395.163Z" fill="#263238"></path>
<path d="M248.771 404.367C248.728 404.367 248.685 400.324 248.685 395.336C248.685 390.348 248.685 386.313 248.771 386.313C248.858 386.313 248.858 390.357 248.858 395.336C248.858 400.315 248.815 404.367 248.771 404.367Z" fill="#263238"></path>
<path d="M255.543 368.935H162.986V386.114H255.543V368.935Z" fill="#455A64"></path>
<path d="M263.604 369.03H238.415V386.011H263.604V369.03Z" fill="#455A64"></path>
<path d="M263.604 371.359H240.787V383.56H263.604V371.359Z" fill="#F5F5F5"></path>
<g opacity="0.3">
<path d="M263.605 369.03H238.416V386.01H263.605V369.03Z" fill="black"></path>
</g>
<path d="M231.645 382.313C231.645 382.313 231.645 382.149 231.645 381.837V380.46C231.645 379.248 231.645 377.455 231.645 375.135L168.676 375.195L168.763 375.1V382.313L168.676 382.218L213.392 382.261H226.77H230.389H226.804H213.452H168.676H168.598V374.884H168.685L231.653 374.944V374.987C231.653 377.317 231.653 379.118 231.653 380.339C231.653 380.936 231.653 381.395 231.653 381.707C231.653 382.019 231.645 382.313 231.645 382.313Z" fill="#263238"></path>
<path d="M238.45 385.993C238.45 385.993 238.363 382.148 238.363 377.403C238.363 372.658 238.407 368.805 238.45 368.805C238.493 368.805 238.536 372.649 238.536 377.403C238.536 382.157 238.493 385.993 238.45 385.993Z" fill="#263238"></path>
<path d="M249.845 348.88H157.288V362.319H249.845V348.88Z" fill="#004777"></path>
<path d="M229.41 359.678C229.407 359.626 229.407 359.574 229.41 359.522C229.41 359.401 229.41 359.263 229.41 359.089C229.41 358.7 229.41 358.163 229.41 357.496C229.41 356.128 229.41 354.223 229.367 351.989L229.444 352.076H225.063C225.063 352.076 225.219 351.894 225.15 351.98V354.085C225.15 354.777 225.15 355.453 225.15 356.102C225.15 357.392 225.15 358.587 225.15 359.652L225.08 359.574H228.25H229.115C229.222 359.561 229.329 359.561 229.436 359.574H229.141H228.275L225.063 359.618H224.994V359.54C224.994 358.475 224.994 357.28 224.994 355.99C224.994 355.34 224.994 354.665 224.994 353.972V352.006C224.924 352.093 225.098 351.885 225.08 351.911H229.54V352.006C229.54 354.266 229.54 356.189 229.54 357.574C229.54 358.232 229.54 358.76 229.54 359.15C229.54 359.315 229.54 359.444 229.54 359.557C229.501 359.602 229.458 359.643 229.41 359.678Z" fill="#263238"></path>
<path d="M249.847 350.984H235.568V360.076H249.847V350.984Z" fill="white"></path>
<g opacity="0.3">
<path d="M249.845 348.881H233.687V362.319H249.845V348.881Z" fill="black"></path>
</g>
<path d="M233.619 362.241C233.575 362.241 233.532 359.28 233.532 355.617C233.532 351.954 233.532 348.993 233.619 348.993C233.705 348.993 233.705 351.963 233.705 355.617C233.705 359.271 233.671 362.241 233.619 362.241Z" fill="#263238"></path>
<path d="M249.958 353.141C249.958 353.193 246.711 353.236 242.711 353.236C238.71 353.236 235.463 353.193 235.463 353.141C235.463 353.089 238.71 353.037 242.711 353.037C246.711 353.037 249.958 353.089 249.958 353.141Z" fill="#263238"></path>
<path d="M249.958 355.53C249.958 355.582 246.711 355.626 242.711 355.626C238.71 355.626 235.463 355.582 235.463 355.53C235.463 355.479 238.71 355.435 242.711 355.435C246.711 355.435 249.958 355.47 249.958 355.53Z" fill="#263238"></path>
<path d="M249.958 357.955C249.958 358.016 246.711 358.059 242.711 358.059C238.71 358.059 235.463 358.016 235.463 357.955C235.463 357.895 238.71 357.86 242.711 357.86C246.711 357.86 249.958 357.903 249.958 357.955Z" fill="#263238"></path>
<path d="M265.727 362.328H173.17V368.961H265.727V362.328Z" fill="#004777"></path>
<path d="M265.735 363.159H245.04V368.182H265.735V363.159Z" fill="#E0E0E0"></path>
<g opacity="0.3">
<path d="M265.736 362.328H243.872V368.961H265.736V362.328Z" fill="black"></path>
</g>
<path d="M243.837 368.961C243.748 367.898 243.722 366.831 243.759 365.765C243.733 364.7 243.761 363.633 243.845 362.57C243.933 363.633 243.959 364.7 243.923 365.765C243.949 366.831 243.92 367.898 243.837 368.961Z" fill="#263238"></path>
<path d="M235.567 364.882H179.82V366.467H235.567V364.882Z" fill="#E0E0E0"></path>
<path d="M241.618 368.909C241.618 368.961 226.275 369.004 207.363 369.004C188.452 369.004 173.099 368.961 173.099 368.909C173.099 368.857 188.434 368.805 207.363 368.805C226.292 368.805 241.618 368.848 241.618 368.909Z" fill="#263238"></path>
<path d="M244.096 368.935C244.096 368.987 228.761 369.039 209.841 369.039C190.921 369.039 175.577 368.987 175.577 368.935C175.577 368.883 190.912 368.84 209.841 368.84C228.77 368.84 244.096 368.883 244.096 368.935Z" fill="#263238"></path>
<path d="M265.726 362.276C265.726 362.328 245.55 362.371 220.699 362.371C195.847 362.371 175.62 362.328 175.62 362.276C175.62 362.224 195.804 362.181 220.699 362.181C245.594 362.181 265.726 362.224 265.726 362.276Z" fill="#263238"></path>
<path d="M496.29 281.868C499.693 282.05 502.248 278.102 501.581 274.759C500.914 271.417 497.987 268.94 494.836 267.633C491.684 266.325 488.255 265.901 484.956 265.087C480.042 263.798 475.444 261.52 471.44 258.394C467.437 255.267 464.113 251.357 461.671 246.903C459.912 243.508 458.463 239.96 457.342 236.304C452.709 216.77 446.284 188.844 444.717 177.968C440.665 149.87 433.46 119.026 393.351 121.901C393.351 121.901 366.664 126.923 356.421 146.068C347.415 162.902 352.611 213.652 351.424 250.22L360.17 255.493L361.521 255.571C362.538 259.31 364.171 262.854 366.353 266.057C374.345 277.461 385.221 286.614 397.014 294.017C420.853 308.971 449.376 317.137 477.37 314.331C483.284 313.734 489.276 312.599 494.446 309.69C499.615 306.78 503.893 301.75 504.672 295.835C505.452 289.921 502.023 283.488 496.29 281.868Z" fill="#263238"></path>
<path d="M388.034 132.413L390.545 130.023L417.683 140.96C419.578 141.063 421.366 141.874 422.692 143.232C424.018 144.59 424.786 146.397 424.844 148.294L424.601 236.72C424.601 242.721 423.432 247.916 419.813 252.696L416.003 257.727C407.344 269.2 389.437 268.256 382.553 255.614C382.136 254.897 381.813 254.128 381.592 253.328C381.417 252.676 381.282 252.014 381.185 251.345C380.38 244.236 380.319 238.062 380.319 238.062C379.834 230.269 379.678 227.048 379.67 227.126C379.661 227.204 363.053 225.212 358.559 203.876C356.325 193.26 356.74 178.661 357.372 164.296C358.256 144.406 372.05 132.396 388.034 132.413Z" fill="#FFBF9D"></path>
<path d="M389.386 178.826C389.42 179.545 389.731 180.223 390.254 180.717C390.778 181.211 391.472 181.483 392.192 181.475C392.541 181.485 392.889 181.425 393.215 181.299C393.541 181.173 393.839 180.984 394.092 180.742C394.345 180.501 394.547 180.212 394.688 179.892C394.828 179.572 394.904 179.227 394.911 178.878C394.879 178.159 394.57 177.482 394.048 176.987C393.526 176.493 392.833 176.221 392.114 176.228C391.764 176.218 391.415 176.277 391.088 176.402C390.761 176.527 390.462 176.716 390.208 176.958C389.954 177.199 389.751 177.489 389.61 177.809C389.469 178.13 389.393 178.475 389.386 178.826Z" fill="#263238"></path>
<path d="M362.889 178.826C362.921 179.544 363.23 180.222 363.752 180.716C364.274 181.211 364.967 181.483 365.686 181.475C366.037 181.492 366.388 181.437 366.718 181.314C367.047 181.19 367.348 181.002 367.602 180.759C367.856 180.516 368.058 180.224 368.196 179.901C368.335 179.577 368.405 179.229 368.405 178.878C368.376 178.16 368.068 177.482 367.548 176.988C367.027 176.493 366.335 176.221 365.617 176.228C365.266 176.216 364.917 176.275 364.59 176.4C364.262 176.524 363.962 176.713 363.709 176.955C363.455 177.197 363.251 177.487 363.111 177.808C362.97 178.129 362.895 178.475 362.889 178.826Z" fill="#263238"></path>
<path d="M360.23 169.976C360.585 170.323 362.602 168.669 365.564 168.53C368.525 168.392 370.759 169.76 371.088 169.396C371.244 169.232 370.854 168.599 369.876 167.959C368.547 167.134 366.996 166.738 365.434 166.824C363.889 166.9 362.407 167.46 361.2 168.426C360.325 169.154 360.048 169.82 360.23 169.976Z" fill="#263238"></path>
<path d="M390.346 170.279C390.744 170.591 392.58 168.738 395.541 168.296C398.503 167.855 400.858 168.98 401.118 168.573C401.256 168.392 400.815 167.803 399.767 167.266C398.36 166.579 396.775 166.346 395.23 166.599C393.702 166.831 392.286 167.54 391.186 168.625C390.372 169.457 390.173 170.167 390.346 170.279Z" fill="#263238"></path>
<path d="M379.982 191.892C379.982 191.719 378.129 191.494 375.116 191.26C374.354 191.26 373.627 191.113 373.479 190.602C373.374 189.821 373.51 189.027 373.869 188.325C374.493 186.455 375.142 184.495 375.817 182.445C378.519 174.072 380.433 167.197 380.095 167.093C379.757 166.989 377.298 173.691 374.596 182.064C373.947 184.125 373.332 186.091 372.743 187.979C372.307 188.913 372.218 189.972 372.492 190.966C372.615 191.229 372.797 191.46 373.024 191.642C373.251 191.824 373.516 191.951 373.8 192.014C374.223 192.111 374.657 192.148 375.09 192.126C378.112 192.144 379.974 192.057 379.982 191.892Z" fill="#263238"></path>
<path d="M379.686 227.117C389.824 226.764 399.665 223.605 408.114 217.991C408.114 217.991 401.611 233.248 379.99 232.313L379.686 227.117Z" fill="#FF9A6C"></path>
<path d="M381.593 198.984C382.121 198.245 382.829 197.652 383.651 197.263C384.472 196.873 385.379 196.7 386.286 196.759C386.944 196.782 387.591 196.938 388.186 197.22C388.782 197.501 389.314 197.901 389.749 198.395C390.172 198.869 390.439 199.461 390.513 200.092C390.588 200.722 390.466 201.361 390.165 201.92C389.42 203.089 387.758 203.435 386.32 203.097C384.893 202.676 383.565 201.972 382.415 201.028C382.075 200.796 381.781 200.502 381.549 200.162C381.432 200.004 381.365 199.816 381.356 199.62C381.346 199.424 381.396 199.23 381.497 199.062" fill="#FF9A6C"></path>
<path d="M388.823 193.546C388.338 193.546 388.494 196.758 385.844 199.183C383.195 201.608 379.783 201.426 379.783 201.876C379.783 202.084 380.58 202.465 382.026 202.43C383.916 202.366 385.722 201.636 387.126 200.369C388.472 199.149 389.292 197.454 389.412 195.641C389.438 194.256 389.04 193.477 388.823 193.546Z" fill="#263238"></path>
<path d="M387.505 158.711C387.921 159.464 390.796 158.641 394.303 158.529C397.81 158.416 400.745 158.927 401.091 158.139C401.247 157.767 400.65 157.083 399.403 156.485C397.753 155.76 395.958 155.421 394.157 155.497C392.356 155.572 390.596 156.058 389.012 156.918C387.869 157.628 387.324 158.356 387.505 158.711Z" fill="#263238"></path>
<path d="M360.655 157.221C361.209 157.871 363.253 157.065 365.677 156.909C368.102 156.754 370.24 157.135 370.682 156.407C370.881 156.052 370.517 155.394 369.574 154.805C368.314 154.101 366.873 153.787 365.434 153.905C363.995 154.022 362.624 154.564 361.495 155.463C360.655 156.199 360.404 156.901 360.655 157.221Z" fill="#263238"></path>
<path d="M424.298 186.03C424.298 186.03 409.092 190.767 400.494 153.238C397.55 140.414 385.652 130.023 385.652 130.023L390.475 128.569C390.475 128.569 420.462 137.011 420.964 137.392C421.466 137.773 428.532 152.901 428.532 152.901L424.298 186.03Z" fill="#263238"></path>
<path d="M420.549 184.636C420.48 183.034 422.134 179.164 423.71 178.835C427.901 177.969 435.53 177.969 436.136 188.646C437.002 203.314 422.082 201.123 422.03 200.699C421.978 200.275 420.818 190.17 420.549 184.636Z" fill="#FFBF9D"></path>
<path d="M426.195 194.897C426.255 194.845 426.463 195.061 426.905 195.234C427.526 195.454 428.206 195.429 428.81 195.165C430.334 194.507 431.494 191.97 431.407 189.329C431.377 188.068 431.06 186.83 430.481 185.709C430.32 185.259 430.051 184.854 429.698 184.531C429.345 184.208 428.918 183.977 428.455 183.856C428.156 183.797 427.846 183.843 427.578 183.987C427.309 184.131 427.099 184.363 426.983 184.644C426.81 185.069 426.922 185.354 426.844 185.38C426.766 185.406 426.515 185.155 426.602 184.514C426.66 184.147 426.844 183.81 427.121 183.562C427.511 183.238 428.01 183.077 428.515 183.112C429.124 183.197 429.701 183.436 430.19 183.808C430.68 184.179 431.066 184.67 431.312 185.233C432.009 186.467 432.393 187.852 432.429 189.268C432.507 192.23 431.148 195.078 429.061 195.815C428.674 195.949 428.261 195.995 427.854 195.95C427.447 195.905 427.054 195.77 426.706 195.555C426.238 195.278 426.143 194.923 426.195 194.897Z" fill="#FF9A6C"></path>
<path d="M436.689 240.037C436.458 238.341 436.348 236.631 436.36 234.919C436.434 230.245 436.915 225.586 437.797 220.995C438.326 218.086 438.897 214.934 439.529 211.47C440.177 207.834 440.605 204.161 440.811 200.473C441.069 196.412 440.778 192.334 439.945 188.351C439.473 186.263 438.782 184.232 437.884 182.289C436.946 180.286 435.784 178.395 434.42 176.652C431.65 173.265 428.559 170.153 425.19 167.361C421.977 164.573 418.903 161.845 416.167 159.048C411.294 154.11 406.88 148.74 402.979 143.003C400.346 139.146 397.96 135.126 395.836 130.967C395.091 129.495 394.528 128.369 394.173 127.503L393.766 126.638L393.636 126.326C393.703 126.417 393.758 126.516 393.801 126.62L394.251 127.486C394.632 128.274 395.203 129.417 395.983 130.872C398.14 134.995 400.537 138.987 403.161 142.83C407.082 148.524 411.504 153.856 416.375 158.763C419.111 161.551 422.176 164.261 425.398 167.041C428.791 169.849 431.903 172.981 434.689 176.393C436.075 178.154 437.254 180.069 438.204 182.099C439.116 184.077 439.815 186.147 440.291 188.273C441.138 192.292 441.429 196.409 441.157 200.508C440.93 204.21 440.476 207.894 439.798 211.54L438.066 221.065C437.158 225.63 436.643 230.265 436.524 234.919C436.524 236.564 436.524 237.846 436.611 238.712C436.611 239.136 436.663 239.465 436.68 239.699C436.698 239.933 436.689 240.037 436.689 240.037Z" fill="#455A64"></path>
<path d="M441.409 241.422C441.178 239.723 441.068 238.01 441.08 236.296C441.148 231.622 441.623 226.963 442.5 222.372C443.028 219.463 443.6 216.311 444.232 212.847C444.89 209.217 445.329 205.55 445.548 201.867C445.806 197.806 445.514 193.728 444.682 189.745C444.21 187.657 443.52 185.626 442.621 183.683C441.685 181.681 440.523 179.793 439.157 178.055C436.387 174.665 433.296 171.55 429.927 168.755C426.714 165.967 423.632 163.239 420.904 160.442C416.03 155.509 411.616 150.141 407.716 144.406C405.08 140.534 402.691 136.5 400.564 132.326C399.811 130.854 399.257 129.729 398.901 128.863C398.728 128.482 398.59 128.187 398.495 127.997C398.399 127.806 398.365 127.694 398.365 127.685C398.427 127.779 398.482 127.877 398.529 127.98L398.979 128.846C399.352 129.634 399.932 130.777 400.711 132.24C402.891 136.36 405.308 140.35 407.95 144.189C411.871 149.884 416.293 155.216 421.164 160.122C423.9 162.91 426.966 165.621 430.187 168.4C433.58 171.208 436.692 174.34 439.478 177.752C440.866 179.515 442.045 181.433 442.993 183.467C443.902 185.444 444.602 187.51 445.08 189.632C445.926 193.655 446.218 197.774 445.946 201.876C445.722 205.575 445.271 209.256 444.595 212.899L442.864 222.424C441.958 226.99 441.44 231.625 441.314 236.278C441.314 237.924 441.314 239.214 441.409 240.08C441.409 240.495 441.461 240.824 441.478 241.067C441.495 241.309 441.409 241.422 441.409 241.422Z" fill="#455A64"></path>
<path d="M220.785 257.623C216.914 253.674 212.42 249.423 212.42 249.423L208.628 245.44C208.462 245.767 208.325 246.109 208.221 246.461C208.066 247.146 207.742 247.78 207.277 248.306C206.307 249.172 204.679 248.912 203.553 248.306C202.343 247.619 201.332 246.63 200.617 245.436C199.902 244.241 199.509 242.882 199.475 241.491C199.484 240.16 199.827 238.853 200.473 237.689C201.119 236.526 202.047 235.543 203.172 234.832C203.377 234.099 203.724 233.413 204.194 232.815C207.363 228.736 214.845 229.265 214.845 229.265L213.719 227.68C213.719 227.68 208.593 224.537 200.142 229.897C198.887 230.726 197.368 231.06 195.881 230.832C195.421 230.789 194.977 230.644 194.58 230.407C194.183 230.17 193.844 229.848 193.587 229.464C192.331 227.377 193.492 225.957 198.713 222.536C203.934 219.116 210.126 217.549 214.074 218.986C215.922 219.614 217.725 220.369 219.469 221.246C219.469 221.246 210.065 206.37 209.537 205.409C207.935 202.621 207.805 199.581 209.589 198.334C210.723 197.538 212.732 197.373 214.706 200.56C216.438 203.313 237.497 229.368 237.497 229.368L246.156 241.439L251.628 252.549L232.968 262.818L231.41 262.671C227.384 262.291 223.622 260.504 220.785 257.623Z" fill="#FFBF9D"></path>
<path d="M243.057 241.907C241.749 243.292 239.437 243.128 237.731 242.262C236.026 241.396 234.657 239.976 233.021 238.989C228.12 236.036 221.461 237.257 216.707 234.079C216.049 233.637 215.365 232.884 215.659 232.148C215.954 231.412 216.82 231.334 217.564 231.282L236.476 230.468" fill="#FFBF9D"></path>
<path d="M236.475 230.486C235.799 230.356 235.109 230.315 234.422 230.364C233.098 230.364 231.193 230.364 228.829 230.434L220.551 230.676L218.161 230.763C217.407 230.849 216.377 230.624 215.433 231.516C215.237 231.755 215.115 232.047 215.083 232.355C215.051 232.662 215.109 232.973 215.251 233.248C215.498 233.711 215.855 234.107 216.29 234.399C217.064 234.923 217.895 235.355 218.767 235.69C222.282 237.023 225.789 237.084 228.751 237.811C230.152 238.106 231.501 238.611 232.751 239.309C233.903 239.976 234.89 240.816 235.877 241.5C237.808 242.972 239.99 243.396 241.324 243.007C242.657 242.617 243.055 241.864 243.055 241.864C242.497 242.213 241.881 242.462 241.237 242.6C240.344 242.665 239.446 242.544 238.601 242.246C237.756 241.948 236.982 241.479 236.327 240.868C235.329 240.036 234.288 239.256 233.21 238.53C231.897 237.752 230.472 237.183 228.984 236.841C225.911 236.027 222.404 235.923 219.156 234.677C218.37 234.37 217.618 233.981 216.914 233.516C216.264 233.066 215.918 232.425 216.238 232.148C216.559 231.871 217.399 231.75 218.213 231.724L220.603 231.603L228.872 231.135C231.219 230.988 233.123 230.841 234.44 230.719C235.126 230.74 235.811 230.661 236.475 230.486Z" fill="#FF9A6C"></path>
<path d="M215.097 229.187C214.363 228.226 213.418 227.446 212.335 226.909C211.142 226.412 209.823 226.309 208.568 226.615C207.009 227.009 205.522 227.646 204.16 228.503C202.756 229.385 201.264 230.122 199.71 230.702C198.394 231.181 196.975 231.304 195.597 231.057C195.123 230.966 194.677 230.765 194.294 230.472C193.911 230.179 193.601 229.802 193.389 229.368C193.218 229.066 193.14 228.719 193.163 228.373C193.224 228.373 193.311 228.71 193.631 229.239C193.86 229.598 194.163 229.903 194.52 230.135C194.877 230.366 195.28 230.518 195.701 230.581C196.988 230.73 198.292 230.567 199.502 230.105C201.008 229.499 202.457 228.76 203.831 227.896C205.256 227.008 206.819 226.364 208.455 225.991C209.838 225.689 211.283 225.856 212.56 226.468C213.403 226.882 214.13 227.501 214.673 228.269C215.028 228.814 215.132 229.169 215.097 229.187Z" fill="#FF9A6C"></path>
<path d="M208.939 204.327C209.648 205.249 210.277 206.232 210.818 207.262C212.056 209.314 213.537 211.747 215.148 214.449L219.607 221.567C220.291 222.511 220.886 223.517 221.382 224.571C220.557 223.742 219.826 222.824 219.2 221.835C217.936 220.103 216.282 217.61 214.55 214.804C212.818 211.998 211.364 209.409 210.359 207.504C209.766 206.503 209.29 205.437 208.939 204.327Z" fill="#FF9A6C"></path>
<path d="M213.805 234.599C213.805 234.659 213.416 234.694 212.732 234.798C212.267 234.831 211.815 234.963 211.405 235.185C210.996 235.408 210.639 235.716 210.359 236.088C210.207 236.351 210.127 236.65 210.127 236.954C210.127 237.258 210.207 237.557 210.359 237.82C210.722 238.49 211.171 239.11 211.693 239.664C212.358 240.353 212.749 241.262 212.792 242.219C212.759 242.744 212.601 243.253 212.332 243.705C212.062 244.157 211.689 244.538 211.242 244.816C210.802 245.085 210.311 245.26 209.8 245.332C209.289 245.403 208.769 245.369 208.272 245.232C207.355 245.014 206.523 244.529 205.882 243.838C204.928 242.673 204.149 241.375 203.57 239.985C203.152 239.062 202.895 238.076 202.808 237.067C202.759 236.693 202.813 236.312 202.964 235.967C203.023 236.322 203.061 236.681 203.077 237.041C203.27 237.993 203.587 238.916 204.021 239.786C204.637 241.09 205.423 242.307 206.359 243.405C207.363 244.487 209.389 245.137 210.861 244.271C211.214 244.058 211.512 243.764 211.728 243.413C211.945 243.062 212.075 242.665 212.108 242.253C212.065 241.459 211.739 240.707 211.19 240.132C210.653 239.524 210.196 238.848 209.831 238.123C209.657 237.777 209.576 237.391 209.596 237.004C209.616 236.617 209.735 236.242 209.943 235.915C210.272 235.5 210.692 235.167 211.172 234.943C211.651 234.719 212.177 234.61 212.706 234.625C213.067 234.548 213.44 234.54 213.805 234.599Z" fill="#FF9A6C"></path>
<path d="M208.237 244.574C208.237 244.574 208.54 244.816 208.679 245.44C208.763 245.904 208.735 246.382 208.598 246.834C208.461 247.285 208.218 247.698 207.891 248.037C207.384 248.528 206.758 248.877 206.074 249.051C205.39 249.224 204.673 249.215 203.994 249.025C202.355 248.546 200.959 247.463 200.089 245.994C199.204 244.57 198.789 242.904 198.903 241.231C199.004 239.881 199.467 238.582 200.245 237.473C200.754 236.729 201.401 236.088 202.15 235.586C202.687 235.239 203.016 235.127 203.016 235.161C202.104 235.909 201.305 236.784 200.643 237.759C199.976 238.823 199.592 240.039 199.526 241.292C199.462 242.817 199.861 244.326 200.669 245.622C201.439 246.946 202.673 247.936 204.133 248.401C204.713 248.577 205.329 248.603 205.922 248.477C206.516 248.352 207.068 248.078 207.527 247.682C207.822 247.399 208.053 247.055 208.202 246.673C208.352 246.292 208.417 245.883 208.393 245.474C208.332 244.911 208.185 244.634 208.237 244.574Z" fill="#FF9A6C"></path>
<path d="M224.725 248.263C224.725 248.211 225.158 247.778 226.171 247.397C227.557 246.921 229.063 246.921 230.449 247.397L230.042 247.847C229.692 247.138 229.388 246.406 229.133 245.657C227.617 241.327 228.189 237.5 228.353 237.552C228.518 237.604 228.353 241.232 229.791 245.44C230.051 246.194 230.345 246.912 230.657 247.562L230.986 248.289L230.25 248.021C228.984 247.571 227.616 247.499 226.31 247.813C225.79 247.99 225.261 248.14 224.725 248.263Z" fill="#FF9A6C"></path>
<path d="M208.688 223.056C208.878 223.056 208.965 224.459 207.995 225.819C207.025 227.178 205.674 227.602 205.622 227.42C205.57 227.239 206.601 226.624 207.423 225.42C208.246 224.217 208.488 223.039 208.688 223.056Z" fill="#FF9A6C"></path>
<path d="M346.6 308.539C346.6 308.539 292.325 334.94 279.112 333.953C266.262 333 242.657 292.909 236.682 281.739C231.669 272.335 228.023 264.195 228.023 264.195L249.238 246.877L252.702 250.003L286.264 289.896C290.143 289.896 324.044 267.867 324.044 267.867C324.044 267.867 343.422 250.358 350.791 249.25C358.16 248.142 353.692 264.758 353.692 264.758L346.6 308.539Z" fill="#004777"></path>
<path d="M463.048 256.757L431.01 241.483L431.824 240.946L424.81 229.048L394.503 251.44L379.679 233.456L372.751 242.582L350.844 249.25L345.649 268.966L338.219 286.484C331.292 302.936 331.881 321.198 337.024 338.334V338.455C341.951 354.639 349.467 357.41 346.74 375.118C346.116 379.162 343.189 404.775 343.189 404.775H461.507L449.116 367.359L463.048 256.757Z" fill="#004777"></path>
<path d="M342.288 271.763C342.345 271.949 342.38 272.141 342.392 272.335C342.453 272.751 342.531 273.296 342.626 273.98C342.808 275.461 343.067 277.53 343.388 280.085V280.137C341.149 287.167 339.324 294.324 337.924 301.568C337.145 305.716 336.599 309.69 336.279 313.327C335.992 316.542 335.89 319.772 335.976 322.999C336.037 325.171 336.207 327.339 336.487 329.493C336.59 330.229 336.677 330.81 336.746 331.225C336.786 331.428 336.806 331.634 336.807 331.84C336.733 331.648 336.684 331.447 336.66 331.243C336.573 330.792 336.452 330.212 336.313 329.511C335.955 327.353 335.724 325.176 335.621 322.99C335.495 319.748 335.564 316.501 335.828 313.266C336.131 309.612 336.694 305.62 337.439 301.464C338.838 294.199 340.715 287.034 343.059 280.016V280.137C342.799 277.539 342.591 275.504 342.435 274.015C342.375 273.331 342.331 272.777 342.288 272.361C342.266 272.162 342.266 271.962 342.288 271.763Z" fill="#263238"></path>
<path d="M387.359 403.892C387.329 403.776 387.308 403.657 387.298 403.537C387.298 403.277 387.22 402.922 387.16 402.472C387.047 401.511 386.883 400.134 386.675 398.376C386.571 397.481 386.458 396.494 386.337 395.415C386.216 394.335 386.121 393.158 386.051 391.882C385.947 390.609 385.835 389.284 385.722 387.821C385.61 386.357 385.558 384.851 385.462 383.257C385.367 381.664 385.298 379.984 385.211 378.235C385.125 376.486 385.116 374.668 385.073 372.789C384.934 369.022 385.004 364.996 384.978 360.761C385.073 352.293 385.402 342.984 385.982 333.234C387.186 313.717 388.995 296.113 390.312 283.375C390.97 277.02 391.506 271.876 391.887 268.291L392.329 264.187C392.381 263.737 392.424 263.39 392.459 263.122C392.465 263.001 392.485 262.882 392.52 262.767C392.529 262.888 392.529 263.009 392.52 263.13C392.52 263.39 392.494 263.745 392.442 264.195C392.355 265.165 392.234 266.542 392.078 268.309C391.74 271.893 391.212 277.045 390.649 283.401C389.437 296.147 387.679 313.76 386.476 333.26C385.895 343.01 385.558 352.31 385.436 360.77C385.436 364.996 385.367 369.022 385.488 372.78C385.488 374.659 385.566 376.477 385.601 378.227C385.636 379.976 385.748 381.638 385.826 383.24C385.904 384.842 385.939 386.357 386.051 387.795C386.164 389.232 386.25 390.592 386.346 391.856C386.441 393.12 386.519 394.306 386.597 395.397C386.675 396.489 386.805 397.467 386.891 398.359C387.064 400.091 387.203 401.502 387.298 402.463L387.385 403.528C387.386 403.65 387.377 403.772 387.359 403.892Z" fill="#263238"></path>
<path d="M394.009 252.358C393.771 252.687 393.513 253.002 393.239 253.302C392.737 253.908 392.07 254.844 391.273 256.039C389.689 258.437 387.636 261.927 385.454 266.014L385.273 266.351L385.073 266.031C384.207 264.672 383.342 263.191 382.536 261.702C379.731 256.506 377.419 251.761 375.609 248.375C374.743 246.643 373.972 245.319 373.453 244.383L372.847 243.301C372.768 243.18 372.707 243.049 372.665 242.911C372.766 243.016 372.853 243.132 372.925 243.258L373.6 244.288C374.172 245.206 374.968 246.54 375.895 248.228C377.774 251.579 380.12 256.342 382.917 261.485C383.783 263.018 384.606 264.481 385.437 265.815H385.056C386.866 262.399 388.863 259.086 391.039 255.891C391.677 254.956 392.374 254.062 393.126 253.216C393.327 252.987 393.541 252.77 393.767 252.566C393.914 252.428 394.001 252.35 394.009 252.358Z" fill="#263238"></path>
<path d="M431.858 240.981C431.746 241.137 431.615 241.28 431.468 241.405L430.299 242.565C429.26 243.552 427.702 244.972 425.84 246.687C422.03 250.151 416.696 254.766 410.661 259.736C408.842 261.234 407.058 262.672 405.344 264.014C403.629 265.356 401.993 266.611 400.365 267.685L400.166 267.815L400.071 267.59C399.358 265.615 398.796 263.589 398.391 261.529C397.984 259.71 397.585 258.143 397.161 256.87C396.848 255.881 396.448 254.922 395.966 254.004C395.767 253.691 395.585 253.367 395.421 253.034C395.49 253.102 395.551 253.177 395.602 253.259C395.773 253.477 395.929 253.705 396.07 253.943C396.606 254.845 397.048 255.799 397.386 256.792C397.912 258.323 398.354 259.881 398.711 261.459C399.145 263.484 399.724 265.475 400.443 267.417L400.148 267.33C401.733 266.274 403.37 265.001 405.075 263.65C406.781 262.299 408.539 260.862 410.375 259.372C416.436 254.402 421.77 249.796 425.632 246.384L430.178 242.375L431.408 241.275C431.549 241.165 431.7 241.066 431.858 240.981Z" fill="#263238"></path>
<path d="M461.61 258.654C461.257 258.977 460.874 259.266 460.467 259.52C460.095 259.78 459.602 260.091 459.134 260.498C458.666 260.905 458.034 261.364 457.445 261.884C456.857 262.403 456.173 263.009 455.515 263.702C454.856 264.395 454.172 265.139 453.471 265.945C451.998 267.741 450.688 269.665 449.557 271.694C448.466 273.744 447.556 275.885 446.838 278.093C446.544 279.124 446.241 280.094 446.059 281.038C445.877 281.981 445.695 282.839 445.583 283.635C445.47 284.432 445.401 285.168 445.331 285.809C445.262 286.449 445.236 287.012 445.228 287.463C445.235 287.935 445.206 288.406 445.141 288.874C445.07 288.407 445.041 287.935 445.054 287.463C445.021 286.909 445.021 286.354 445.054 285.8C445.078 285.064 445.139 284.33 445.236 283.601C445.331 282.713 445.476 281.831 445.669 280.96C445.834 280.007 446.128 279.02 446.414 277.972C447.119 275.727 448.032 273.553 449.141 271.478C450.283 269.423 451.617 267.48 453.125 265.676C453.843 264.871 454.519 264.092 455.22 263.434C455.921 262.776 456.58 262.169 457.212 261.641C457.844 261.113 458.441 260.689 458.943 260.299C459.388 259.964 459.85 259.655 460.329 259.373C460.735 259.098 461.164 258.857 461.61 258.654Z" fill="#263238"></path>
<path d="M492.281 327.623C492.281 327.623 485.294 297.091 482.653 285.471C477.63 263.511 463.049 256.757 463.049 256.757L445.471 304.547L456.346 354.466L408.046 347.539L399.872 345.478L393.984 373.507L409.293 379.716C409.293 379.716 463.845 400.247 479.934 398.307C496.022 396.367 499.269 378.183 499.339 370.693C499.451 357.886 492.281 327.623 492.281 327.623Z" fill="#004777"></path>
<path d="M368.136 332.134L347.813 291.064C347.131 289.694 346.08 288.541 344.778 287.736C343.476 286.931 341.975 286.506 340.444 286.51H289.355C288.925 286.507 288.501 286.616 288.126 286.827C287.75 287.037 287.436 287.341 287.213 287.71C286.991 288.078 286.868 288.498 286.856 288.928C286.845 289.358 286.945 289.784 287.147 290.164L321.766 354.163C322.246 355.044 322.955 355.779 323.817 356.291C324.68 356.803 325.664 357.073 326.667 357.072H379.635L368.136 332.134Z" fill="#E0E0E0"></path>
<path d="M364.309 331.364C364.257 331.294 364.213 331.219 364.179 331.139L363.815 330.463C363.486 329.831 363.036 328.948 362.464 327.822C361.287 325.493 359.624 322.168 357.563 318.072C355.503 313.976 353.061 309.032 350.35 303.586L346.107 295.022C345.735 294.286 345.371 293.515 344.99 292.796C344.375 291.698 343.485 290.778 342.407 290.127C341.329 289.476 340.101 289.116 338.843 289.082L302.847 289.012L291.936 288.934H288.966L291.936 288.891L302.847 288.822L338.851 288.761C340.189 288.793 341.496 289.174 342.641 289.866C343.787 290.559 344.731 291.539 345.38 292.71C345.778 293.472 346.125 294.216 346.497 294.961C347.969 297.931 349.381 300.797 350.723 303.534C353.398 308.997 355.814 313.924 357.849 318.055L362.62 327.762C363.166 328.896 363.59 329.797 363.893 330.437C364.032 330.723 364.136 330.957 364.214 331.139C364.254 331.21 364.286 331.285 364.309 331.364Z" fill="#263238"></path>
<path d="M319.386 300.407C319.116 300.978 319.071 301.629 319.26 302.231C319.45 302.834 319.86 303.342 320.408 303.654C320.77 303.974 321.231 304.16 321.713 304.181C322.196 304.202 322.671 304.058 323.06 303.771C323.448 303.485 323.727 303.074 323.85 302.607C323.972 302.139 323.931 301.644 323.733 301.204C323.404 300.381 321.915 299.065 320.841 299.36C320.841 299.36 319.707 299.741 319.386 300.407Z" fill="white"></path>
<path d="M395.827 344.369C395.827 344.369 390.632 336.914 388.545 334.585C386.458 332.255 373.721 324.09 373.721 324.09C373.721 324.09 367.608 315.872 366.664 315.872C365.72 315.872 362.75 316.401 363.547 320.202C364.307 323.978 365.438 327.671 366.924 331.225L338.08 330.272C336.348 330.272 333.907 330.74 333.231 332.385C332.409 334.412 334.391 335.788 335.664 336.42C337.396 337.286 342.592 338.706 346.176 339.65C346.124 339.746 343.787 344.205 347.042 346.5C350.298 348.794 350.506 349.236 350.506 349.236C350.506 349.236 350.662 353.851 352.073 355.721C353.485 357.592 368.751 365.376 368.751 365.376C368.751 365.376 378.518 368.234 383.471 367.974C388.424 367.714 393.481 370.52 394.035 370.667C394.589 370.814 399.404 347.911 399.404 347.911L395.827 344.369Z" fill="#FFBF9D"></path>
<path d="M364.309 331.363C364.309 331.632 367.773 331.77 371.929 332.229C376.086 332.688 379.584 332.896 379.601 332.602C379.619 332.307 376.259 331.736 372.025 331.285C367.79 330.835 364.301 331.112 364.309 331.363Z" fill="#FF9A6C"></path>
<path d="M367.928 343.296C368.015 343.01 363.07 341.668 356.862 340.966C353.762 340.577 350.956 340.3 348.93 340.1C346.904 339.901 345.648 339.719 345.622 339.849C345.596 339.979 346.809 340.378 348.826 340.767C350.844 341.157 353.649 341.547 356.741 341.936C362.932 342.612 367.867 343.512 367.928 343.296Z" fill="#FF9A6C"></path>
<path d="M367.929 352.093C367.929 351.816 363.981 351.695 359.21 350.872C354.438 350.05 350.672 348.881 350.55 349.141C350.429 349.4 354.144 350.985 359.019 351.808C363.894 352.63 367.947 352.336 367.929 352.093Z" fill="#FF9A6C"></path>
<path d="M366.291 361.947C366.551 361.947 366.949 360.934 367.157 359.592C367.365 358.25 367.347 357.116 367.087 357.072C366.828 357.029 366.429 358.085 366.222 359.436C366.014 360.787 366.031 361.904 366.291 361.947Z" fill="#FF9A6C"></path>
<path d="M368.724 350.145C368.992 350.145 369.131 349.28 369.59 348.336C370.049 347.392 370.638 346.751 370.456 346.526C370.274 346.301 369.269 346.725 368.724 347.92C368.178 349.115 368.464 350.197 368.724 350.145Z" fill="#FF9A6C"></path>
<path d="M371.816 338.334C372.084 338.334 372.362 337.797 372.682 337.165C373.002 336.533 373.288 335.961 373.106 335.762C372.924 335.563 372.24 335.927 371.825 336.741C371.409 337.555 371.556 338.317 371.816 338.334Z" fill="#FF9A6C"></path>
<path d="M456.346 394.48L456.035 394.428L455.169 394.22C454.372 394.038 453.177 393.778 451.653 393.354C448.596 392.549 444.18 391.198 438.664 389.405C427.581 385.821 412.047 380.383 393.984 373.724L393.811 373.663V373.481C395.629 364.822 397.621 355.297 399.69 345.452L399.733 345.218L399.967 345.279L405.111 346.569L408.141 347.331L456.277 353.877L456.061 354.111C453.039 339.988 450.519 328.238 448.752 320.003L446.743 310.478L446.224 307.958C446.111 307.395 446.068 307.092 446.068 307.092C446.068 307.092 446.155 307.387 446.284 307.958C446.414 308.53 446.613 309.378 446.856 310.461L448.977 319.986L456.442 354.059L456.502 354.328H456.225L408.081 347.842L405.059 347.08L399.907 345.781L400.184 345.608C398.105 355.479 396.105 364.952 394.278 373.637L394.148 373.395C412.194 380.08 427.711 385.569 438.76 389.224C444.284 391.051 448.692 392.436 451.748 393.285C453.264 393.744 454.441 394.029 455.212 394.228L456.078 394.471L456.346 394.48Z" fill="#263238"></path>
<path d="M469.402 363.662C469.333 363.662 468.874 362.874 467.948 361.67C466.745 360.111 465.328 358.729 463.739 357.566C462.147 356.41 460.398 355.489 458.544 354.83C457.115 354.319 456.18 354.137 456.197 354.059C456.215 353.981 456.44 354.059 456.864 354.111C457.451 354.207 458.029 354.346 458.596 354.527C460.526 355.11 462.344 356.015 463.973 357.202C465.6 358.386 467.019 359.831 468.173 361.48C468.522 361.979 468.835 362.503 469.108 363.047C469.342 363.428 469.428 363.645 469.402 363.662Z" fill="#263238"></path>
</svg>
