<svg width="12" height="10" viewBox="0 0 12 10" fill="none" xmlns="http://www.w3.org/2000/svg">
<path d="M8.01802 0.134241V0.13208H8.58069L8.78628 0.173141C8.92334 0.199799 9.04778 0.234733 9.15959 0.277956C9.27141 0.321178 9.37961 0.371608 9.4842 0.429234C9.58881 0.486861 9.68367 0.545578 9.7688 0.605366C9.8532 0.66444 9.92894 0.727112 9.99603 0.793383C10.0624 0.860378 10.1659 0.877667 10.3066 0.84525C10.4472 0.812833 10.5987 0.767806 10.761 0.71018C10.9233 0.652554 11.0839 0.58772 11.2425 0.515679C11.4013 0.443638 11.4979 0.397898 11.5325 0.378448C11.5664 0.358285 11.5845 0.347479 11.5867 0.346031L11.5888 0.342789L11.5996 0.337387L11.6104 0.331984L11.6213 0.326581L11.6321 0.321178L11.6342 0.317936L11.6375 0.315775L11.6408 0.313614L11.6429 0.310373L11.6537 0.307131L11.6645 0.30497L11.6624 0.321178L11.6591 0.337387L11.6537 0.353595L11.6483 0.369803L11.6429 0.380609L11.6375 0.391415L11.6321 0.407623C11.6285 0.418429 11.6249 0.432832 11.6213 0.450845C11.6177 0.468858 11.5834 0.540889 11.5185 0.666958C11.4535 0.793027 11.3724 0.920889 11.275 1.05056C11.1776 1.18022 11.0903 1.27819 11.0132 1.34447C10.9353 1.41146 10.8837 1.45828 10.8584 1.48494C10.8332 1.51231 10.8025 1.53752 10.7664 1.56058L10.7123 1.59624L10.7015 1.60164L10.6907 1.60705L10.6885 1.61029L10.6853 1.61245L10.682 1.61461L10.6799 1.61785L10.6691 1.62325L10.6582 1.62866L10.6561 1.6319L10.6528 1.63406L10.6496 1.63622L10.6474 1.63946L10.6453 1.6427L10.642 1.64486L10.6388 1.64703L10.6366 1.65027H10.6907L10.9937 1.58543C11.1957 1.54221 11.3886 1.48999 11.5726 1.42875L11.8647 1.3315L11.8972 1.3207L11.9134 1.31529L11.9242 1.30989L11.9351 1.30449L11.9459 1.29909L11.9567 1.29368L11.9783 1.29044L12 1.28828V1.30989L11.9946 1.31205L11.9892 1.31529L11.987 1.31854L11.9838 1.3207L11.9805 1.32286L11.9783 1.3261L11.9762 1.32934L11.9729 1.3315L11.9697 1.33366L11.9675 1.33691L11.9654 1.34015L11.9621 1.34231L11.9567 1.35311L11.9513 1.36392L11.948 1.36608C11.9466 1.36824 11.9008 1.42947 11.8106 1.54978C11.7205 1.6708 11.6718 1.73202 11.6645 1.73347C11.6573 1.73563 11.6472 1.74644 11.6342 1.76589C11.622 1.78605 11.5455 1.86638 11.4049 2.00685C11.2642 2.14733 11.1264 2.2723 10.9915 2.38181C10.8559 2.49202 10.7874 2.62745 10.7859 2.7881C10.7838 2.94802 10.7755 3.12884 10.761 3.33054C10.7466 3.53225 10.7196 3.75015 10.6799 3.98428C10.6402 4.2184 10.5789 4.48314 10.4959 4.77849C10.413 5.07384 10.312 5.36199 10.193 5.64294C10.0739 5.92388 9.94949 6.17601 9.81964 6.39933C9.6898 6.62265 9.57077 6.81175 9.46256 6.96663C9.35436 7.1215 9.24436 7.26738 9.13254 7.40425C9.02073 7.54113 8.87935 7.69529 8.70838 7.86673C8.53669 8.03746 8.44292 8.13111 8.42705 8.14768C8.41046 8.16353 8.33977 8.2226 8.21495 8.32489C8.09088 8.4279 7.95742 8.53091 7.81459 8.63393C7.67249 8.73623 7.54191 8.82159 7.42289 8.89002C7.30386 8.95845 7.16032 9.03661 6.99223 9.1245C6.82488 9.21311 6.64381 9.29523 6.44904 9.37087C6.25427 9.44651 6.04868 9.51675 5.83227 9.58158C5.61585 9.64642 5.40666 9.69685 5.20467 9.73286C5.0027 9.76888 4.77366 9.7995 4.51757 9.82471L4.13344 9.86253V9.86793H3.4301V9.86253L3.33813 9.85712C3.27682 9.85353 3.22632 9.84992 3.18664 9.84632C3.14697 9.84272 2.99728 9.8229 2.73759 9.78689C2.47789 9.75087 2.27411 9.71485 2.12622 9.67883C1.97835 9.64282 1.75833 9.57437 1.46617 9.47353C1.17402 9.37268 0.92406 9.27074 0.716306 9.16773C0.509276 9.06543 0.379429 9.0006 0.326766 8.97323C0.274827 8.94657 0.216396 8.91344 0.151473 8.87381L0.0540875 8.81438L0.0519342 8.81114L0.0486773 8.80898L0.0454311 8.80682L0.043267 8.80358L0.0324464 8.79818L0.0216259 8.79277L0.0194726 8.78953L0.0162156 8.78737L0.0129694 8.78521L0.0108053 8.78197L0.00865201 8.77873L0.00539502 8.77656H-1.52588e-05V8.75495L0.0108053 8.75711L0.0216259 8.76036L0.0703184 8.76576C0.10278 8.76936 0.191152 8.77476 0.335422 8.78197C0.479703 8.78917 0.632987 8.78917 0.795296 8.78197C0.957604 8.77476 1.12353 8.75855 1.29304 8.73334C1.46257 8.70813 1.66275 8.66491 1.89358 8.60367C2.12443 8.54244 2.33651 8.46968 2.52984 8.3854C2.72245 8.3004 2.8595 8.23701 2.94102 8.19522C3.02181 8.15416 3.14516 8.0778 3.31108 7.96614L3.55995 7.79866L3.56211 7.79542L3.56536 7.79325L3.56862 7.79109L3.57077 7.78785L3.57293 7.78461L3.57618 7.78245L3.57944 7.78029L3.58159 7.77705L3.59241 7.7738L3.60323 7.77164L3.6054 7.76084L3.60864 7.75003L3.6119 7.74787L3.61405 7.74463L3.52749 7.73923C3.46978 7.73563 3.41387 7.73202 3.35977 7.72842C3.30567 7.72482 3.22091 7.70861 3.10549 7.6798C2.99007 7.65098 2.86564 7.60775 2.73218 7.55013C2.59873 7.4925 2.46888 7.42406 2.34264 7.34482C2.2164 7.26558 2.12514 7.19966 2.06888 7.14708C2.01333 7.0952 1.94119 7.02173 1.85246 6.92664C1.76446 6.83084 1.68799 6.7325 1.62307 6.63165C1.55815 6.5308 1.49611 6.41445 1.43697 6.28263L1.34714 6.08597L1.34173 6.06976L1.33632 6.05355L1.33308 6.04275L1.33091 6.03194L1.34714 6.0341L1.36338 6.03734L1.4824 6.05355C1.56176 6.06436 1.6862 6.06796 1.85571 6.06436C2.02524 6.06076 2.14246 6.05355 2.20738 6.04275C2.2723 6.03194 2.31198 6.02473 2.3264 6.02113L2.34805 6.01573L2.3751 6.01033L2.40215 6.00493L2.40431 6.00168L2.40756 5.99952L2.41082 5.99736L2.41297 5.99412L2.39133 5.98872L2.36969 5.98332L2.34805 5.97791L2.3264 5.97251L2.30476 5.96711C2.29034 5.96351 2.2651 5.9563 2.22902 5.9455C2.19296 5.93469 2.09557 5.89507 1.93686 5.82663C1.77817 5.7582 1.65193 5.69156 1.55815 5.62673C1.46413 5.56171 1.37449 5.4906 1.2898 5.41386C1.2054 5.33606 1.11271 5.23592 1.01171 5.11346C0.910719 4.991 0.820551 4.84873 0.741193 4.68664C0.661846 4.52456 0.602333 4.36968 0.562654 4.222C0.523134 4.07519 0.497061 3.92509 0.484757 3.77357L0.465269 3.54665L0.476089 3.54881L0.48691 3.55205L0.49773 3.55746L0.508551 3.56286L0.519372 3.56826L0.530192 3.57367L0.697911 3.6493C0.80973 3.69973 0.948591 3.74296 1.1145 3.77897C1.28042 3.81499 1.37961 3.8348 1.41207 3.8384L1.46076 3.84381H1.55815L1.55599 3.84056L1.55273 3.8384L1.54949 3.83624L1.54732 3.833L1.54517 3.82976L1.54191 3.8276L1.53867 3.82544L1.5365 3.82219L1.52568 3.81679L1.51486 3.81139L1.51271 3.80815L1.50945 3.80599L1.50621 3.80382L1.50404 3.80058L1.49322 3.79518L1.4824 3.78978L1.48025 3.78654C1.47808 3.78509 1.44706 3.76204 1.38718 3.71738C1.32802 3.672 1.26599 3.61329 1.20107 3.54125C1.13614 3.46921 1.07122 3.39357 1.0063 3.31433C0.941254 3.23491 0.883322 3.14994 0.833168 3.0604C0.782679 2.97036 0.72929 2.85581 0.673024 2.71678C0.617482 2.57847 0.575281 2.43908 0.546423 2.2986C0.517575 2.15813 0.501345 2.01946 0.49773 1.88259C0.494127 1.74571 0.49773 1.62866 0.508551 1.53141C0.519372 1.43416 0.541013 1.32429 0.573474 1.20183C0.605936 1.07938 0.652832 0.949708 0.714142 0.812833L0.806116 0.607527L0.811527 0.591318L0.816937 0.57511L0.820194 0.572949L0.822347 0.569707L0.824511 0.566465L0.827758 0.564304L0.831015 0.566465L0.833168 0.569707L0.835332 0.572949L0.838578 0.57511L0.841835 0.577271L0.843988 0.580513L0.846152 0.583754L0.849399 0.585915L0.854809 0.596721L0.860219 0.607527L0.863476 0.609688L0.865629 0.612929L1.01171 0.775014C1.10909 0.88307 1.22451 1.00374 1.35796 1.137C1.49143 1.27027 1.56536 1.33942 1.57979 1.34447C1.59422 1.35023 1.61225 1.36679 1.63389 1.39417C1.65553 1.42083 1.72767 1.48459 1.8503 1.58543C1.97294 1.68628 2.13344 1.80335 2.33182 1.93662C2.5302 2.06988 2.75021 2.20135 2.99187 2.33102C3.23354 2.46069 3.49323 2.57775 3.77095 2.6822C4.04868 2.78666 4.24345 2.85509 4.35526 2.88751C4.46708 2.91993 4.65824 2.96134 4.92875 3.01177C5.19926 3.0622 5.40306 3.09462 5.54011 3.10902C5.67718 3.12343 5.77096 3.13172 5.82145 3.13388L5.89719 3.13604L5.89504 3.11983L5.89178 3.10362L5.87014 2.96855C5.85571 2.87851 5.8485 2.75244 5.8485 2.59036C5.8485 2.42827 5.86112 2.2788 5.88637 2.14192C5.91162 2.00505 5.9495 1.86638 5.99998 1.72591C6.05048 1.58543 6.0999 1.47269 6.14823 1.38769C6.19729 1.30341 6.26149 1.20724 6.34083 1.09918C6.42019 0.991126 6.52299 0.879471 6.64922 0.764208C6.77546 0.648945 6.91973 0.546291 7.08204 0.456248C7.24435 0.366205 7.39404 0.297762 7.53109 0.250942C7.66816 0.204121 7.78358 0.173498 7.87735 0.159094C7.97113 0.14469 8.01802 0.136402 8.01802 0.134241V0.134241Z" fill="white"></path>
</svg>
