<svg width="28" height="28" viewBox="0 0 28 28" fill="none" xmlns="http://www.w3.org/2000/svg">
<path d="M7.8038 3.97522C8.65874 3.45795 9.57932 3.05794 10.5408 2.78592L11.1029 0.0814642L15.6809 0L16.3326 2.68002C17.3036 2.92413 18.2378 3.29668 19.1103 3.78785L21.4238 2.28087L24.6822 5.45778L23.2485 7.82009C23.7642 8.67294 24.1642 9.59062 24.4378 10.549L27.1422 11.1111L27.2237 15.6891L24.5355 16.3489C24.2987 17.3172 23.9315 18.2489 23.444 19.1185L24.9591 21.4319L21.7822 24.6903L19.4199 23.2566C18.5649 23.7739 17.6444 24.1739 16.6829 24.4459L16.1208 27.1504L11.5509 27.2318L10.9644 24.5844C9.98225 24.3575 9.03449 24.0014 8.14593 23.5254L5.84063 25.0406L2.58226 21.8555L4.00779 19.4932C3.48914 18.6303 3.08911 17.7015 2.81849 16.7317L0.081458 16.1941L0 11.6161L2.68816 10.9563C2.92862 9.98909 3.29564 9.05785 3.77971 8.18667L2.26457 5.87321L5.44148 2.61484L7.8038 4.04853V3.97522ZM10.2476 10.0684C9.57922 10.765 9.13213 11.6439 8.9627 12.5943C8.79326 13.5447 8.90908 14.524 9.29554 15.4087C9.682 16.2934 10.3218 17.0437 11.1342 17.5652C11.9466 18.0867 12.8953 18.3559 13.8605 18.3389C14.8258 18.3219 15.7643 18.0194 16.5579 17.4696C17.3514 16.9198 17.9644 16.1474 18.3194 15.2496C18.6744 14.3519 18.7557 13.3691 18.5529 12.4253C18.35 11.4815 17.8722 10.6188 17.1798 9.94617C16.7165 9.49825 16.1692 9.14638 15.5694 8.91078C14.9696 8.67518 14.3291 8.56051 13.6849 8.57338C13.0406 8.58625 12.4052 8.72641 11.8153 8.98578C11.2254 9.24514 10.6926 9.6186 10.2476 10.0847V10.0684Z" fill="#E0E0E0"></path>
</svg>
