<svg width="14" height="10" viewBox="0 0 14 10" fill="none" xmlns="http://www.w3.org/2000/svg">
<path d="M7.2924 9.65304L4.58427 9.60243C3.70744 9.58479 2.82843 9.61999 1.96879 9.43727C0.661078 9.16427 0.568435 7.82567 0.471494 6.70283C0.337919 5.12427 0.38963 3.51706 0.641703 1.95168C0.784006 1.07334 1.34403 0.549221 2.21008 0.492188C5.13365 0.285204 8.07666 0.309734 10.9937 0.406299C11.3018 0.415152 11.612 0.463535 11.9158 0.518609C13.4153 0.787221 13.4519 2.30415 13.5491 3.58112C13.6461 4.87127 13.6051 6.16804 13.4198 7.44941C13.2712 8.51034 12.9868 9.40004 11.7865 9.48593C10.2827 9.59824 8.81337 9.68865 7.3053 9.65986C7.30536 9.65304 7.2967 9.65304 7.2924 9.65304ZM5.70028 6.96705C6.83355 6.30211 7.9452 5.64825 9.07199 4.98777C7.9366 4.32283 6.82707 3.66897 5.70028 3.00849V6.96705Z" fill="white"></path>
</svg>
